<?xml version="1.0" encoding="utf-8"?>
<!-- Generator: Adobe Illustrator 26.5.0, SVG Export Plug-In . SVG Version: 6.00 Build 0)  -->
<svg version="1.1" xmlns="http://www.w3.org/2000/svg" xmlns:xlink="http://www.w3.org/1999/xlink" x="0px" y="0px"
	 viewBox="0 0 357 100" style="enable-background:new 0 0 357 100;" xml:space="preserve">
<style type="text/css">
	.st0{display:none;}
	.st1{display:inline;}
	.st2{fill:#1A78B7;}
	.st3{fill:#FFFFFF;}
</style>
<g id="Capa_2" class="st0">
	<g class="st1">
		<rect x="-3.5" y="-3.5" class="st2" width="392" height="111"/>
		<path d="M388-3v110H-3V-3H388 M389-4H-4v112h393V-4L389-4z"/>
	</g>
</g>
<g id="Logo">
	<g>
		<g>
			<path class="st3" d="M193.4,84.3c0.3,0,0.6,0.1,1,0.2c0.3,0.1,0.6,0.3,0.9,0.6l5.4,5.6c-2.4,3.1-5.3,5.4-8.8,6.9
				c-3.5,1.6-7.7,2.3-12.6,2.3c-4.4,0-8.4-0.8-11.9-2.3c-3.5-1.5-6.5-3.6-8.9-6.2c-2.4-2.7-4.3-5.8-5.6-9.4c-1.3-3.6-2-7.6-2-11.9
				c0-4.3,0.7-8.3,2.1-12c1.4-3.6,3.4-6.8,6-9.4c2.6-2.6,5.6-4.7,9.2-6.2s7.5-2.2,11.8-2.2c2.2,0,4.3,0.2,6.2,0.6
				c1.9,0.4,3.7,0.9,5.4,1.6c1.7,0.7,3.2,1.5,4.6,2.5s2.7,2,3.8,3.1l-4.6,6.1c-0.3,0.4-0.6,0.7-1,1c-0.4,0.3-1,0.5-1.7,0.5
				c-0.5,0-0.9-0.1-1.4-0.3s-0.9-0.5-1.4-0.8c-0.5-0.3-1-0.6-1.6-1c-0.6-0.4-1.3-0.7-2-1c-0.8-0.3-1.7-0.6-2.8-0.8
				c-1.1-0.2-2.3-0.3-3.7-0.3c-2.2,0-4.3,0.4-6.2,1.2c-1.9,0.8-3.5,2-4.8,3.6c-1.4,1.6-2.4,3.5-3.1,5.8c-0.7,2.3-1.1,4.9-1.1,7.9
				c0,3,0.4,5.6,1.2,8c0.8,2.3,1.9,4.3,3.3,5.9c1.4,1.6,3,2.8,4.9,3.6c1.9,0.8,3.9,1.2,6,1.2c1.2,0,2.4-0.1,3.4-0.2
				c1-0.1,2-0.3,2.8-0.6c0.9-0.3,1.7-0.7,2.5-1.1c0.8-0.5,1.6-1.1,2.4-1.8c0.3-0.3,0.7-0.5,1-0.7C192.7,84.4,193,84.3,193.4,84.3z"
				/>
			<path class="st3" d="M219.2,46.5c0,1-0.2,1.9-0.6,2.8c-0.4,0.9-0.9,1.6-1.6,2.3c-0.7,0.7-1.5,1.2-2.4,1.6
				c-0.9,0.4-1.9,0.6-2.9,0.6c-1,0-2-0.2-2.8-0.6c-0.9-0.4-1.7-0.9-2.3-1.6c-0.7-0.7-1.2-1.4-1.6-2.3c-0.4-0.9-0.6-1.8-0.6-2.8
				c0-1,0.2-2,0.6-2.8c0.4-0.9,0.9-1.7,1.6-2.3c0.7-0.7,1.5-1.2,2.3-1.6c0.9-0.4,1.8-0.6,2.8-0.6c1,0,2,0.2,2.9,0.6
				c0.9,0.4,1.7,0.9,2.4,1.6c0.7,0.7,1.2,1.4,1.6,2.3S219.2,45.5,219.2,46.5z M217.9,57.9v41.5h-12.4V57.9H217.9z"/>
			<path class="st3" d="M229.7,99.4v-33l-2.7-0.6c-0.9-0.2-1.7-0.5-2.3-1c-0.6-0.5-0.9-1.1-0.9-2V58h5.8v-2.4c0-2.4,0.4-4.5,1.1-6.4
				c0.8-1.9,1.9-3.6,3.3-4.9c1.4-1.4,3.2-2.4,5.2-3.2c2.1-0.7,4.4-1.1,7-1.1c1,0,1.9,0.1,2.8,0.2c0.9,0.1,1.8,0.3,2.7,0.6l-0.2,6
				c0,0.4-0.1,0.8-0.3,1.1c-0.2,0.3-0.4,0.5-0.7,0.7c-0.3,0.2-0.6,0.3-1,0.4c-0.3,0.1-0.7,0.1-1,0.1c-1.1,0-2.1,0.1-2.9,0.3
				s-1.6,0.6-2.1,1.1c-0.6,0.5-1,1.3-1.3,2.2c-0.3,0.9-0.4,2-0.4,3.4v2h9.7v8.5h-9.3v32.9H229.7z"/>
			<path class="st3" d="M267.5,64.3c1.3-2.2,2.8-4,4.4-5.3s3.6-1.9,5.8-1.9c1.9,0,3.4,0.4,4.6,1.3l-0.8,9.1c-0.1,0.6-0.4,1-0.7,1.2
				c-0.3,0.2-0.7,0.3-1.3,0.3c-0.2,0-0.5,0-0.8,0c-0.3,0-0.7-0.1-1.1-0.1c-0.4,0-0.8-0.1-1.1-0.1c-0.4,0-0.7-0.1-1.1-0.1
				c-1.8,0-3.3,0.5-4.3,1.4c-1.1,1-2,2.3-2.7,4v25.2h-12.4V57.9h7.4c0.6,0,1.1,0.1,1.5,0.2c0.4,0.1,0.8,0.3,1,0.5
				c0.3,0.2,0.5,0.5,0.6,0.9c0.1,0.4,0.3,0.8,0.4,1.4L267.5,64.3z"/>
			<path class="st3" d="M285.2,63.6c2.5-2.2,5.3-3.9,8.4-4.9c3.1-1.1,6.3-1.6,9.8-1.6c2.5,0,4.8,0.4,6.8,1.2c2,0.8,3.7,1.9,5.1,3.4
				c1.4,1.5,2.5,3.2,3.2,5.2c0.7,2,1.1,4.2,1.1,6.6v25.9h-5.7c-1.2,0-2.1-0.2-2.7-0.5c-0.6-0.3-1.1-1-1.5-2l-0.9-2.3
				c-1,0.9-2,1.7-3,2.3c-1,0.7-2,1.2-3,1.7c-1,0.5-2.1,0.8-3.3,1c-1.2,0.2-2.4,0.3-3.9,0.3c-1.9,0-3.6-0.2-5.2-0.7
				c-1.5-0.5-2.9-1.2-3.9-2.2c-1.1-1-1.9-2.1-2.5-3.6c-0.6-1.4-0.9-3.1-0.9-4.9c0-1.5,0.4-3,1.1-4.5c0.7-1.5,2-2.9,3.9-4.2
				c1.8-1.3,4.3-2.3,7.5-3.2c3.1-0.9,7.1-1.3,11.8-1.4v-1.8c0-2.4-0.5-4.2-1.5-5.3c-1-1.1-2.4-1.6-4.3-1.6c-1.5,0-2.7,0.2-3.6,0.5
				c-0.9,0.3-1.8,0.7-2.5,1.1c-0.7,0.4-1.5,0.8-2.1,1.1c-0.7,0.3-1.5,0.5-2.5,0.5c-0.9,0-1.6-0.2-2.2-0.6s-1.1-0.9-1.4-1.5
				L285.2,63.6z M307.5,82.5c-2.5,0.1-4.5,0.3-6.1,0.6c-1.6,0.3-2.9,0.7-3.8,1.2c-0.9,0.5-1.6,1-1.9,1.6c-0.4,0.6-0.5,1.3-0.5,2
				c0,1.4,0.4,2.4,1.2,3c0.8,0.6,1.9,0.9,3.4,0.9c1.6,0,3-0.3,4.2-0.8c1.2-0.6,2.4-1.5,3.6-2.7V82.5z"/>
			<path class="st3" d="M354,67c-0.3,0.5-0.7,0.9-1,1.1c-0.4,0.2-0.8,0.3-1.4,0.3c-0.6,0-1.2-0.1-1.8-0.4c-0.6-0.3-1.2-0.5-1.9-0.8
				c-0.7-0.3-1.5-0.6-2.3-0.8c-0.9-0.3-1.8-0.4-2.9-0.4c-1.6,0-2.8,0.3-3.6,0.9c-0.8,0.6-1.3,1.4-1.3,2.5c0,0.8,0.3,1.4,0.8,1.9
				c0.6,0.5,1.3,1,2.2,1.3c0.9,0.4,1.9,0.8,3.1,1.1c1.1,0.4,2.3,0.7,3.5,1.2s2.4,0.9,3.5,1.5c1.1,0.6,2.2,1.3,3.1,2.1
				c0.9,0.8,1.6,1.9,2.2,3.1c0.5,1.2,0.8,2.6,0.8,4.3c0,2.1-0.4,3.9-1.1,5.7c-0.7,1.7-1.9,3.2-3.3,4.5c-1.5,1.3-3.3,2.2-5.5,2.9
				c-2.2,0.7-4.7,1-7.5,1c-1.4,0-2.8-0.1-4.3-0.4s-2.8-0.6-4.1-1.1c-1.3-0.5-2.5-1-3.7-1.6c-1.1-0.6-2.1-1.3-2.9-2l2.9-4.6
				c0.3-0.5,0.7-1,1.2-1.3c0.5-0.3,1.1-0.5,1.9-0.5c0.7,0,1.4,0.2,1.9,0.5c0.6,0.3,1.2,0.7,1.9,1c0.7,0.4,1.4,0.7,2.3,1
				c0.9,0.3,2,0.5,3.4,0.5c1,0,1.8-0.1,2.4-0.3c0.7-0.2,1.2-0.5,1.6-0.8c0.4-0.3,0.7-0.7,0.9-1.2s0.3-0.9,0.3-1.3
				c0-0.8-0.3-1.5-0.8-2c-0.6-0.5-1.3-1-2.2-1.4c-0.9-0.4-1.9-0.7-3.1-1.1c-1.2-0.3-2.3-0.7-3.5-1.1c-1.2-0.4-2.4-0.9-3.5-1.5
				c-1.2-0.6-2.2-1.4-3.1-2.3c-0.9-0.9-1.6-2-2.2-3.4c-0.6-1.3-0.8-2.9-0.8-4.8c0-1.8,0.3-3.4,1-5c0.7-1.6,1.7-3,3.1-4.2
				c1.4-1.2,3.1-2.2,5.1-2.9c2.1-0.7,4.5-1.1,7.2-1.1c1.5,0,2.9,0.1,4.3,0.4c1.4,0.3,2.7,0.6,3.9,1.1c1.2,0.5,2.4,1,3.4,1.7
				c1,0.7,1.9,1.4,2.7,2.1L354,67z"/>
		</g>
		<g>
			<g>
				<g>
					<g>
						<path class="st3" d="M2.3,37.4c6,22.3,18.6,43.9,35.6,59.6c19.8-4.7,38.9-15,53.9-28.9c-0.3-0.3-0.6-0.6-0.9-0.9l0,0
							c0,0-3.6-3.8-9.3-4.2c-6.5-0.4-15.1,9.3-15.1,9.3v0c-5,5.9-12.5,9.7-20.9,9.7c-15,0-27.3-12.2-27.3-27.2
							c0-15,12.2-27.2,27.3-27.2c3.2,0,6.3,0.6,9.2,1.6C61.5,31.7,67,36.6,70.1,43l0,0c0,0,5.9,12.2,12.3,13.4
							c5.5,1,10.2-1.8,10.2-1.8v0c0.6-0.4,1.4-0.8,2.1-1C88.6,34.5,77.4,16.4,63.3,2.3C40.6,8.2,18.7,20.8,2.3,37.4z M65.8,15
							c0,3.6-2.9,6.6-6.6,6.6c-3.6,0-6.6-2.9-6.6-6.6c0-3.6,2.9-6.6,6.6-6.6C62.9,8.5,65.8,11.4,65.8,15z"/>
						<g>
							<path class="st3" d="M89.6,30.9c0.8,2.9,1.5,5.8,2,8.7c1.7,3.8,3.2,7.6,4.5,11.5c1.2-2.8,2.3-5.6,3.3-8.5
								C96.5,38.5,93.1,34.6,89.6,30.9z"/>
							<path class="st3" d="M51.4,3.8c-2.9-1.4-5.9-2.6-8.9-3.7c-4.1,3.2-8,6.7-11.8,10.5c3.3-0.9,6.6-1.7,10-2.4
								C44.2,6.5,47.8,5.1,51.4,3.8z"/>
							<path class="st3" d="M49.3,96c2.9,1.3,5.9,2.4,8.9,3.4c4.3-3.3,8.4-6.9,12.3-10.7c-2.9,0.9-5.9,1.6-8.8,2.3
								C57.6,92.8,53.5,94.5,49.3,96z"/>
							<path class="st3" d="M3.8,49.2c-1.4,3-2.7,6-3.8,9.1c3.5,4.3,7.2,8.4,11.3,12.3c-1-3.3-1.9-6.7-2.7-10.1
								C6.8,56.7,5.2,53,3.8,49.2z"/>
						</g>
						<g>
							<path class="st3" d="M22.3,91.3c2.4,0.2,4.9,0.4,7.3,0.5c-6.3-6.9-11.9-14.6-16.6-22.9C15.4,76.7,18.5,84.3,22.3,91.3z"/>
							<path class="st3" d="M91.3,77.8c0.3-2.3,0.4-4.6,0.6-6.8C85.4,76.8,78.1,82,70.4,86.4C77.7,84.2,84.7,81.3,91.3,77.8z"/>
							<path class="st3" d="M7.8,21.7c-0.2,2.6-0.3,5.3-0.3,8c7.6-6.6,16-12.5,25-17.4C23.9,14.6,15.6,17.7,7.8,21.7z"/>
							<path class="st3" d="M78.7,7.9c-2.5-0.2-5-0.3-7.5-0.4c6.2,7.2,11.7,15.1,16.3,23.6C85.2,23.1,82.3,15.3,78.7,7.9z"/>
						</g>
						<g>
							<g>
								<path class="st3" d="M32,56.1c-0.7-7.5,4.8-14.1,12.3-14.8c7.5-0.7,14.1,4.8,14.8,12.3c0.7,7.5-4.8,14.1-12.3,14.8
									C39.4,69.1,32.7,63.6,32,56.1z"/>
								<path class="st3" d="M45.6,54.9"/>
							</g>
							<g>
								<path class="st3" d="M93,62.1c-0.2-2.3,1.5-4.4,3.8-4.6c2.3-0.2,4.4,1.5,4.6,3.8c0.2,2.3-1.5,4.4-3.8,4.6
									C95.3,66.1,93.2,64.4,93,62.1z"/>
								<path class="st3" d="M97.2,61.7"/>
							</g>
							<g>
								<path class="st3" d="M56,15c0-1.8,1.5-3.3,3.3-3.3c1.8,0,3.3,1.5,3.3,3.3c0,1.8-1.5,3.3-3.3,3.3C57.4,18.3,56,16.8,56,15z"
									/>
								<path class="st3" d="M59.3,15"/>
							</g>
						</g>
						<path class="st3" d="M81.1,63.1"/>
					</g>
				</g>
			</g>
		</g>
		<g>
			<path class="st3" d="M157.1,12.4c1.2,0,2.2,0.1,3.1,0.4c0.9,0.2,1.6,0.6,2.2,1c0.6,0.5,1,1,1.3,1.7c0.3,0.7,0.4,1.4,0.4,2.2
				c0,0.6-0.1,1.1-0.3,1.6c-0.2,0.5-0.5,1-0.8,1.4c-0.4,0.4-0.8,0.8-1.3,1.1c-0.5,0.3-1.1,0.6-1.8,0.7c1.7,0.2,2.9,0.8,3.8,1.6
				c0.9,0.9,1.3,2,1.3,3.4c0,0.9-0.2,1.7-0.5,2.4c-0.3,0.7-0.8,1.3-1.4,1.8c-0.6,0.5-1.3,0.9-2.2,1.1s-1.9,0.4-3,0.4h-6.8v-21H157.1
				z M152.6,13.6v8.6h4.5c1,0,1.8-0.1,2.5-0.4c0.7-0.3,1.3-0.6,1.7-1c0.4-0.4,0.8-0.9,1-1.4c0.2-0.5,0.3-1,0.3-1.6
				c0-1.4-0.4-2.5-1.3-3.2c-0.9-0.7-2.3-1.1-4.1-1.1H152.6z M157.9,32.2c1.8,0,3.2-0.4,4.2-1.2c0.9-0.8,1.4-1.9,1.4-3.4
				c0-0.7-0.1-1.3-0.4-1.8c-0.3-0.5-0.6-1-1.1-1.3c-0.5-0.4-1.1-0.7-1.7-0.9c-0.7-0.2-1.5-0.3-2.4-0.3h-5.3v8.8H157.9z"/>
			<path class="st3" d="M171,13.6c0,0.2,0,0.3-0.1,0.5c-0.1,0.1-0.2,0.3-0.3,0.4c-0.1,0.1-0.3,0.2-0.4,0.3s-0.3,0.1-0.5,0.1
				c-0.2,0-0.3,0-0.5-0.1s-0.3-0.2-0.4-0.3c-0.1-0.1-0.2-0.3-0.3-0.4c-0.1-0.2-0.1-0.3-0.1-0.5c0-0.2,0-0.3,0.1-0.5
				c0.1-0.2,0.2-0.3,0.3-0.4s0.3-0.2,0.4-0.3s0.3-0.1,0.5-0.1c0.2,0,0.3,0,0.5,0.1s0.3,0.2,0.4,0.3c0.1,0.1,0.2,0.3,0.3,0.4
				C171,13.2,171,13.4,171,13.6z M170.4,18.6v14.8H169V18.6H170.4z"/>
			<path class="st3" d="M181.3,18.4c1.1,0,2,0.2,2.8,0.5c0.8,0.4,1.5,0.9,2.1,1.5c0.6,0.7,1,1.5,1.3,2.4c0.3,0.9,0.5,2,0.5,3.1
				s-0.2,2.2-0.5,3.1c-0.3,0.9-0.7,1.7-1.3,2.4c-0.6,0.7-1.3,1.2-2.1,1.5c-0.8,0.4-1.8,0.5-2.8,0.5c-1.1,0-2-0.2-2.8-0.5
				c-0.8-0.4-1.5-0.9-2.1-1.5c-0.6-0.7-1-1.5-1.3-2.4c-0.3-0.9-0.4-2-0.4-3.1s0.1-2.2,0.4-3.1c0.3-0.9,0.7-1.7,1.3-2.4
				c0.6-0.7,1.3-1.2,2.1-1.5C179.3,18.6,180.2,18.4,181.3,18.4z M181.3,32.5c0.9,0,1.7-0.2,2.3-0.5c0.7-0.3,1.2-0.7,1.6-1.3
				c0.4-0.6,0.8-1.2,1-2c0.2-0.8,0.3-1.7,0.3-2.7c0-1-0.1-1.9-0.3-2.7c-0.2-0.8-0.5-1.5-1-2.1c-0.4-0.6-1-1-1.6-1.3
				c-0.7-0.3-1.4-0.5-2.3-0.5c-0.9,0-1.6,0.2-2.3,0.5c-0.7,0.3-1.2,0.7-1.6,1.3c-0.4,0.6-0.8,1.2-1,2.1c-0.2,0.8-0.3,1.7-0.3,2.7
				c0,1,0.1,1.9,0.3,2.7c0.2,0.8,0.6,1.5,1,2c0.4,0.6,1,1,1.6,1.3C179.6,32.3,180.4,32.5,181.3,32.5z"/>
			<path class="st3" d="M203.5,11.8v21.6h-0.8c-0.3,0-0.4-0.1-0.4-0.4l-0.2-2.3c-0.7,0.9-1.4,1.6-2.3,2.1c-0.9,0.5-1.9,0.8-2.9,0.8
				c-1.8,0-3.2-0.6-4.3-1.9s-1.5-3.1-1.5-5.6c0-1.1,0.1-2.1,0.4-3c0.3-0.9,0.7-1.7,1.2-2.4c0.5-0.7,1.2-1.2,2-1.6
				c0.8-0.4,1.7-0.6,2.8-0.6c1,0,1.9,0.2,2.6,0.5c0.7,0.4,1.4,0.9,1.9,1.6v-8.7H203.5z M202.1,21.8c-0.6-0.8-1.2-1.4-1.9-1.8
				s-1.5-0.5-2.4-0.5c-0.9,0-1.6,0.2-2.3,0.5c-0.7,0.3-1.2,0.8-1.6,1.3c-0.4,0.6-0.8,1.3-1,2.1c-0.2,0.8-0.3,1.7-0.3,2.7
				c0,2.2,0.4,3.8,1.2,4.8c0.8,1,2,1.6,3.5,1.6c1,0,1.9-0.3,2.7-0.8c0.8-0.5,1.5-1.2,2.1-2.1V21.8z"/>
			<path class="st3" d="M210.6,13.6c0,0.2,0,0.3-0.1,0.5c-0.1,0.1-0.2,0.3-0.3,0.4c-0.1,0.1-0.3,0.2-0.4,0.3s-0.3,0.1-0.5,0.1
				s-0.3,0-0.5-0.1s-0.3-0.2-0.4-0.3c-0.1-0.1-0.2-0.3-0.3-0.4c-0.1-0.2-0.1-0.3-0.1-0.5c0-0.2,0-0.3,0.1-0.5
				c0.1-0.2,0.2-0.3,0.3-0.4s0.3-0.2,0.4-0.3s0.3-0.1,0.5-0.1s0.3,0,0.5,0.1s0.3,0.2,0.4,0.3c0.1,0.1,0.2,0.3,0.3,0.4
				C210.5,13.2,210.6,13.4,210.6,13.6z M209.9,18.6v14.8h-1.4V18.6H209.9z"/>
			<path class="st3" d="M226.8,18.6l-6.2,14.8h-1.2l-6.2-14.8h1.1c0.1,0,0.3,0,0.3,0.1c0.1,0.1,0.1,0.2,0.2,0.2l4.9,11.6
				c0.2,0.4,0.3,0.9,0.4,1.3c0.1-0.4,0.2-0.9,0.4-1.3l4.9-11.6c0.1-0.1,0.1-0.2,0.2-0.3c0.1-0.1,0.2-0.1,0.3-0.1H226.8z"/>
			<path class="st3" d="M230,25.4v0.3c0,1.1,0.1,2.1,0.4,2.9c0.3,0.8,0.6,1.5,1.1,2.1c0.5,0.6,1.1,1,1.7,1.3
				c0.7,0.3,1.4,0.4,2.3,0.4c0.7,0,1.4-0.1,1.9-0.2c0.5-0.2,1-0.3,1.4-0.5c0.4-0.2,0.7-0.4,0.9-0.5c0.2-0.2,0.4-0.2,0.5-0.2
				c0.1,0,0.2,0.1,0.3,0.1l0.4,0.5c-0.2,0.3-0.5,0.6-0.9,0.8c-0.4,0.3-0.8,0.5-1.3,0.7c-0.5,0.2-1,0.3-1.5,0.4
				c-0.5,0.1-1.1,0.2-1.7,0.2c-1,0-1.9-0.2-2.8-0.5c-0.8-0.3-1.5-0.9-2.1-1.5s-1.1-1.5-1.4-2.5c-0.3-1-0.5-2.1-0.5-3.3
				c0-1.1,0.1-2,0.4-2.9c0.3-0.9,0.7-1.7,1.3-2.3c0.6-0.7,1.3-1.2,2.1-1.5c0.8-0.4,1.8-0.5,2.8-0.5c0.8,0,1.6,0.1,2.3,0.4
				c0.7,0.3,1.3,0.7,1.9,1.3c0.5,0.5,0.9,1.2,1.2,2c0.3,0.8,0.4,1.7,0.4,2.8c0,0.2,0,0.4-0.1,0.4c-0.1,0.1-0.2,0.1-0.3,0.1H230z
				 M239.9,24.5c0-0.8-0.1-1.5-0.3-2.1s-0.5-1.2-0.9-1.6c-0.4-0.4-0.9-0.8-1.5-1c-0.6-0.2-1.2-0.3-1.8-0.3c-0.8,0-1.4,0.1-2.1,0.4
				c-0.6,0.2-1.1,0.6-1.6,1c-0.4,0.4-0.8,1-1.1,1.6s-0.4,1.3-0.5,2.1H239.9z"/>
			<path class="st3" d="M246.4,22.2c0.2-0.6,0.5-1.1,0.8-1.6c0.3-0.5,0.6-0.9,1-1.2c0.4-0.3,0.8-0.6,1.3-0.7c0.5-0.2,1-0.3,1.6-0.3
				c0.3,0,0.6,0,0.9,0.1s0.6,0.1,0.8,0.3l-0.1,1c-0.1,0.2-0.1,0.2-0.3,0.2c-0.1,0-0.3,0-0.5-0.1c-0.2-0.1-0.6-0.1-1-0.1
				c-0.6,0-1.1,0.1-1.5,0.3c-0.4,0.2-0.8,0.4-1.2,0.8c-0.4,0.3-0.7,0.8-0.9,1.3c-0.3,0.5-0.5,1.1-0.7,1.8v9.5H245V18.6h0.8
				c0.2,0,0.3,0,0.4,0.1c0.1,0.1,0.1,0.2,0.1,0.4L246.4,22.2z"/>
			<path class="st3" d="M263.5,20.5c-0.1,0.1-0.2,0.2-0.3,0.2c-0.1,0-0.3-0.1-0.4-0.2c-0.2-0.1-0.4-0.3-0.7-0.4
				c-0.3-0.2-0.6-0.3-1-0.4c-0.4-0.1-0.9-0.2-1.5-0.2c-0.5,0-1,0.1-1.5,0.2c-0.4,0.2-0.8,0.4-1.1,0.6c-0.3,0.3-0.6,0.6-0.7,0.9
				s-0.3,0.7-0.3,1.1c0,0.5,0.1,0.9,0.4,1.2c0.2,0.3,0.5,0.6,0.9,0.8c0.4,0.2,0.8,0.4,1.3,0.6c0.5,0.2,1,0.3,1.5,0.5
				c0.5,0.2,1,0.3,1.5,0.5c0.5,0.2,0.9,0.4,1.3,0.7c0.4,0.3,0.7,0.6,0.9,1.1c0.2,0.4,0.4,0.9,0.4,1.5c0,0.6-0.1,1.2-0.3,1.8
				c-0.2,0.6-0.6,1-1,1.4c-0.4,0.4-1,0.7-1.6,1c-0.6,0.2-1.4,0.4-2.2,0.4c-1,0-1.9-0.2-2.7-0.5c-0.8-0.3-1.4-0.8-2-1.3l0.3-0.5
				c0.1-0.1,0.1-0.1,0.2-0.2c0.1,0,0.1-0.1,0.3-0.1c0.1,0,0.3,0.1,0.5,0.2c0.2,0.2,0.4,0.3,0.7,0.5c0.3,0.2,0.7,0.4,1.1,0.5
				c0.4,0.2,1,0.2,1.7,0.2c0.6,0,1.2-0.1,1.6-0.3c0.5-0.2,0.9-0.4,1.2-0.7c0.3-0.3,0.6-0.6,0.7-1c0.2-0.4,0.2-0.8,0.2-1.3
				c0-0.5-0.1-0.9-0.4-1.2c-0.2-0.3-0.5-0.6-0.9-0.8c-0.4-0.2-0.8-0.4-1.3-0.6c-0.5-0.2-1-0.3-1.5-0.5c-0.5-0.2-1-0.3-1.5-0.5
				c-0.5-0.2-0.9-0.4-1.3-0.7c-0.4-0.3-0.7-0.6-0.9-1.1c-0.2-0.4-0.4-0.9-0.4-1.5c0-0.5,0.1-1,0.3-1.5c0.2-0.5,0.5-0.9,1-1.3
				c0.4-0.4,0.9-0.7,1.5-0.9c0.6-0.2,1.3-0.3,2-0.3c0.9,0,1.7,0.1,2.4,0.4c0.7,0.3,1.3,0.7,1.9,1.2L263.5,20.5z"/>
			<path class="st3" d="M270.2,13.6c0,0.2,0,0.3-0.1,0.5c-0.1,0.1-0.2,0.3-0.3,0.4c-0.1,0.1-0.3,0.2-0.4,0.3s-0.3,0.1-0.5,0.1
				c-0.2,0-0.3,0-0.5-0.1c-0.2-0.1-0.3-0.2-0.4-0.3c-0.1-0.1-0.2-0.3-0.3-0.4c-0.1-0.2-0.1-0.3-0.1-0.5c0-0.2,0-0.3,0.1-0.5
				c0.1-0.2,0.2-0.3,0.3-0.4s0.3-0.2,0.4-0.3c0.2-0.1,0.3-0.1,0.5-0.1c0.2,0,0.3,0,0.5,0.1s0.3,0.2,0.4,0.3c0.1,0.1,0.2,0.3,0.3,0.4
				C270.1,13.2,270.2,13.4,270.2,13.6z M269.6,18.6v14.8h-1.4V18.6H269.6z"/>
			<path class="st3" d="M286.1,11.8v21.6h-0.8c-0.3,0-0.4-0.1-0.4-0.4l-0.2-2.3c-0.7,0.9-1.4,1.6-2.3,2.1c-0.9,0.5-1.9,0.8-2.9,0.8
				c-1.8,0-3.2-0.6-4.3-1.9c-1-1.3-1.5-3.1-1.5-5.6c0-1.1,0.1-2.1,0.4-3c0.3-0.9,0.7-1.7,1.2-2.4c0.5-0.7,1.2-1.2,2-1.6
				c0.8-0.4,1.7-0.6,2.8-0.6c1,0,1.9,0.2,2.6,0.5c0.7,0.4,1.4,0.9,1.9,1.6v-8.7H286.1z M284.7,21.8c-0.6-0.8-1.2-1.4-1.9-1.8
				s-1.5-0.5-2.4-0.5c-0.9,0-1.6,0.2-2.3,0.5c-0.7,0.3-1.2,0.8-1.6,1.3c-0.4,0.6-0.8,1.3-1,2.1c-0.2,0.8-0.3,1.7-0.3,2.7
				c0,2.2,0.4,3.8,1.2,4.8c0.8,1,2,1.6,3.5,1.6c1,0,1.9-0.3,2.7-0.8c0.8-0.5,1.5-1.2,2.1-2.1V21.8z"/>
			<path class="st3" d="M290.5,20.7c0.8-0.8,1.6-1.4,2.4-1.7s1.8-0.6,2.9-0.6c0.8,0,1.5,0.1,2.1,0.4s1.1,0.6,1.5,1.1
				c0.4,0.5,0.7,1,0.9,1.7c0.2,0.7,0.3,1.4,0.3,2.2v9.6h-0.6c-0.3,0-0.5-0.1-0.5-0.4l-0.2-1.9c-0.4,0.4-0.8,0.8-1.2,1.1
				c-0.4,0.3-0.8,0.6-1.3,0.8c-0.4,0.2-0.9,0.4-1.4,0.5s-1.1,0.2-1.7,0.2c-0.5,0-1-0.1-1.5-0.2c-0.5-0.1-0.9-0.4-1.3-0.7
				c-0.4-0.3-0.7-0.7-0.9-1.2c-0.2-0.5-0.3-1.1-0.3-1.7c0-0.6,0.2-1.2,0.5-1.7c0.4-0.5,0.9-1,1.7-1.4s1.7-0.7,2.9-0.9
				c1.2-0.2,2.6-0.4,4.3-0.4v-1.5c0-1.4-0.3-2.4-0.9-3.2c-0.6-0.7-1.5-1.1-2.6-1.1c-0.7,0-1.3,0.1-1.8,0.3s-0.9,0.4-1.3,0.7
				c-0.3,0.2-0.6,0.5-0.8,0.7c-0.2,0.2-0.4,0.3-0.5,0.3c-0.1,0-0.2,0-0.3-0.1s-0.1-0.1-0.2-0.2L290.5,20.7z M299.2,26.3
				c-1.4,0.1-2.6,0.2-3.6,0.3s-1.9,0.4-2.5,0.7c-0.7,0.3-1.1,0.7-1.5,1.1c-0.3,0.4-0.5,0.9-0.5,1.4c0,0.5,0.1,0.9,0.2,1.3
				c0.2,0.4,0.4,0.7,0.7,0.9c0.3,0.2,0.6,0.4,0.9,0.5c0.4,0.1,0.7,0.2,1.1,0.2c0.6,0,1.1-0.1,1.6-0.2c0.5-0.1,0.9-0.3,1.3-0.5
				c0.4-0.2,0.8-0.5,1.1-0.8c0.4-0.3,0.7-0.6,1.1-1V26.3z"/>
			<path class="st3" d="M316.9,11.8v21.6h-0.8c-0.3,0-0.4-0.1-0.4-0.4l-0.2-2.3c-0.7,0.9-1.4,1.6-2.3,2.1c-0.9,0.5-1.9,0.8-2.9,0.8
				c-1.8,0-3.2-0.6-4.3-1.9c-1-1.3-1.5-3.1-1.5-5.6c0-1.1,0.1-2.1,0.4-3c0.3-0.9,0.7-1.7,1.2-2.4c0.5-0.7,1.2-1.2,2-1.6
				c0.8-0.4,1.7-0.6,2.8-0.6c1,0,1.9,0.2,2.6,0.5c0.7,0.4,1.4,0.9,1.9,1.6v-8.7H316.9z M315.4,21.8c-0.6-0.8-1.2-1.4-1.9-1.8
				s-1.5-0.5-2.4-0.5c-0.9,0-1.6,0.2-2.3,0.5c-0.7,0.3-1.2,0.8-1.6,1.3c-0.4,0.6-0.8,1.3-1,2.1c-0.2,0.8-0.3,1.7-0.3,2.7
				c0,2.2,0.4,3.8,1.2,4.8c0.8,1,2,1.6,3.5,1.6c1,0,1.9-0.3,2.7-0.8c0.8-0.5,1.5-1.2,2.1-2.1V21.8z"/>
			<path class="st3" d="M330.3,25.4v0.3c0,1.1,0.1,2.1,0.4,2.9c0.3,0.8,0.6,1.5,1.1,2.1c0.5,0.6,1.1,1,1.7,1.3
				c0.7,0.3,1.4,0.4,2.3,0.4c0.7,0,1.4-0.1,1.9-0.2s1-0.3,1.4-0.5c0.4-0.2,0.7-0.4,0.9-0.5c0.2-0.2,0.4-0.2,0.5-0.2
				c0.1,0,0.2,0.1,0.3,0.1l0.4,0.5c-0.2,0.3-0.5,0.6-0.9,0.8c-0.4,0.3-0.8,0.5-1.3,0.7c-0.5,0.2-1,0.3-1.5,0.4
				c-0.5,0.1-1.1,0.2-1.7,0.2c-1,0-1.9-0.2-2.8-0.5c-0.8-0.3-1.5-0.9-2.1-1.5s-1.1-1.5-1.4-2.5c-0.3-1-0.5-2.1-0.5-3.3
				c0-1.1,0.1-2,0.4-2.9c0.3-0.9,0.7-1.7,1.3-2.3c0.6-0.7,1.3-1.2,2.1-1.5c0.8-0.4,1.8-0.5,2.8-0.5c0.8,0,1.6,0.1,2.3,0.4
				c0.7,0.3,1.3,0.7,1.9,1.3c0.5,0.5,0.9,1.2,1.2,2c0.3,0.8,0.4,1.7,0.4,2.8c0,0.2,0,0.4-0.1,0.4c-0.1,0.1-0.2,0.1-0.3,0.1H330.3z
				 M340.2,24.5c0-0.8-0.1-1.5-0.3-2.1c-0.2-0.6-0.5-1.2-0.9-1.6c-0.4-0.4-0.9-0.8-1.5-1c-0.6-0.2-1.2-0.3-1.8-0.3
				c-0.8,0-1.4,0.1-2.1,0.4c-0.6,0.2-1.1,0.6-1.6,1c-0.4,0.4-0.8,1-1.1,1.6c-0.3,0.6-0.4,1.3-0.5,2.1H340.2z"/>
			<path class="st3" d="M346.6,21.2c0.7-0.8,1.5-1.5,2.4-2c0.9-0.5,1.9-0.8,3-0.8c0.8,0,1.5,0.1,2.1,0.4c0.6,0.3,1.1,0.6,1.5,1.1
				c0.4,0.5,0.7,1.1,0.9,1.7s0.3,1.5,0.3,2.3v9.4h-1.4V24c0-1.4-0.3-2.5-0.9-3.3s-1.6-1.2-2.9-1.2c-1,0-1.9,0.2-2.7,0.7
				c-0.8,0.5-1.6,1.2-2.2,2v11.1h-1.4V18.6h0.8c0.2,0,0.4,0.1,0.4,0.4L346.6,21.2z"/>
		</g>
		<polygon class="st3" points="126.6,100 125.4,100 125.4,55.8 125.4,11.7 126.6,11.7 126.6,55.8 		"/>
	</g>
</g>
</svg>
