<svg xmlns="http://www.w3.org/2000/svg" width="242.395" height="23" viewBox="0 0 242.395 23">
  <g id="Grupo_228" data-name="Grupo 228" transform="translate(0)">
    <g id="Grupo_227" data-name="Grupo 227" transform="translate(87.627)">
      <path id="Trazado_829" data-name="Trazado 829" d="M170.747-47.662h-.024c-.092,0-.185.021-.3.021-.509,0-.9-.248-.9-1.243V-51.7c0-2.837.022-6.192.043-7.932v-.083c0-.89-.392-1.718-1.847-1.718-.207,0-.531.02-.763.02a.653.653,0,0,0-.715.623c0,.268.206.538.646.538h.045a3.177,3.177,0,0,1,.37-.021c.923,0,.923.353.925,1.761,0,1.2-.023,2.671-.023,3.728,0,.269-.023.373-.069.373s-.116-.1-.231-.249a4.878,4.878,0,0,0-3.65-1.491,4.9,4.9,0,0,0-5.241,4.91c0,3,2.241,4.95,5.244,4.949a5.016,5.016,0,0,0,3.856-1.74c.046-.042.069-.063.093-.063.069,0,.092.082.116.207.162,1.1,1.132,1.469,2.1,1.469.3,0,.923-.061.923-.641A.576.576,0,0,0,170.747-47.662Zm-6.444.229a3.641,3.641,0,0,1-3.927-3.81,3.635,3.635,0,0,1,3.926-3.833,3.722,3.722,0,0,1,3.9,3.831A3.73,3.73,0,0,1,164.3-47.433Z" transform="translate(-116.714 65.356)" fill="#fff"/>
      <path id="Trazado_830" data-name="Trazado 830" d="M182.267-46.167c-.924-.323-1.085-.877-1.085-2.564,0-.877.045-2.078.115-2.841a6.1,6.1,0,0,0,.024-.646c0-2.587-1.457-3.533-3.605-3.533-1.985,0-3.925.994-3.925,1.871a.626.626,0,0,0,.647.624.645.645,0,0,0,.485-.231,3.64,3.64,0,0,1,2.7-1.109c1.871,0,2.4.993,2.4,2.263,0,.116-.023.254-.023.369,0,.161-.092.231-.369.278a37.04,37.04,0,0,0-4.272.947,3.086,3.086,0,0,0-2.471,2.864,3.44,3.44,0,0,0,3.743,3.187,4.27,4.27,0,0,0,3.51-1.78.122.122,0,0,1,.092-.069c.046,0,.069.046.093.116a1.964,1.964,0,0,0,1.71,1.477.624.624,0,0,0,.623-.646A.586.586,0,0,0,182.267-46.167Zm-2.288-3.787c0,3.556-2.193,4.041-3.371,4.042a2.208,2.208,0,0,1-2.471-1.94c0-1.617,1.917-2.078,5.542-2.657h.07c.161,0,.23.069.23.255Z" transform="translate(-116.272 64.29)" fill="#fff"/>
      <path id="Trazado_831" data-name="Trazado 831" d="M189.819-45.909h-.093a6.339,6.339,0,0,1-.646.046c-1.8,0-1.848-1.224-1.848-3.024,0-1.71.068-4.088.068-4.966,0-.277,0-.323.369-.323H189.7a.6.6,0,0,0,.647-.624.594.594,0,0,0-.647-.6h-2.057c-.3,0-.346,0-.347-.254,0,0,.046-1.848.046-2.518a.655.655,0,0,0-.67-.716.654.654,0,0,0-.67.671v.577c0,.808-.024,1.917-.024,2.01,0,.207-.044.23-.253.23h-1.339a.6.6,0,0,0-.647.6.6.6,0,0,0,.647.623h1.362c.162,0,.231.023.231.254v.369c0,1.132-.044,3.949-.044,5.426,0,1.017,0,3.534,2.957,3.534.924,0,1.478-.118,1.478-.717A.573.573,0,0,0,189.819-45.909Z" transform="translate(-115.926 64.345)" fill="#fff"/>
      <path id="Trazado_832" data-name="Trazado 832" d="M201.693-46.172c-.923-.323-1.085-.877-1.085-2.563,0-.878.045-2.078.116-2.841a6.375,6.375,0,0,0,.023-.647c0-2.586-1.456-3.533-3.605-3.533-1.985,0-3.925.994-3.925,1.872a.626.626,0,0,0,.647.623.64.64,0,0,0,.485-.231,3.644,3.644,0,0,1,2.7-1.109c1.871,0,2.4.994,2.4,2.263,0,.116-.022.255-.022.37,0,.161-.093.231-.369.278a36.879,36.879,0,0,0-4.273.947,3.084,3.084,0,0,0-2.47,2.863,3.439,3.439,0,0,0,3.741,3.187,4.268,4.268,0,0,0,3.51-1.78.125.125,0,0,1,.093-.069c.045,0,.068.046.092.116a1.965,1.965,0,0,0,1.71,1.478.624.624,0,0,0,.623-.647A.587.587,0,0,0,201.693-46.172Zm-2.287-3.787c0,3.557-2.194,4.042-3.372,4.043a2.208,2.208,0,0,1-2.471-1.94c0-1.617,1.917-2.079,5.542-2.658h.07c.161,0,.231.07.231.255Z" transform="translate(-115.653 64.291)" fill="#fff"/>
      <path id="Trazado_833" data-name="Trazado 833" d="M209.131-50.516c-.716-.369-1.824-.831-2.471-1.131a1.777,1.777,0,0,1-1.132-1.523c0-.763.67-1.48,1.871-1.48.138,0,2.194,0,2.194,1.847a.593.593,0,0,0,.647.6.569.569,0,0,0,.578-.554V-52.8c-.024-.53-.024-.878-.024-1.2,0-.347,0-.67.024-1.155v-.023a.54.54,0,0,0-.579-.554.519.519,0,0,0-.53.369c-.023.069,0,.277-.116.277a.173.173,0,0,1-.139-.045,3.714,3.714,0,0,0-2.032-.623c-2.057,0-3.141,1.318-3.141,2.656a2.792,2.792,0,0,0,1.872,2.564c2.679,1.108,3.7,1.661,3.7,2.886,0,1.108-1.133,1.778-2.309,1.778-1.318,0-2.472-.761-2.472-1.523,0-.162.046-.277.046-.44a.593.593,0,0,0-.623-.623.606.606,0,0,0-.646.6v.046c.023.553.045.9.045,1.246s-.023.692-.045,1.2v.046a.556.556,0,0,0,.6.553c.277,0,.554-.069.554-.646,0-.069.023-.116.069-.116a.293.293,0,0,1,.162.093,3.627,3.627,0,0,0,2.31.76c2.632,0,3.648-1.71,3.648-2.979A3.308,3.308,0,0,0,209.131-50.516Z" transform="translate(-115.286 64.289)" fill="#fff"/>
      <path id="Trazado_834" data-name="Trazado 834" d="M223.514-47.678c-.138,0-.253.021-.346.021a.91.91,0,0,1-.67-.248c-4.181-3.431-4.782-3.928-4.782-4.072,0-.063.046-.125.185-.207,1.131-.662,2.91-1.738,4.272-2.564a1.185,1.185,0,0,1,.577-.187c.324,0,.139.02.462.02h.023a.582.582,0,0,0,.647-.538.547.547,0,0,0-.67-.538c-.6.02-1.155.021-1.662.021-.531,0-1.04,0-1.617-.02h-.046a.559.559,0,0,0-.623.538c0,.5.554.5.969.5.117,0,.163.02.163.062,0,.02-.024.062-.093.1-3.649,2.255-3.74,2.275-3.994,2.275-.231,0-.393-.1-.393-.331,0,0,.044-4.383.044-7.051,0-.454-.162-1.55-2.056-1.549-.808,0-1.223.062-1.223.6a.6.6,0,0,0,.646.578h.53c.578.021.763.248.763.827,0,1.117.024,2.5.025,3.95,0,2.522-.022,5.312-.067,7.484a.346.346,0,0,1-.392.351c-.37,0-.417-.02-.693-.02h-.023a.605.605,0,0,0-.67.579c0,.227.162.558.693.538s1.086-.042,1.662-.042c.6,0,1.2.019,1.8.041h.023a.591.591,0,0,0,.669-.559.591.591,0,0,0-.669-.558h-.024c-.323.02-.3.02-.647.02-.277,0-.392-.144-.392-.351-.024-.992-.024-1.654-.024-2.15,0-1.075.023-1.26.369-1.26a.878.878,0,0,1,.692.248c.716.661,2.611,2.232,3.835,3.306a.156.156,0,0,1,.045.083c0,.021,0,.145-.6.145-.161,0-.623,0-.622.539a.559.559,0,0,0,.623.537h.046c.531-.02,1.039-.041,1.547-.041s1.063.019,1.663.04h.023a.585.585,0,0,0,.647-.579A.55.55,0,0,0,223.514-47.678Z" transform="translate(-115.005 65.356)" fill="#fff"/>
      <path id="Trazado_835" data-name="Trazado 835" d="M234.56-47.659a.66.66,0,0,0-.462.207,4.132,4.132,0,0,1-3.348,1.525,3.772,3.772,0,0,1-3.881-4.063c0-.323.046-.415.278-.416.508,0,2.47.023,4.2.023.854,0,1.64,0,2.171-.024,1.178-.046,1.686-.693,1.686-1.548a4.3,4.3,0,0,0-4.551-3.787,5.281,5.281,0,0,0-5.149,5.59,5.161,5.161,0,0,0,5.221,5.449c2.91,0,4.527-1.757,4.527-2.288A.706.706,0,0,0,234.56-47.659Zm-3.882-6.928a2.9,2.9,0,0,1,3.165,2.4c0,.369-.207.624-.761.648-.647.023-1.94.023-3.141.023-2.679,0-2.887,0-2.887-.23A3.739,3.739,0,0,1,230.679-54.586Z" transform="translate(-114.596 64.292)" fill="#fff"/>
      <path id="Trazado_836" data-name="Trazado 836" d="M242.7-45.92h-.093c-.23.023-.439.045-.646.045-1.8,0-1.848-1.224-1.849-3.025,0-1.709.069-4.087.069-4.965,0-.277,0-.323.369-.323h2.032a.6.6,0,0,0,.648-.624.6.6,0,0,0-.648-.6h-2.054c-.3,0-.347,0-.348-.254,0,0,.046-1.847.046-2.518a.654.654,0,0,0-.671-.714.654.654,0,0,0-.67.669v.578c0,.808-.023,1.916-.023,2.009,0,.207-.045.23-.253.23h-1.339a.6.6,0,0,0-.647.6.6.6,0,0,0,.647.624h1.362c.162,0,.231.023.231.254v.369c0,1.132-.045,3.95-.045,5.427,0,1.016,0,3.534,2.957,3.533.925,0,1.479-.116,1.479-.716A.572.572,0,0,0,242.7-45.92Z" transform="translate(-114.242 64.346)" fill="#fff"/>
      <path id="Trazado_837" data-name="Trazado 837" d="M254.1-47.66a.727.727,0,0,0-.6.346,3.635,3.635,0,0,1-2.956,1.34,4.046,4.046,0,0,1-4.019-4.295,4.082,4.082,0,0,1,4.018-4.366,3.034,3.034,0,0,1,2.356.946c.277.323.207.6.23,1.085a.612.612,0,0,0,.648.554.6.6,0,0,0,.669-.578v-.046c-.023-.53-.023-.9-.023-1.246,0-.369,0-.715.023-1.2v-.046a.6.6,0,0,0-.671-.577c-.254,0-.529.115-.553.393-.023.115-.046.253-.116.253-.046,0-.069-.023-.115-.045a5.32,5.32,0,0,0-2.611-.692,5.351,5.351,0,0,0-5.2,5.66,5.25,5.25,0,0,0,5.43,5.449c2.494,0,4.225-1.548,4.225-2.218A.74.74,0,0,0,254.1-47.66Z" transform="translate(-113.97 64.295)" fill="#fff"/>
      <path id="Trazado_838" data-name="Trazado 838" d="M267.726-47.686H267.7c-.324,0-.3.02-.647.02-.278,0-.392-.145-.392-.372,0-1.633-.025-4.011-.047-4.88-.093-2.253-1.941-3.308-3.858-3.307a4.548,4.548,0,0,0-3.417,1.407c-.046.042-.069.062-.092.062s-.046-.042-.046-.1c0-.289.022-2.151.022-3.825,0-.414,0-.807,0-1.179a1.509,1.509,0,0,0-1.569-1.572c-.186-.019-.393-.041-.578-.041-.993,0-1.177.269-1.177.621a.6.6,0,0,0,.646.578h.024c.3-.02.3-.02.508-.02.6.02.785.31.785.847,0,1.241.024,2.916.025,4.674,0,2.481-.022,5.086-.044,6.762a.329.329,0,0,1-.37.352c-.369,0-.439-.021-.739-.021h-.023a.6.6,0,0,0-.669.58c0,.226.161.557.692.537s1.108-.042,1.686-.042,1.2.021,1.8.042h.023a.6.6,0,0,0,.67-.558.6.6,0,0,0-.693-.559,6.332,6.332,0,0,1-.646.021c-.279,0-.393-.145-.393-.352,0-.971-.023-1.881-.024-2.646,0-.745.024-1.365.024-1.758.068-1.633,1.823-2.709,3.439-2.709a2.472,2.472,0,0,1,2.657,2.438c.023.394.046,1.365.046,2.441,0,.765-.023,1.55-.023,2.233a.338.338,0,0,1-.369.351c-.369,0-.393-.019-.693-.019h-.023a.6.6,0,0,0-.669.578c0,.227.161.558.692.539s1.085-.042,1.663-.042c.6,0,1.2.02,1.8.042h.023a.593.593,0,0,0,.67-.559A.592.592,0,0,0,267.726-47.686Z" transform="translate(-113.629 65.354)" fill="#fff"/>
      <path id="Trazado_839" data-name="Trazado 839" d="M143.753-52.241V-63.088a2.235,2.235,0,0,0-2.309-2.147H120.328a2.234,2.234,0,0,0-2.309,2.147v14.279a2.234,2.234,0,0,0,2.309,2.147H130.3l-3.762,3.519a.508.508,0,0,0,0,.754.6.6,0,0,0,.4.154.6.6,0,0,0,.407-.157l3.535-3.307,3.534,3.307a.6.6,0,0,0,.407.157.6.6,0,0,0,.4-.154.508.508,0,0,0,0-.754l-3.76-3.518h9.971a2.235,2.235,0,0,0,2.309-2.147v-2.146l6.661,4.2a.6.6,0,0,0,.321.092.588.588,0,0,0,.475-.233.511.511,0,0,0-.153-.74Zm-1.146-.723-3.917-2.471a.6.6,0,0,0-.8.142.509.509,0,0,0,.153.74l4.561,2.877v2.868a1.126,1.126,0,0,1-1.163,1.082H120.328a1.126,1.126,0,0,1-1.164-1.082V-63.088a1.127,1.127,0,0,1,1.164-1.082h21.116a1.127,1.127,0,0,1,1.163,1.082Z" transform="translate(-118.019 65.235)" fill="#fff"/>
    </g>
    <g id="Grupo_226" data-name="Grupo 226" transform="translate(0 8.58)">
      <path id="Trazado_840" data-name="Trazado 840" d="M205.762-75.5a3.391,3.391,0,0,0,.313-1.52,2.816,2.816,0,0,0-1.171-2.5,5.95,5.95,0,0,0-3.365-.8q-.654,0-1.432.051a9.006,9.006,0,0,0-1.418.2v9.931h1.832v-3.548h.916a9.145,9.145,0,0,0,1.963-.189,4.217,4.217,0,0,0,1.454-.588A2.622,2.622,0,0,0,205.762-75.5Zm-2.319-.131a4.5,4.5,0,0,1-2.036.37h-.887V-78.69c.3-.029.683-.044,1.149-.044a5.663,5.663,0,0,1,.981.081,2.5,2.5,0,0,1,.793.268,1.368,1.368,0,0,1,.523.523,1.664,1.664,0,0,1,.189.829A1.436,1.436,0,0,1,203.444-75.628Z" transform="translate(-198.689 81.423)" fill="#fff"/>
      <path id="Trazado_841" data-name="Trazado 841" d="M212.38-77.1a3.291,3.291,0,0,0-1.155-.808,3.787,3.787,0,0,0-1.476-.283,3.721,3.721,0,0,0-1.469.283,3.364,3.364,0,0,0-1.155.808,3.69,3.69,0,0,0-.757,1.258A4.736,4.736,0,0,0,206.1-74.2a4.8,4.8,0,0,0,.268,1.643,3.757,3.757,0,0,0,.749,1.266,3.354,3.354,0,0,0,1.149.813,3.686,3.686,0,0,0,1.483.291,3.735,3.735,0,0,0,1.49-.291,3.333,3.333,0,0,0,1.156-.813,3.652,3.652,0,0,0,.742-1.266A4.906,4.906,0,0,0,213.4-74.2a4.709,4.709,0,0,0-.27-1.635A3.742,3.742,0,0,0,212.38-77.1Zm-1.273,4.711a1.584,1.584,0,0,1-1.359.669,1.587,1.587,0,0,1-1.36-.669A3.029,3.029,0,0,1,207.9-74.2a2.967,2.967,0,0,1,.487-1.8,1.592,1.592,0,0,1,1.36-.662,1.589,1.589,0,0,1,1.359.662,2.96,2.96,0,0,1,.488,1.8A3.021,3.021,0,0,1,211.107-72.385Z" transform="translate(-197.811 81.676)" fill="#fff"/>
      <path id="Trazado_842" data-name="Trazado 842" d="M214.567-73.771q.32.975.641,1.832t.612,1.527h1.445q.376-1.075.762-2.291t.719-2.493q.334,1.28.734,2.493t.777,2.291h1.429q.305-.668.626-1.527t.641-1.832q.32-.973.641-2.05t.626-2.2H222.4q-.132.611-.306,1.316t-.374,1.439q-.2.735-.4,1.433c-.136.465-.268.89-.395,1.278q-.218-.668-.427-1.381t-.391-1.425q-.183-.713-.341-1.388t-.291-1.273h-1.352q-.131.6-.3,1.273t-.357,1.388q-.19.713-.4,1.425t-.431,1.381c-.135-.388-.272-.813-.409-1.278s-.267-.943-.395-1.433-.247-.97-.365-1.439-.219-.909-.306-1.316H213.3q.305,1.119.626,2.2T214.567-73.771Z" transform="translate(-196.958 81.695)" fill="#fff"/>
      <path id="Trazado_843" data-name="Trazado 843" d="M227.781-70.2a6.728,6.728,0,0,0,.771-.044c.252-.029.487-.065.706-.11a5.873,5.873,0,0,0,.58-.144,2.773,2.773,0,0,0,.4-.153l-.233-1.439a4.777,4.777,0,0,1-.837.247,5.423,5.423,0,0,1-1.17.116,2.461,2.461,0,0,1-1.665-.5,2.007,2.007,0,0,1-.646-1.418H230.7c.009-.1.017-.2.022-.327s.007-.23.007-.328a4.208,4.208,0,0,0-.88-2.907,3.126,3.126,0,0,0-2.449-.975,3.5,3.5,0,0,0-1.309.255,3.276,3.276,0,0,0-1.134.756,3.7,3.7,0,0,0-.793,1.257,4.772,4.772,0,0,0-.3,1.759,5.1,5.1,0,0,0,.233,1.578,3.392,3.392,0,0,0,.712,1.25,3.257,3.257,0,0,0,1.221.829A4.678,4.678,0,0,0,227.781-70.2ZM225.862-75.6a1.815,1.815,0,0,1,.327-.567,1.618,1.618,0,0,1,.517-.4,1.573,1.573,0,0,1,.712-.153,1.514,1.514,0,0,1,.676.139,1.4,1.4,0,0,1,.48.378,1.652,1.652,0,0,1,.3.567,2.336,2.336,0,0,1,.1.69H225.7A3.1,3.1,0,0,1,225.862-75.6Z" transform="translate(-195.706 81.676)" fill="#fff"/>
      <path id="Trazado_844" data-name="Trazado 844" d="M235.509-78.079c-.156-.025-.311-.044-.465-.059s-.291-.021-.407-.021a7.89,7.89,0,0,0-1.693.168,9.675,9.675,0,0,0-1.273.356V-70.4h1.759v-6.092a4.007,4.007,0,0,1,.457-.1,3.612,3.612,0,0,1,.619-.058,4.408,4.408,0,0,1,.894.081,5.808,5.808,0,0,1,.6.152l.305-1.483c-.087-.029-.2-.059-.349-.094S235.663-78.055,235.509-78.079Z" transform="translate(-194.782 81.679)" fill="#fff"/>
      <path id="Trazado_845" data-name="Trazado 845" d="M237.477-71.33a3.257,3.257,0,0,0,1.221.829,4.678,4.678,0,0,0,1.745.3,6.727,6.727,0,0,0,.771-.044c.252-.029.487-.065.706-.11a5.872,5.872,0,0,0,.58-.144,2.77,2.77,0,0,0,.4-.153l-.233-1.439a4.82,4.82,0,0,1-.835.247,5.44,5.44,0,0,1-1.171.116,2.461,2.461,0,0,1-1.665-.5,2.006,2.006,0,0,1-.647-1.418h5.016c.009-.1.017-.2.021-.327s.008-.23.008-.328a4.208,4.208,0,0,0-.88-2.907,3.126,3.126,0,0,0-2.449-.975,3.5,3.5,0,0,0-1.309.255,3.265,3.265,0,0,0-1.134.756,3.7,3.7,0,0,0-.793,1.257,4.8,4.8,0,0,0-.3,1.759,5.1,5.1,0,0,0,.233,1.578A3.392,3.392,0,0,0,237.477-71.33Zm1.047-4.268a1.816,1.816,0,0,1,.327-.567,1.618,1.618,0,0,1,.517-.4,1.573,1.573,0,0,1,.712-.153,1.526,1.526,0,0,1,.677.139,1.4,1.4,0,0,1,.479.378,1.652,1.652,0,0,1,.3.567,2.335,2.335,0,0,1,.1.69h-3.272A3.04,3.04,0,0,1,238.524-75.6Z" transform="translate(-194.206 81.676)" fill="#fff"/>
      <path id="Trazado_846" data-name="Trazado 846" d="M247.823-69.834a10.2,10.2,0,0,0,1.664-.131,10.277,10.277,0,0,0,1.316-.291v-11.05l-1.759.291v3.649a4.4,4.4,0,0,0-.727-.291,3.291,3.291,0,0,0-.974-.131,3.447,3.447,0,0,0-1.439.284,2.944,2.944,0,0,0-1.061.806,3.6,3.6,0,0,0-.662,1.257,5.58,5.58,0,0,0-.225,1.636,4.787,4.787,0,0,0,.268,1.651,3.494,3.494,0,0,0,.771,1.25,3.356,3.356,0,0,0,1.215.792A4.428,4.428,0,0,0,247.823-69.834ZM246.2-75.621a1.576,1.576,0,0,1,1.4-.654,2.419,2.419,0,0,1,.821.138,2.778,2.778,0,0,1,.618.3v4.362c-.126.029-.289.056-.488.081a6.23,6.23,0,0,1-.719.036,1.881,1.881,0,0,1-1.527-.661,2.758,2.758,0,0,1-.553-1.825A3.124,3.124,0,0,1,246.2-75.621Z" transform="translate(-193.327 81.306)" fill="#fff"/>
      <path id="Trazado_847" data-name="Trazado 847" d="M258.089-69.834a4.434,4.434,0,0,0,1.615-.276,3.312,3.312,0,0,0,1.214-.8,3.552,3.552,0,0,0,.771-1.257,4.781,4.781,0,0,0,.268-1.651,5.524,5.524,0,0,0-.225-1.622,3.725,3.725,0,0,0-.646-1.257,2.81,2.81,0,0,0-1.055-.806,3.466,3.466,0,0,0-1.432-.284,3.461,3.461,0,0,0-.982.131,4.133,4.133,0,0,0-.748.291v-3.94l-1.76.291v10.759a10.321,10.321,0,0,0,1.316.291A10.2,10.2,0,0,0,258.089-69.834Zm-1.22-6.019a2.492,2.492,0,0,1,.617-.29,2.508,2.508,0,0,1,.822-.132,1.574,1.574,0,0,1,1.4.654,3.123,3.123,0,0,1,.444,1.774,2.758,2.758,0,0,1-.554,1.825,1.881,1.881,0,0,1-1.526.661,6.236,6.236,0,0,1-.72-.036,4.857,4.857,0,0,1-.487-.081Z" transform="translate(-192.006 81.306)" fill="#fff"/>
      <path id="Trazado_848" data-name="Trazado 848" d="M263.057-69.177a2.873,2.873,0,0,1-1.038-.2l-.319,1.41a2.673,2.673,0,0,0,.6.189,3.783,3.783,0,0,0,.808.087,3.816,3.816,0,0,0,1.077-.138,2.449,2.449,0,0,0,.844-.444,3.367,3.367,0,0,0,.684-.771,7.89,7.89,0,0,0,.6-1.12,55.471,55.471,0,0,0,2.729-7.851h-1.817q-.334,1.367-.739,2.829t-.868,2.756q-.277-.626-.555-1.353t-.526-1.461q-.247-.735-.46-1.447t-.357-1.323h-1.876A38.407,38.407,0,0,0,263.21-74q.767,1.891,1.6,3.49a2.679,2.679,0,0,1-.679,1.011A1.614,1.614,0,0,1,263.057-69.177Z" transform="translate(-191.225 81.695)" fill="#fff"/>
    </g>
  </g>
</svg>
