<svg xmlns="http://www.w3.org/2000/svg" xmlns:xlink="http://www.w3.org/1999/xlink" width="438" height="82.353" viewBox="0 0 438 82.353">
  <defs>
    <clipPath id="clip-path">
      <rect id="Rectángulo_2288" data-name="Rectángulo 2288" width="438" height="82.353" fill="#fff"/>
    </clipPath>
  </defs>
  <g id="Grupo_1309" data-name="Grupo 1309" transform="translate(0 0)">
    <g id="Grupo_1308" data-name="Grupo 1308" transform="translate(0 0)" clip-path="url(#clip-path)">
      <path id="Trazado_2356" data-name="Trazado 2356" d="M143.571,27.913a5.722,5.722,0,0,0,1.361-3.969,5.4,5.4,0,0,0-.929-3.19,7.634,7.634,0,0,0-2.95-2.3,7.382,7.382,0,0,1-2.614-1.92,4.388,4.388,0,0,1-.666-2.6,3.752,3.752,0,0,1,.92-2.649,3.092,3.092,0,0,1,2.387-1,6.66,6.66,0,0,1,3.076.776l.517-1.279a7.045,7.045,0,0,0-1.488-.559,8.014,8.014,0,0,0-2.1-.258,4.6,4.6,0,0,0-2.355.631,4.406,4.406,0,0,0-1.674,1.779,5.546,5.546,0,0,0-.6,2.612,6.5,6.5,0,0,0,.368,2.314A4.545,4.545,0,0,0,137.95,18a9.707,9.707,0,0,0,2.3,1.5,7.16,7.16,0,0,1,2.654,1.932,4.395,4.395,0,0,1,.695,2.614,4.389,4.389,0,0,1-.981,2.94,3.134,3.134,0,0,1-2.5,1.157,9.608,9.608,0,0,1-2.068-.23,6.507,6.507,0,0,1-1.756-.627v1.443a8.888,8.888,0,0,0,3.825.695,4.437,4.437,0,0,0,3.457-1.516" transform="translate(35.29 2.323)" fill="#fff"/>
      <rect id="Rectángulo_2279" data-name="Rectángulo 2279" width="1.293" height="14.767" transform="translate(183.393 16.711)" fill="#fff"/>
      <path id="Trazado_2357" data-name="Trazado 2357" d="M146.42,11.565a.67.67,0,0,0,.585-.345,1.76,1.76,0,0,0,.218-.934,1.765,1.765,0,0,0-.218-.953.665.665,0,0,0-.585-.34.774.774,0,0,0-.648.34,1.569,1.569,0,0,0-.251.953,1.564,1.564,0,0,0,.251.934.779.779,0,0,0,.648.345" transform="translate(37.681 2.328)" fill="#fff"/>
      <path id="Trazado_2358" data-name="Trazado 2358" d="M154.853,27.32a4.126,4.126,0,0,0,.981-2.922,4.476,4.476,0,0,0-.268-1.615,3.875,3.875,0,0,0-.808-1.279,12.354,12.354,0,0,0-2.014-1.541,7.122,7.122,0,0,1-1.96-1.6,2.8,2.8,0,0,1-.462-1.644,2.4,2.4,0,0,1,.68-1.776,2.5,2.5,0,0,1,1.824-.672,4.182,4.182,0,0,1,2.368.748l.667-1.129a5.056,5.056,0,0,0-2.981-.843,3.755,3.755,0,0,0-2.736,1.042,3.5,3.5,0,0,0-1.075,2.631,4.147,4.147,0,0,0,.308,1.688,4.253,4.253,0,0,0,.854,1.28,12.263,12.263,0,0,0,2.065,1.525,6.574,6.574,0,0,1,1.791,1.532,2.842,2.842,0,0,1,.467,1.652,2.935,2.935,0,0,1-.653,2,2.261,2.261,0,0,1-1.8.749,4.771,4.771,0,0,1-1.7-.31,3.571,3.571,0,0,1-1.334-.807v1.512a4.366,4.366,0,0,0,1.185.57,5.464,5.464,0,0,0,1.769.259,3.669,3.669,0,0,0,2.831-1.054" transform="translate(38.599 3.378)" fill="#fff"/>
      <path id="Trazado_2359" data-name="Trazado 2359" d="M160.865,27.675a3.163,3.163,0,0,1-1.061.165,1.223,1.223,0,0,1-1.143-.545,4.375,4.375,0,0,1-.327-2.042V15.141h2.342V14h-2.342V10.485h-.9L157.013,14l-1.306.38v.764h1.333V25.62q0,3.418,2.286,3.417a3.738,3.738,0,0,0,1.538-.272Z" transform="translate(40.318 2.715)" fill="#fff"/>
      <path id="Trazado_2360" data-name="Trazado 2360" d="M165.489,13.047a3.527,3.527,0,0,0-3.23,2,11.914,11.914,0,0,0-1.124,5.775,10.322,10.322,0,0,0,1.261,5.558,4,4,0,0,0,3.6,2,5.544,5.544,0,0,0,2.981-.885V26.236a5.762,5.762,0,0,1-2.926.913,2.876,2.876,0,0,1-2.682-1.606,10.489,10.489,0,0,1-.911-4.832h7v-1.2a9.036,9.036,0,0,0-1.063-4.713,3.255,3.255,0,0,0-2.9-1.751m-3.008,6.492q.259-5.322,2.926-5.322a2.236,2.236,0,0,1,2.005,1.443,8.535,8.535,0,0,1,.745,3.879Z" transform="translate(41.723 3.378)" fill="#fff"/>
      <path id="Trazado_2361" data-name="Trazado 2361" d="M184.174,28.1v-9.65a8.273,8.273,0,0,0-.775-4.115,2.646,2.646,0,0,0-2.451-1.289,3.207,3.207,0,0,0-2.014.6,4.462,4.462,0,0,0-1.306,1.96,3.764,3.764,0,0,0-1.021-1.906,2.74,2.74,0,0,0-1.932-.653,3.1,3.1,0,0,0-3.009,2.342h-.122l-.11-2.055h-1.089V28.1h1.293V19.988a10.318,10.318,0,0,1,.667-4.328,2.234,2.234,0,0,1,2.138-1.333,1.777,1.777,0,0,1,1.647.917,5.772,5.772,0,0,1,.531,2.8V28.1H177.9V19.458a8.689,8.689,0,0,1,.662-3.835,2.244,2.244,0,0,1,2.155-1.3q2.177,0,2.178,3.715V28.1Z" transform="translate(44.108 3.378)" fill="#fff"/>
      <path id="Trazado_2362" data-name="Trazado 2362" d="M191.4,18.041a6.922,6.922,0,0,0-.8-3.842,2.976,2.976,0,0,0-2.626-1.153,6.044,6.044,0,0,0-3.227.953l.559,1.021a4.844,4.844,0,0,1,2.586-.83,1.807,1.807,0,0,1,1.715.943,6.619,6.619,0,0,1,.517,3.018v1.225l-1.593.082a5.274,5.274,0,0,0-3.553,1.338,4.461,4.461,0,0,0-1.265,3.344,4.91,4.91,0,0,0,.88,3.081,2.76,2.76,0,0,0,2.318,1.152,3.426,3.426,0,0,0,3.213-2.34h.054l.164,2.068H191.4Zm-1.279,3.988a8.084,8.084,0,0,1-.767,3.875,2.391,2.391,0,0,1-2.159,1.365,1.849,1.849,0,0,1-1.552-.748,3.893,3.893,0,0,1-.572-2.355,3.611,3.611,0,0,1,.862-2.609,3.866,3.866,0,0,1,2.649-.984l1.538-.082Z" transform="translate(47.569 3.378)" fill="#fff"/>
      <path id="Trazado_2363" data-name="Trazado 2363" d="M204.25,27.291l.11,2.07h1.061V8.182h-1.293V14.81l.054,1.647h-.108a4.144,4.144,0,0,0-1.42-1.579,3.495,3.495,0,0,0-5.06,1.4A12.18,12.18,0,0,0,196.519,22q0,7.637,4.3,7.637a3.231,3.231,0,0,0,1.932-.608,4.316,4.316,0,0,0,1.375-1.734Zm-.962-.227A2.613,2.613,0,0,1,200.9,28.5a2.409,2.409,0,0,1-2.313-1.647,12.542,12.542,0,0,1-.721-4.832,13.044,13.044,0,0,1,.694-4.823,2.367,2.367,0,0,1,2.286-1.669,2.626,2.626,0,0,1,2.469,1.561,11.152,11.152,0,0,1,.812,4.9v.845a8.469,8.469,0,0,1-.84,4.224" transform="translate(50.886 2.118)" fill="#fff"/>
      <path id="Trazado_2364" data-name="Trazado 2364" d="M211.056,28.373a5.534,5.534,0,0,0,2.981-.885V26.237a5.78,5.78,0,0,1-2.927.911,2.877,2.877,0,0,1-2.682-1.606,10.5,10.5,0,0,1-.911-4.832h7v-1.2a9.041,9.041,0,0,0-1.061-4.715,3.256,3.256,0,0,0-2.9-1.751,3.526,3.526,0,0,0-3.23,2A11.918,11.918,0,0,0,206.2,20.82a10.331,10.331,0,0,0,1.261,5.557,4,4,0,0,0,3.6,2m-.585-14.155a2.239,2.239,0,0,1,2.006,1.443,8.537,8.537,0,0,1,.744,3.879h-5.675q.257-5.322,2.926-5.322" transform="translate(53.391 3.378)" fill="#fff"/>
      <rect id="Rectángulo_2280" data-name="Rectángulo 2280" width="1.334" height="19.899" transform="translate(276.628 11.58)" fill="#fff"/>
      <path id="Trazado_2365" data-name="Trazado 2365" d="M225.382,19.989a9.3,9.3,0,0,1,.772-4.37,2.578,2.578,0,0,1,2.427-1.373q2.177,0,2.178,3.675V28.1h1.279V17.893a6.254,6.254,0,0,0-.857-3.694,3.006,3.006,0,0,0-2.573-1.152,3.176,3.176,0,0,0-1.864.613,3.862,3.862,0,0,0-1.335,1.729h-.122l-.108-2.056h-1.089V28.1h1.293Z" transform="translate(58.025 3.378)" fill="#fff"/>
      <path id="Trazado_2366" data-name="Trazado 2366" d="M234.689,9.3a9.079,9.079,0,0,0-.667,4.056v1.115l-1.878.559v.734h1.878V29.392H235.3V15.766h2.314V14.623H235.3V13.385a14.3,14.3,0,0,1,.164-2.45,2.747,2.747,0,0,1,.5-1.279,1.257,1.257,0,0,1,1.007-.394,3.11,3.11,0,0,1,1.307.34l.449-1.2A4.266,4.266,0,0,0,237,8.063,2.4,2.4,0,0,0,234.689,9.3" transform="translate(60.11 2.088)" fill="#fff"/>
      <path id="Trazado_2367" data-name="Trazado 2367" d="M242.305,28.373a3.716,3.716,0,0,0,3.366-1.978,11.312,11.312,0,0,0,1.181-5.713,11.124,11.124,0,0,0-1.185-5.634,3.671,3.671,0,0,0-3.307-2q-4.519,0-4.52,7.635a11.488,11.488,0,0,0,1.153,5.713,3.629,3.629,0,0,0,3.311,1.978m-2.377-12.495a2.5,2.5,0,0,1,2.4-1.606q3.171,0,3.171,6.411,0,6.466-3.171,6.466a2.5,2.5,0,0,1-2.382-1.633,11.9,11.9,0,0,1-.762-4.833,11.967,11.967,0,0,1,.739-4.8" transform="translate(61.585 3.378)" fill="#fff"/>
      <path id="Trazado_2368" data-name="Trazado 2368" d="M248.876,20.275a11.724,11.724,0,0,1,.368-3.035,5.52,5.52,0,0,1,1.011-2.141,1.845,1.845,0,0,1,1.4-.772,2.582,2.582,0,0,1,1.007.205l.312-1.294a4.274,4.274,0,0,0-1.293-.19q-1.769,0-2.8,2.872h-.1l-.136-2.586h-1.061V28.1h1.293Z" transform="translate(64.108 3.378)" fill="#fff"/>
      <path id="Trazado_2369" data-name="Trazado 2369" d="M266.175,18.042V28.1h1.279V18.45a8.256,8.256,0,0,0-.775-4.114,2.644,2.644,0,0,0-2.45-1.289,3.205,3.205,0,0,0-2.014.6,4.454,4.454,0,0,0-1.307,1.96,3.764,3.764,0,0,0-1.021-1.906,2.738,2.738,0,0,0-1.932-.653,3.1,3.1,0,0,0-3.008,2.342h-.123l-.108-2.056h-1.089V28.1h1.293V19.989a10.31,10.31,0,0,1,.667-4.328,2.233,2.233,0,0,1,2.136-1.334,1.779,1.779,0,0,1,1.647.917,5.777,5.777,0,0,1,.531,2.8V28.1h1.279V19.457a8.665,8.665,0,0,1,.663-3.833,2.241,2.241,0,0,1,2.154-1.3q2.179,0,2.178,3.716" transform="translate(65.673 3.378)" fill="#fff"/>
      <path id="Trazado_2370" data-name="Trazado 2370" d="M273.4,26.032h.055l.164,2.068h1.061V18.042a6.937,6.937,0,0,0-.8-3.844,2.978,2.978,0,0,0-2.627-1.152,6.029,6.029,0,0,0-3.225.953l.558,1.021a4.847,4.847,0,0,1,2.587-.831,1.805,1.805,0,0,1,1.715.944,6.613,6.613,0,0,1,.516,3.016v1.225l-1.591.082a5.286,5.286,0,0,0-3.553,1.338,4.457,4.457,0,0,0-1.266,3.344,4.913,4.913,0,0,0,.88,3.081,2.76,2.76,0,0,0,2.319,1.153,3.424,3.424,0,0,0,3.212-2.342m-2.926,1.239a1.845,1.845,0,0,1-1.551-.749,3.887,3.887,0,0,1-.573-2.354,3.614,3.614,0,0,1,.862-2.609,3.86,3.86,0,0,1,2.65-.984l1.537-.082v1.538a8.079,8.079,0,0,1-.765,3.874,2.392,2.392,0,0,1-2.16,1.366" transform="translate(69.133 3.378)" fill="#fff"/>
      <path id="Trazado_2371" data-name="Trazado 2371" d="M280.26,14.272a4.034,4.034,0,0,1,1.674.422l.5-1.143a4.679,4.679,0,0,0-2.286-.5,3.656,3.656,0,0,0-3.358,1.978,11.8,11.8,0,0,0-1.134,5.767,11.37,11.37,0,0,0,1.125,5.658,3.622,3.622,0,0,0,3.339,1.924,5.659,5.659,0,0,0,1.129-.136,4,4,0,0,0,1.1-.381V26.767a5.846,5.846,0,0,1-2.1.436q-3.252,0-3.253-6.438,0-6.492,3.253-6.492" transform="translate(71.378 3.378)" fill="#fff"/>
      <path id="Trazado_2372" data-name="Trazado 2372" d="M283.8,11.565a.67.67,0,0,0,.585-.345,1.759,1.759,0,0,0,.218-.934,1.765,1.765,0,0,0-.218-.953.665.665,0,0,0-.585-.34.774.774,0,0,0-.648.34,1.569,1.569,0,0,0-.249.953,1.564,1.564,0,0,0,.249.934.779.779,0,0,0,.648.345" transform="translate(73.254 2.328)" fill="#fff"/>
      <rect id="Rectángulo_2281" data-name="Rectángulo 2281" width="1.293" height="14.767" transform="translate(356.348 16.711)" fill="#fff"/>
      <path id="Trazado_2373" data-name="Trazado 2373" d="M292.027,10.464a13.621,13.621,0,0,0,1.61-2.192v-.23h-1.7a22.058,22.058,0,0,1-2.6,4.178v.286h.64a18.879,18.879,0,0,0,2.051-2.042" transform="translate(74.92 2.082)" fill="#fff"/>
      <path id="Trazado_2374" data-name="Trazado 2374" d="M294.493,15.049a3.671,3.671,0,0,0-3.307-2q-4.519,0-4.52,7.637a11.486,11.486,0,0,0,1.153,5.712,3.631,3.631,0,0,0,3.312,1.978A3.715,3.715,0,0,0,294.5,26.4a11.311,11.311,0,0,0,1.18-5.712,11.126,11.126,0,0,0-1.183-5.635m-3.335,12.1a2.5,2.5,0,0,1-2.382-1.633,11.869,11.869,0,0,1-.763-4.832,11.967,11.967,0,0,1,.74-4.805,2.5,2.5,0,0,1,2.4-1.606q3.171,0,3.171,6.412,0,6.464-3.171,6.465" transform="translate(74.228 3.378)" fill="#fff"/>
      <path id="Trazado_2375" data-name="Trazado 2375" d="M297.7,19.989a9.3,9.3,0,0,1,.772-4.37,2.578,2.578,0,0,1,2.427-1.373q2.177,0,2.178,3.675V28.1h1.279V17.893A6.254,6.254,0,0,0,303.5,14.2a3.006,3.006,0,0,0-2.573-1.152,3.176,3.176,0,0,0-1.864.613,3.85,3.85,0,0,0-1.333,1.729H297.6l-.108-2.056h-1.089V28.1H297.7Z" transform="translate(76.75 3.378)" fill="#fff"/>
      <path id="Trazado_2376" data-name="Trazado 2376" d="M312.965,14.272a4.174,4.174,0,0,1,2.368.749L316,13.89a5.045,5.045,0,0,0-2.981-.843,3.754,3.754,0,0,0-2.736,1.044,3.5,3.5,0,0,0-1.075,2.631,4.152,4.152,0,0,0,.308,1.688,4.279,4.279,0,0,0,.854,1.279,12.22,12.22,0,0,0,2.063,1.525,6.587,6.587,0,0,1,1.793,1.533,2.837,2.837,0,0,1,.467,1.652,2.933,2.933,0,0,1-.653,2,2.263,2.263,0,0,1-1.8.749,4.809,4.809,0,0,1-1.7-.308,3.578,3.578,0,0,1-1.333-.808v1.511a4.364,4.364,0,0,0,1.185.572,5.5,5.5,0,0,0,1.769.259,3.677,3.677,0,0,0,2.831-1.052,4.132,4.132,0,0,0,.979-2.922,4.472,4.472,0,0,0-.267-1.615A3.844,3.844,0,0,0,314.9,21.5a12.4,12.4,0,0,0-2.014-1.543,7.1,7.1,0,0,1-1.96-1.6,2.8,2.8,0,0,1-.462-1.643,2.4,2.4,0,0,1,.68-1.779,2.5,2.5,0,0,1,1.824-.671" transform="translate(80.065 3.378)" fill="#fff"/>
      <path id="Trazado_2377" data-name="Trazado 2377" d="M324.23,26.4a11.326,11.326,0,0,0,1.178-5.712,11.128,11.128,0,0,0-1.183-5.635,3.671,3.671,0,0,0-3.307-2q-4.519,0-4.52,7.637a11.486,11.486,0,0,0,1.153,5.712,3.629,3.629,0,0,0,3.311,1.978A3.719,3.719,0,0,0,324.23,26.4m-3.34.753a2.5,2.5,0,0,1-2.382-1.633,11.875,11.875,0,0,1-.762-4.832,11.969,11.969,0,0,1,.739-4.805,2.5,2.5,0,0,1,2.4-1.606q3.171,0,3.171,6.412,0,6.464-3.171,6.465" transform="translate(81.927 3.378)" fill="#fff"/>
      <path id="Trazado_2378" data-name="Trazado 2378" d="M330.711,14.334a3.568,3.568,0,0,0-3.225,2.2h-.11l.055-1.783V8.182h-1.293V29.361H327.2l.176-2.042h.11a4.386,4.386,0,0,0,1.443,1.729,3.447,3.447,0,0,0,5.036-1.384,12.153,12.153,0,0,0,1.075-5.722q0-7.608-4.328-7.608m2.237,12.535a2.385,2.385,0,0,1-2.237,1.593q-3.28,0-3.28-6.179v-.341a11.58,11.58,0,0,1,.762-4.914,2.572,2.572,0,0,1,2.464-1.5,2.409,2.409,0,0,1,2.314,1.606,12.261,12.261,0,0,1,.721,4.8,12.3,12.3,0,0,1-.744,4.927" transform="translate(84.449 2.118)" fill="#fff"/>
      <path id="Trazado_2379" data-name="Trazado 2379" d="M337.087,15.919h-.1l-.136-2.586h-1.061V28.1h1.293V20.275a11.714,11.714,0,0,1,.368-3.035,5.5,5.5,0,0,1,1.011-2.141,1.841,1.841,0,0,1,1.4-.772,2.6,2.6,0,0,1,1.007.2l.312-1.293a4.235,4.235,0,0,0-1.293-.19q-1.769,0-2.8,2.872" transform="translate(86.949 3.378)" fill="#fff"/>
      <path id="Trazado_2380" data-name="Trazado 2380" d="M349.623,19.512a9.037,9.037,0,0,0-1.061-4.713,3.256,3.256,0,0,0-2.9-1.751,3.526,3.526,0,0,0-3.23,2,11.914,11.914,0,0,0-1.124,5.775,10.335,10.335,0,0,0,1.26,5.558,4.005,4.005,0,0,0,3.6,2,5.544,5.544,0,0,0,2.981-.885V26.236a5.762,5.762,0,0,1-2.926.913,2.876,2.876,0,0,1-2.682-1.606,10.5,10.5,0,0,1-.913-4.832h7Zm-6.968.028q.259-5.322,2.926-5.322a2.238,2.238,0,0,1,2.006,1.443,8.537,8.537,0,0,1,.744,3.879Z" transform="translate(88.377 3.378)" fill="#fff"/>
      <path id="Trazado_2381" data-name="Trazado 2381" d="M142.73,39.757v-.108q2.953-.585,2.953-4.628a4.675,4.675,0,0,0-1.256-3.539,5.039,5.039,0,0,0-3.6-1.2h-3.811v19.9h4.574a3.993,3.993,0,0,0,3.321-1.5,6.558,6.558,0,0,0,1.183-4.166,5.53,5.53,0,0,0-.83-3.248,3.964,3.964,0,0,0-2.532-1.516m-4.382-8.247h2.476a3.473,3.473,0,0,1,2.6.9,3.535,3.535,0,0,1,.88,2.586,5.025,5.025,0,0,1-.8,3.122,3.141,3.141,0,0,1-2.659,1.03h-2.5Zm3.062,17.449h-3.062V40.37h2.68a3.482,3.482,0,0,1,2.709,1.066,4.412,4.412,0,0,1,.966,3.058q0,4.464-3.293,4.464" transform="translate(35.478 7.842)" fill="#fff"/>
      <path id="Trazado_2382" data-name="Trazado 2382" d="M147.4,30.079a.774.774,0,0,0-.648.34,1.9,1.9,0,0,0,0,1.888.778.778,0,0,0,.648.344.669.669,0,0,0,.585-.344,2.156,2.156,0,0,0,0-1.888.665.665,0,0,0-.585-.34" transform="translate(37.935 7.788)" fill="#fff"/>
      <rect id="Rectángulo_2282" data-name="Rectángulo 2282" width="1.293" height="14.769" transform="translate(184.632 43.257)" fill="#fff"/>
      <path id="Trazado_2383" data-name="Trazado 2383" d="M154.786,34.133q-4.517,0-4.518,7.637a11.5,11.5,0,0,0,1.152,5.712,3.633,3.633,0,0,0,3.312,1.978,3.716,3.716,0,0,0,3.366-1.978,11.311,11.311,0,0,0,1.18-5.712,11.127,11.127,0,0,0-1.183-5.635,3.672,3.672,0,0,0-3.309-2m-.026,14.1a2.5,2.5,0,0,1-2.382-1.633,11.87,11.87,0,0,1-.763-4.832,11.966,11.966,0,0,1,.74-4.805,2.5,2.5,0,0,1,2.4-1.606q3.171,0,3.171,6.412,0,6.464-3.171,6.465" transform="translate(38.91 8.838)" fill="#fff"/>
      <path id="Trazado_2384" data-name="Trazado 2384" d="M167.066,35.9l.054,1.647h-.108a4.144,4.144,0,0,0-1.42-1.579,3.493,3.493,0,0,0-5.058,1.4,12.165,12.165,0,0,0-1.076,5.722q0,7.635,4.3,7.635a3.231,3.231,0,0,0,1.932-.608,4.307,4.307,0,0,0,1.375-1.734h.122l.109,2.07h1.061V29.268h-1.293Zm0,8.031a8.465,8.465,0,0,1-.84,4.224,2.612,2.612,0,0,1-2.386,1.439,2.41,2.41,0,0,1-2.314-1.648,12.542,12.542,0,0,1-.721-4.832,13.045,13.045,0,0,1,.694-4.823,2.367,2.367,0,0,1,2.287-1.669,2.628,2.628,0,0,1,2.468,1.561,11.159,11.159,0,0,1,.812,4.9Z" transform="translate(41.289 7.578)" fill="#fff"/>
      <rect id="Rectángulo_2283" data-name="Rectángulo 2283" width="1.293" height="14.769" transform="translate(213.596 43.257)" fill="#fff"/>
      <path id="Trazado_2385" data-name="Trazado 2385" d="M170.411,30.079a.774.774,0,0,0-.648.34,1.9,1.9,0,0,0,0,1.888.778.778,0,0,0,.648.344.669.669,0,0,0,.585-.344,2.155,2.155,0,0,0,0-1.888.665.665,0,0,0-.585-.34" transform="translate(43.893 7.788)" fill="#fff"/>
      <path id="Trazado_2386" data-name="Trazado 2386" d="M176.994,45.875q-.178.871-.272,1.579h-.11q-.353-1.947-.734-3.593l-2.206-9.5h-1.307l3.485,14.769h1.537l3.594-14.769h-1.307q-2.5,10.645-2.681,11.515" transform="translate(44.632 8.897)" fill="#fff"/>
      <path id="Trazado_2387" data-name="Trazado 2387" d="M184.712,34.134a3.526,3.526,0,0,0-3.23,2,11.915,11.915,0,0,0-1.125,5.775,10.333,10.333,0,0,0,1.261,5.558,4,4,0,0,0,3.6,2,5.544,5.544,0,0,0,2.981-.885V47.323a5.762,5.762,0,0,1-2.926.913,2.876,2.876,0,0,1-2.682-1.606,10.5,10.5,0,0,1-.913-4.832h7V40.6a9.036,9.036,0,0,0-1.061-4.713,3.256,3.256,0,0,0-2.9-1.751M181.7,40.626q.259-5.322,2.926-5.322a2.238,2.238,0,0,1,2.005,1.443,8.536,8.536,0,0,1,.744,3.879Z" transform="translate(46.701 8.838)" fill="#fff"/>
      <path id="Trazado_2388" data-name="Trazado 2388" d="M190.861,37.006h-.1l-.136-2.586h-1.061V49.187h1.293V41.362a11.715,11.715,0,0,1,.368-3.035,5.5,5.5,0,0,1,1.012-2.141,1.837,1.837,0,0,1,1.4-.772,2.6,2.6,0,0,1,1.007.2l.312-1.293a4.235,4.235,0,0,0-1.293-.19q-1.77,0-2.8,2.872" transform="translate(49.086 8.838)" fill="#fff"/>
      <path id="Trazado_2389" data-name="Trazado 2389" d="M198.6,35.358a4.174,4.174,0,0,1,2.368.749l.667-1.131a5.045,5.045,0,0,0-2.981-.843,3.754,3.754,0,0,0-2.736,1.044,3.5,3.5,0,0,0-1.075,2.631,4.152,4.152,0,0,0,.308,1.688,4.279,4.279,0,0,0,.854,1.279,12.222,12.222,0,0,0,2.063,1.525,6.586,6.586,0,0,1,1.793,1.533,2.837,2.837,0,0,1,.467,1.652,2.933,2.933,0,0,1-.653,2,2.263,2.263,0,0,1-1.8.749,4.8,4.8,0,0,1-1.7-.308,3.573,3.573,0,0,1-1.334-.808v1.511a4.365,4.365,0,0,0,1.185.572,5.5,5.5,0,0,0,1.769.259,3.677,3.677,0,0,0,2.831-1.052,4.132,4.132,0,0,0,.979-2.922,4.472,4.472,0,0,0-.267-1.615,3.825,3.825,0,0,0-.808-1.279,12.4,12.4,0,0,0-2.014-1.543,7.1,7.1,0,0,1-1.96-1.6,2.8,2.8,0,0,1-.462-1.643,2.4,2.4,0,0,1,.68-1.779,2.5,2.5,0,0,1,1.824-.671" transform="translate(50.452 8.838)" fill="#fff"/>
      <rect id="Rectángulo_2284" data-name="Rectángulo 2284" width="1.293" height="14.769" transform="translate(255.041 43.257)" fill="#fff"/>
      <path id="Trazado_2390" data-name="Trazado 2390" d="M203.332,30.079a.774.774,0,0,0-.648.34,1.9,1.9,0,0,0,0,1.888.778.778,0,0,0,.648.344.669.669,0,0,0,.585-.344,2.155,2.155,0,0,0,0-1.888.665.665,0,0,0-.585-.34" transform="translate(52.417 7.788)" fill="#fff"/>
      <path id="Trazado_2391" data-name="Trazado 2391" d="M213.805,35.9l.054,1.647h-.109a4.145,4.145,0,0,0-1.42-1.579,3.495,3.495,0,0,0-5.06,1.4,12.183,12.183,0,0,0-1.075,5.722q0,7.635,4.3,7.635a3.229,3.229,0,0,0,1.932-.608,4.32,4.32,0,0,0,1.376-1.734h.121l.11,2.07H215.1V29.268h-1.292Zm0,8.031a8.45,8.45,0,0,1-.841,4.224,2.613,2.613,0,0,1-2.386,1.439,2.41,2.41,0,0,1-2.314-1.648,12.541,12.541,0,0,1-.721-4.832,13.044,13.044,0,0,1,.694-4.823,2.368,2.368,0,0,1,2.286-1.669,2.628,2.628,0,0,1,2.469,1.561,11.156,11.156,0,0,1,.813,4.9Z" transform="translate(53.391 7.578)" fill="#fff"/>
      <path id="Trazado_2392" data-name="Trazado 2392" d="M219.938,34.133a6.044,6.044,0,0,0-3.227.953l.559,1.021a4.84,4.84,0,0,1,2.586-.83,1.807,1.807,0,0,1,1.715.943,6.618,6.618,0,0,1,.517,3.018v1.225l-1.593.082a5.274,5.274,0,0,0-3.553,1.338,4.461,4.461,0,0,0-1.265,3.344,4.91,4.91,0,0,0,.88,3.081,2.758,2.758,0,0,0,2.318,1.152,3.426,3.426,0,0,0,3.213-2.34h.054l.164,2.068h1.061V39.128a6.933,6.933,0,0,0-.8-3.842,2.976,2.976,0,0,0-2.626-1.153m2.15,8.984a8.084,8.084,0,0,1-.767,3.875,2.391,2.391,0,0,1-2.159,1.365,1.849,1.849,0,0,1-1.552-.748,3.892,3.892,0,0,1-.572-2.355,3.611,3.611,0,0,1,.862-2.609,3.866,3.866,0,0,1,2.649-.984l1.538-.082Z" transform="translate(55.847 8.838)" fill="#fff"/>
      <path id="Trazado_2393" data-name="Trazado 2393" d="M231.935,35.9l.054,1.647h-.108a4.143,4.143,0,0,0-1.42-1.579,3.493,3.493,0,0,0-5.058,1.4,12.165,12.165,0,0,0-1.076,5.722q0,7.635,4.3,7.635a3.232,3.232,0,0,0,1.932-.608,4.307,4.307,0,0,0,1.375-1.734h.122l.109,2.07h1.061V29.268h-1.293Zm0,8.031a8.465,8.465,0,0,1-.84,4.224,2.614,2.614,0,0,1-2.386,1.439,2.41,2.41,0,0,1-2.314-1.648,12.541,12.541,0,0,1-.721-4.832,13.045,13.045,0,0,1,.694-4.823,2.367,2.367,0,0,1,2.286-1.669,2.628,2.628,0,0,1,2.469,1.561,11.159,11.159,0,0,1,.812,4.9Z" transform="translate(58.086 7.578)" fill="#fff"/>
      <path id="Trazado_2394" data-name="Trazado 2394" d="M245.753,35.9l.053,1.647H245.7a4.144,4.144,0,0,0-1.42-1.579,3.493,3.493,0,0,0-5.058,1.4,12.165,12.165,0,0,0-1.076,5.722q0,7.635,4.3,7.635a3.231,3.231,0,0,0,1.932-.608,4.32,4.32,0,0,0,1.376-1.734h.121l.11,2.07h1.061V29.268h-1.292Zm0,8.031a8.464,8.464,0,0,1-.841,4.224,2.614,2.614,0,0,1-2.387,1.439,2.41,2.41,0,0,1-2.313-1.648,12.541,12.541,0,0,1-.721-4.832,13.044,13.044,0,0,1,.694-4.823,2.367,2.367,0,0,1,2.287-1.669,2.628,2.628,0,0,1,2.468,1.561,11.156,11.156,0,0,1,.813,4.9Z" transform="translate(61.664 7.578)" fill="#fff"/>
      <path id="Trazado_2395" data-name="Trazado 2395" d="M252.176,34.134a3.526,3.526,0,0,0-3.23,2,11.915,11.915,0,0,0-1.125,5.775,10.333,10.333,0,0,0,1.261,5.558,4,4,0,0,0,3.6,2,5.544,5.544,0,0,0,2.981-.885V47.323a5.762,5.762,0,0,1-2.926.913,2.876,2.876,0,0,1-2.682-1.606,10.5,10.5,0,0,1-.913-4.832h7V40.6a9.037,9.037,0,0,0-1.061-4.713,3.256,3.256,0,0,0-2.9-1.751m-3.008,6.492q.259-5.322,2.926-5.322a2.238,2.238,0,0,1,2.005,1.443,8.536,8.536,0,0,1,.744,3.879Z" transform="translate(64.169 8.838)" fill="#fff"/>
      <path id="Trazado_2396" data-name="Trazado 2396" d="M267.114,31.315a4.707,4.707,0,0,1,2.6.735l.613-1.171a5.919,5.919,0,0,0-3.185-.843,5.217,5.217,0,0,0-4.624,2.722,14.172,14.172,0,0,0-1.692,7.486,17.39,17.39,0,0,0,.776,5.5,7.806,7.806,0,0,0,2.2,3.548,4.924,4.924,0,0,0,3.316,1.225,5.54,5.54,0,0,0,2.79-.613V48.682a5.9,5.9,0,0,1-2.668.559,3.733,3.733,0,0,1-2.654-1.089,7.021,7.021,0,0,1-1.756-3.117,16.562,16.562,0,0,1-.612-4.764,13.56,13.56,0,0,1,1.329-6.583,4,4,0,0,1,3.57-2.373" transform="translate(67.537 7.777)" fill="#fff"/>
      <path id="Trazado_2397" data-name="Trazado 2397" d="M274.458,34.133q-4.517,0-4.518,7.637a11.487,11.487,0,0,0,1.153,5.712,3.63,3.63,0,0,0,3.312,1.978,3.715,3.715,0,0,0,3.365-1.978,11.311,11.311,0,0,0,1.18-5.712,11.128,11.128,0,0,0-1.183-5.635,3.672,3.672,0,0,0-3.309-2m-.026,14.1A2.5,2.5,0,0,1,272.05,46.6a11.87,11.87,0,0,1-.763-4.832,11.967,11.967,0,0,1,.74-4.805,2.5,2.5,0,0,1,2.4-1.606q3.171,0,3.171,6.412,0,6.464-3.171,6.465" transform="translate(69.897 8.838)" fill="#fff"/>
      <rect id="Rectángulo_2285" data-name="Rectángulo 2285" width="1.293" height="21.179" transform="translate(352.102 36.847)" fill="#fff"/>
      <path id="Trazado_2398" data-name="Trazado 2398" d="M287.811,34.133q-4.517,0-4.518,7.637a11.5,11.5,0,0,0,1.152,5.712,3.632,3.632,0,0,0,3.312,1.978,3.716,3.716,0,0,0,3.366-1.978,11.311,11.311,0,0,0,1.18-5.712,11.127,11.127,0,0,0-1.183-5.635,3.672,3.672,0,0,0-3.308-2m-.026,14.1A2.5,2.5,0,0,1,285.4,46.6a11.87,11.87,0,0,1-.763-4.832,11.966,11.966,0,0,1,.74-4.805,2.5,2.5,0,0,1,2.4-1.606q3.171,0,3.171,6.412,0,6.464-3.171,6.465" transform="translate(73.355 8.838)" fill="#fff"/>
      <path id="Trazado_2399" data-name="Trazado 2399" d="M303.637,34.133a3.205,3.205,0,0,0-2.014.6,4.453,4.453,0,0,0-1.307,1.96,3.764,3.764,0,0,0-1.021-1.906,2.738,2.738,0,0,0-1.932-.653,3.105,3.105,0,0,0-3.009,2.342h-.122l-.108-2.056h-1.089V49.187h1.293V41.075a10.29,10.29,0,0,1,.667-4.328,2.234,2.234,0,0,1,2.136-1.334,1.776,1.776,0,0,1,1.647.917,5.774,5.774,0,0,1,.531,2.8V49.187h1.279V40.544a8.687,8.687,0,0,1,.662-3.833,2.243,2.243,0,0,1,2.155-1.3q2.177,0,2.178,3.716V49.187h1.279V39.536a8.265,8.265,0,0,0-.776-4.115,2.647,2.647,0,0,0-2.45-1.288" transform="translate(75.877 8.838)" fill="#fff"/>
      <path id="Trazado_2400" data-name="Trazado 2400" d="M311.694,35.42a3.568,3.568,0,0,0-3.225,2.2h-.109l.055-1.783V29.268h-1.293V50.447h1.061l.176-2.042h.109a4.387,4.387,0,0,0,1.443,1.729,3.447,3.447,0,0,0,5.036-1.384,12.168,12.168,0,0,0,1.075-5.722q0-7.608-4.328-7.608m2.237,12.535a2.385,2.385,0,0,1-2.237,1.593q-3.28,0-3.28-6.179v-.341a11.56,11.56,0,0,1,.762-4.914,2.572,2.572,0,0,1,2.464-1.5,2.409,2.409,0,0,1,2.314,1.606,12.261,12.261,0,0,1,.721,4.8,12.3,12.3,0,0,1-.744,4.927" transform="translate(79.525 7.578)" fill="#fff"/>
      <path id="Trazado_2401" data-name="Trazado 2401" d="M317.523,30.079a.774.774,0,0,0-.648.34,1.9,1.9,0,0,0,0,1.888.778.778,0,0,0,.648.344.669.669,0,0,0,.585-.344,2.155,2.155,0,0,0,0-1.888.665.665,0,0,0-.585-.34" transform="translate(81.985 7.788)" fill="#fff"/>
      <rect id="Rectángulo_2286" data-name="Rectángulo 2286" width="1.293" height="14.769" transform="translate(398.801 43.257)" fill="#fff"/>
      <path id="Trazado_2402" data-name="Trazado 2402" d="M324.474,34.133a6.044,6.044,0,0,0-3.227.953l.559,1.021a4.844,4.844,0,0,1,2.586-.83,1.807,1.807,0,0,1,1.715.943,6.618,6.618,0,0,1,.517,3.018v1.225l-1.593.082a5.277,5.277,0,0,0-3.553,1.338,4.461,4.461,0,0,0-1.265,3.344,4.918,4.918,0,0,0,.88,3.081,2.761,2.761,0,0,0,2.319,1.152,3.425,3.425,0,0,0,3.212-2.34h.054l.164,2.068H327.9V39.128a6.921,6.921,0,0,0-.8-3.842,2.976,2.976,0,0,0-2.626-1.153m2.15,8.984a8.069,8.069,0,0,1-.767,3.875,2.391,2.391,0,0,1-2.159,1.365,1.851,1.851,0,0,1-1.552-.748,3.893,3.893,0,0,1-.572-2.355,3.611,3.611,0,0,1,.862-2.609,3.866,3.866,0,0,1,2.649-.984l1.538-.082Z" transform="translate(82.915 8.838)" fill="#fff"/>
      <path id="Trazado_2403" data-name="Trazado 2403" d="M77.989,44.008A107.026,107.026,0,0,0,52,1.508,111.6,111.6,0,0,0,1.5,30.6c4.99,18.485,15.389,36.437,29.424,49.456A101.728,101.728,0,0,0,75.555,56.079a7.157,7.157,0,0,1-.767-.747h0a12.772,12.772,0,0,0-7.706-3.446c-5.412-.366-12.46,7.695-12.46,7.695v0a22.558,22.558,0,1,1,3-24.36v-.008S62.518,45.349,67.8,46.321a13.228,13.228,0,0,0,8.44-1.5h0a7,7,0,0,1,1.747-.816M48.66,17.474A5.439,5.439,0,1,1,54.1,12.036a5.44,5.44,0,0,1-5.437,5.437" transform="translate(0.388 0.39)" fill="#fff"/>
      <path id="Trazado_2404" data-name="Trazado 2404" d="M64.322,37.042q1.528-3.49,2.762-7.059a95.564,95.564,0,0,0-8.2-9.655q.963,3.563,1.693,7.192,2.113,4.679,3.742,9.521" transform="translate(15.248 5.264)" fill="#fff"/>
      <path id="Trazado_2405" data-name="Trazado 2405" d="M37.277,3.108Q33.653,1.409,29.946,0A105.827,105.827,0,0,0,20.2,8.707q4.1-1.148,8.289-2,4.328-1.992,8.79-3.6" transform="translate(5.23 0)" fill="#fff"/>
      <path id="Trazado_2406" data-name="Trazado 2406" d="M32.414,64.42q3.631,1.571,7.353,2.828a97.19,97.19,0,0,0,10.153-8.9q-3.609,1.086-7.3,1.916a102.864,102.864,0,0,1-10.207,4.16" transform="translate(8.393 15.107)" fill="#fff"/>
      <path id="Trazado_2407" data-name="Trazado 2407" d="M3.15,32.361Q1.422,36.092,0,39.911A107.156,107.156,0,0,0,9.336,50.075Q8.05,45.938,7.1,41.692c-1.462-3.058-2.777-6.176-3.946-9.331" transform="translate(0 8.379)" fill="#fff"/>
      <path id="Trazado_2408" data-name="Trazado 2408" d="M16.252,63.919q3,.3,6.039.417A106.014,106.014,0,0,1,8.584,45.375a98.846,98.846,0,0,0,7.668,18.544" transform="translate(2.223 11.749)" fill="#fff"/>
      <path id="Trazado_2409" data-name="Trazado 2409" d="M63.61,52.393q.321-2.821.471-5.677A103.233,103.233,0,0,1,46.252,59.54,97.783,97.783,0,0,0,63.61,52.393" transform="translate(11.976 12.096)" fill="#fff"/>
      <path id="Trazado_2410" data-name="Trazado 2410" d="M5.178,15.83q-.238,3.3-.268,6.635A113.973,113.973,0,0,1,25.6,8.069,109.184,109.184,0,0,0,5.178,15.83" transform="translate(1.271 2.089)" fill="#fff"/>
      <path id="Trazado_2411" data-name="Trazado 2411" d="M53,5.277q-3.1-.261-6.246-.332A110.465,110.465,0,0,1,60.261,24.5,107.6,107.6,0,0,0,53,5.277" transform="translate(12.105 1.28)" fill="#fff"/>
      <path id="Trazado_2412" data-name="Trazado 2412" d="M31.247,27.222A11.265,11.265,0,1,0,43.507,37.4a11.268,11.268,0,0,0-12.26-10.181" transform="translate(5.443 7.036)" fill="#fff"/>
      <path id="Trazado_2413" data-name="Trazado 2413" d="M64.3,37.818a3.508,3.508,0,1,0,3.815,3.167A3.507,3.507,0,0,0,64.3,37.818" transform="translate(15.826 9.788)" fill="#fff"/>
      <path id="Trazado_2414" data-name="Trazado 2414" d="M39.52,7.709a2.721,2.721,0,1,0,2.718,2.722A2.723,2.723,0,0,0,39.52,7.709" transform="translate(9.528 1.996)" fill="#fff"/>
      <path id="Trazado_2415" data-name="Trazado 2415" d="M85.943,28.239C80.087,25.56,77.72,24,77.72,20.576c0-2.679,2.18-5.3,7.04-5.3A18.455,18.455,0,0,1,93.3,17.337L95.227,9.8a23.187,23.187,0,0,0-10.28-2.18c-10.342,0-16.51,6.043-16.51,13.892,0,6.23,4.486,10.716,11.713,13.831,5.3,2.306,7.6,4.362,7.6,7.788,0,3.551-2.679,5.981-7.786,5.981a21.475,21.475,0,0,1-10.342-2.679l-.013.054a7,7,0,0,1-1.656,7.75c2.3,1.342,6.992,2.6,11.636,2.6,11.152,0,17.444-6.1,17.444-14.453,0-6.293-3.427-10.716-11.09-14.143" transform="translate(17.595 1.972)" fill="#fff"/>
      <path id="Trazado_2416" data-name="Trazado 2416" d="M98.4,7.222a4.744,4.744,0,0,0-4.921,4.922,4.953,4.953,0,0,0,9.905,0A4.726,4.726,0,0,0,98.4,7.222" transform="translate(24.204 1.87)" fill="#fff"/>
      <rect id="Rectángulo_2287" data-name="Rectángulo 2287" width="9.22" height="34.701" transform="translate(118.053 23.483)" fill="#fff"/>
      <path id="Trazado_2417" data-name="Trazado 2417" d="M127.965,30.542v-.248c5.107-1.931,7.662-5.981,7.662-10.342a10.6,10.6,0,0,0-4.672-9.034c-3.3-2.305-7.414-3.053-13.207-3.053a68.346,68.346,0,0,0-12.149,1v47.1a75.2,75.2,0,0,0,10.218.623c8.534,0,13.892-1.557,17.133-4.486a13.169,13.169,0,0,0,4.361-9.844c0-6.106-3.988-10.342-9.345-11.713M114.757,15.03a19.026,19.026,0,0,1,4.05-.311c4.112,0,7.663,1.557,7.663,6.292,0,3.925-3.115,6.729-8.348,6.729h-3.365Zm3.676,34.64a19.066,19.066,0,0,1-3.676-.249V34.468h3.427c4.735,0,9.47,1.994,9.47,7.539,0,5.421-4.236,7.663-9.22,7.663" transform="translate(27.343 2.036)" fill="#fff"/>
    </g>
  </g>
</svg>
