<?xml version="1.0" encoding="utf-8"?>
<!-- Generator: Adobe Illustrator 26.4.1, SVG Export Plug-In . SVG Version: 6.00 Build 0)  -->
<svg version="1.1" id="Capa_1" xmlns="http://www.w3.org/2000/svg" xmlns:xlink="http://www.w3.org/1999/xlink" x="0px" y="0px"
	 viewBox="0 0 41.9 12.1" style="enable-background:new 0 0 41.9 12.1;" xml:space="preserve">
<style type="text/css">
	.st0{fill:#333333;}
</style>
<g id="Grupo_466_00000122691839377098889820000018345652660690713492_" transform="translate(759 3)">
	<path id="Trazado_1139_00000033339135767647659940000008765273174533330062_" class="st0" d="M-728.7-2.8c-3.1,0-6.1,1.2-8.3,3.3
		c0.5,0.2,0.9,0.6,1.2,1c1.9-1.8,4.5-2.8,7.1-2.8c5.1,0,9.4,3.7,9.9,8.3c0,0.4,0.4,0.7,0.8,0.7v0c0.5,0,0.8-0.4,0.8-0.9
		C-717.8,1.5-722.7-2.8-728.7-2.8z"/>
	<path id="Trazado_1140_00000141432360121081470760000013052448547197368993_" class="st0" d="M-740.3,4.5c-1.9,1.8-4.5,2.8-7.1,2.7
		c-5.2,0-9.5-3.7-9.9-8.4c0-0.4-0.4-0.7-0.8-0.7l0,0c-0.5,0-0.8,0.4-0.8,0.9c0.5,5.5,5.4,9.8,11.5,9.8c3.1,0,6.1-1.2,8.4-3.4
		C-739.5,5.3-740,5-740.3,4.5z"/>
	<path id="Trazado_1141_00000121958368135824758280000017977473477167876012_" class="st0" d="M-738.8,2.7L-738.8,2.7l0.1-0.2
		c0.5-0.7,1-1.4,1.6-2c-1.4-0.6-3,0-3.5,1.4c-0.4,0.9-0.3,1.9,0.3,2.6C-739.7,4-739.2,3.4-738.8,2.7z"/>
	<path id="Trazado_1142_00000042737238884503791010000014521529973696502422_" class="st0" d="M-737.3,3.4L-737.3,3.4l-0.1,0.2
		c-0.4,0.7-1,1.4-1.6,1.9c1.4,0.5,2.9-0.2,3.5-1.6c0.3-0.8,0.2-1.7-0.3-2.4C-736.4,2.1-736.9,2.7-737.3,3.4z"/>
</g>
</svg>
