<?xml version="1.0" encoding="utf-8"?>
<!-- Generator: Adobe Illustrator 26.4.1, SVG Export Plug-In . SVG Version: 6.00 Build 0)  -->
<svg version="1.1" id="Capa_1" xmlns="http://www.w3.org/2000/svg" xmlns:xlink="http://www.w3.org/1999/xlink" x="0px" y="0px"
	 viewBox="0 0 46 14" style="enable-background:new 0 0 46 14;" xml:space="preserve">
<style type="text/css">
	.st0{fill:#333333;}
</style>
<path id="Trazado_1649_00000168827666293548294640000006715375529452329650_" class="st0" d="M33.2,13.6c-4.5,0-8.6-2.2-11.1-5.9
	L22,7.5c-2-3.1-5.5-5-9.2-4.9c-5.4,0-10,3.8-10.6,8.7c-0.1,0.6-0.5,1-1.1,1h0c-0.6,0-1.2-0.6-1.1-1.2C0.7,5,6.2,0.4,12.8,0.4
	c4.5,0,8.6,2.2,11.1,5.9L24,6.5c2,3.1,5.5,5,9.2,4.9c5.5,0,10-3.8,10.6-8.8c0.1-0.6,0.5-1,1.1-1h0c0.6,0,1.2,0.6,1.1,1.2
	C45.3,8.9,39.9,13.6,33.2,13.6z"/>
</svg>
