<?xml version="1.0" encoding="utf-8"?>
<!-- Generator: Adobe Illustrator 26.4.1, SVG Export Plug-In . SVG Version: 6.00 Build 0)  -->
<svg version="1.1" id="Capa_1" xmlns="http://www.w3.org/2000/svg" xmlns:xlink="http://www.w3.org/1999/xlink" x="0px" y="0px"
	 viewBox="0 0 46 14" style="enable-background:new 0 0 46 14;" xml:space="preserve">
<style type="text/css">
	.st0{fill:#333333;}
</style>
<g>
	<path class="st0" d="M69.7,337.4c-0.9-0.2-1.7,0.4-1.9,1.2c-0.3,1.2-0.4,2.5-0.4,3.8c0,0.9,0.7,1.6,1.6,1.6h0
		c0.9,0,1.6-0.7,1.6-1.6c0-1,0.1-2.1,0.3-3.1C71.2,338.5,70.6,337.6,69.7,337.4z"/>
	<path class="st0" d="M76.1,327c-2.1,1.3-3.8,3-5.3,5c-0.2,0.3-0.3,0.6-0.3,1c0,0.4,0.2,0.8,0.5,1.2c0.3,0.3,0.7,0.5,1.2,0.5v0
		c0.5,0,1-0.3,1.3-0.7c1.2-1.7,2.7-3,4.4-4.1c0.7-0.5,0.9-1.5,0.5-2.2C77.8,326.8,76.8,326.5,76.1,327z"/>
	<path class="st0" d="M89.9,323.9c-2.4-0.3-4.8-0.1-7.2,0.4c-0.7,0.2-1.3,0.8-1.3,1.6c0,0.4,0.2,0.8,0.5,1.2
		c0.2,0.2,0.4,0.3,0.6,0.4l-0.1,0.1h0.6c0.1,0,0.2,0,0.4,0c2-0.4,4.1-0.6,6.1-0.3c0.4,0.1,0.9-0.1,1.2-0.3c0.3-0.3,0.6-0.7,0.6-1.1
		C91.5,324.8,90.8,324,89.9,323.9z"/>
	<path class="st0" d="M96.8,325.9c-0.8-0.4-1.8-0.1-2.2,0.7c-0.4,0.8-0.1,1.8,0.7,2.2c1.8,0.9,3.5,2.1,4.9,3.6
		c0.3,0.3,0.7,0.5,1.2,0.5c0,0,0,0,0,0c0.4,0,0.8-0.2,1.1-0.4c0.3-0.3,0.5-0.7,0.5-1.1c0-0.4-0.1-0.8-0.4-1.2
		C101,328.4,99,327,96.8,325.9z"/>
	<path class="st0" d="M111.5,339.2c-1.8-0.9-3.5-2.2-4.8-3.7c-0.6-0.7-1.6-0.7-2.3-0.1c-0.7,0.6-0.7,1.6-0.1,2.3
		c1.6,1.8,3.6,3.3,5.8,4.4c0.2,0.1,0.5,0.2,0.7,0.2V342l0,0l0,0.2c0,0,0,0,0,0c0.6,0,1.2-0.3,1.5-0.9c0.2-0.4,0.2-0.8,0.1-1.2
		S111.9,339.4,111.5,339.2z"/>
	<path class="st0" d="M135.8,334c-0.7-0.5-1.7-0.4-2.3,0.3c-1.2,1.6-2.7,3-4.4,4.1c-0.5,0.3-0.8,0.8-0.8,1.4c0,0.9,0.7,1.6,1.6,1.6
		c0,0,0,0,0,0v0c0.3,0,0.6-0.1,0.9-0.2c2.1-1.3,3.9-2.9,5.3-4.9C136.7,335.6,136.6,334.5,135.8,334z"/>
	<path class="st0" d="M124.7,340.9c-0.4-0.2-0.8-0.3-1.2-0.2c-2,0.4-4.1,0.5-6.1,0.3c-0.9-0.1-1.7,0.5-1.8,1.4
		c-0.1,0.9,0.5,1.7,1.4,1.8c0.9,0.1,1.8,0.2,2.7,0.2h0c0,0,0,0,0,0c1.5,0,3-0.2,4.5-0.5c0.4-0.1,0.8-0.3,1-0.7
		c0.2-0.4,0.3-0.8,0.2-1.2S125.1,341.2,124.7,340.9z"/>
	<path class="st0" d="M138.1,324.2c-0.9,0-1.6,0.7-1.6,1.6c0,1-0.1,2.1-0.4,3.1c0,0.1,0,0.2,0,0.4c0,0.9,0.7,1.6,1.6,1.6h0
		c0.8,0,1.4-0.5,1.6-1.3c0.3-1.2,0.4-2.5,0.4-3.8C139.7,325,139,324.2,138.1,324.2z"/>
</g>
<g>
	<path class="st0" d="M1.7,9.1C1.1,9,0.6,9.3,0.4,9.9c-0.2,0.8-0.3,1.6-0.3,2.4c0,0.6,0.5,1,1,1h0c0.6,0,1-0.5,1-1
		c0-0.7,0.1-1.3,0.2-1.9C2.6,9.8,2.2,9.2,1.7,9.1z"/>
	<path class="st0" d="M5.7,2.6C4.4,3.4,3.2,4.4,2.3,5.7C2.2,5.9,2.1,6.1,2.1,6.3c0,0.3,0.1,0.5,0.3,0.7c0.2,0.2,0.5,0.3,0.7,0.3v0
		c0.3,0,0.6-0.2,0.8-0.4c0.8-1,1.7-1.9,2.8-2.6C7.2,4,7.4,3.4,7.1,2.9C6.8,2.4,6.2,2.3,5.7,2.6z"/>
	<path class="st0" d="M14.4,0.6c-1.5-0.2-3-0.1-4.5,0.2c-0.5,0.1-0.8,0.5-0.8,1c0,0.3,0.1,0.5,0.3,0.7c0.1,0.1,0.3,0.2,0.4,0.2
		L9.7,2.8h0.4c0.1,0,0.2,0,0.2,0c1.3-0.3,2.6-0.3,3.9-0.2c0.3,0,0.5,0,0.8-0.2c0.2-0.2,0.4-0.4,0.4-0.7C15.4,1.1,15,0.6,14.4,0.6z"
		/>
	<path class="st0" d="M18.8,1.9c-0.5-0.2-1.1,0-1.4,0.5c-0.3,0.5,0,1.1,0.5,1.4C19,4.3,20.1,5,20.9,6c0.2,0.2,0.5,0.3,0.8,0.3
		c0,0,0,0,0,0c0.3,0,0.5-0.1,0.7-0.3c0.2-0.2,0.3-0.4,0.3-0.7c0-0.3-0.1-0.5-0.3-0.7C21.4,3.4,20.2,2.5,18.8,1.9z"/>
	<path class="st0" d="M28,10.3c-1.2-0.6-2.2-1.4-3-2.3c-0.4-0.4-1-0.5-1.5-0.1c-0.4,0.4-0.5,1-0.1,1.5c1,1.1,2.3,2.1,3.6,2.8
		c0.1,0.1,0.3,0.1,0.5,0.1V12l0,0l0,0.2c0,0,0,0,0,0c0.4,0,0.7-0.2,0.9-0.6c0.1-0.2,0.1-0.5,0.1-0.8C28.5,10.6,28.3,10.4,28,10.3z"
		/>
	<path class="st0" d="M43.4,7c-0.5-0.3-1.1-0.2-1.4,0.2c-0.8,1-1.7,1.9-2.8,2.6c-0.3,0.2-0.5,0.5-0.5,0.9c0,0.6,0.5,1,1,1
		c0,0,0,0,0,0v0c0.2,0,0.4-0.1,0.5-0.2c1.3-0.8,2.4-1.9,3.4-3.1C43.9,8,43.8,7.3,43.4,7z"/>
	<path class="st0" d="M36.3,11.3c-0.2-0.1-0.5-0.2-0.8-0.1c-1.3,0.3-2.6,0.3-3.9,0.2c-0.6-0.1-1.1,0.3-1.1,0.9
		c-0.1,0.6,0.3,1.1,0.9,1.1c0.6,0.1,1.1,0.1,1.7,0.1h0c0,0,0,0,0,0c1,0,1.9-0.1,2.8-0.3c0.3-0.1,0.5-0.2,0.6-0.4
		c0.1-0.2,0.2-0.5,0.1-0.8S36.6,11.5,36.3,11.3z"/>
	<path class="st0" d="M44.8,0.8c-0.6,0-1,0.5-1,1c0,0.6-0.1,1.3-0.2,1.9c0,0.1,0,0.2,0,0.2c0,0.6,0.5,1,1,1h0c0.5,0,0.9-0.3,1-0.8
		c0.2-0.8,0.3-1.6,0.3-2.4C45.8,1.3,45.4,0.8,44.8,0.8z"/>
</g>
</svg>
