<?xml version="1.0" encoding="utf-8"?>
<!-- Generator: Adobe Illustrator 26.4.1, SVG Export Plug-In . SVG Version: 6.00 Build 0)  -->
<svg version="1.1" id="Capa_1" xmlns="http://www.w3.org/2000/svg" xmlns:xlink="http://www.w3.org/1999/xlink" x="0px" y="0px"
	 viewBox="0 0 46 15" style="enable-background:new 0 0 46 15;" xml:space="preserve">
<style type="text/css">
	.st0{fill:#333333;}
</style>
<path class="st0" d="M45.8,8l-2.6-3.1C44,4,44.7,3.1,45.4,2.1c0.2-0.4,0.2-0.8-0.2-1.1c-0.4-0.2-0.8-0.2-1.1,0.2
	c-1.1,1.6-2.4,3.1-3.8,4.4l-2.6-3.1c-0.3-0.3-0.8-0.4-1.1-0.1c-0.3,0.3-0.4,0.8-0.1,1.1l2.6,3.1c-1,0.8-2.1,1.6-3.2,2.2l-2.7-3.2
	c-0.3-0.3-0.8-0.4-1.1-0.1c-0.3,0.3-0.4,0.8-0.1,1.1l2.5,3c-3.6,1.8-7.6,2.9-11.8,2.9c-8.5,0-16.5-4.2-21.3-11.2
	C1.2,0.9,0.7,0.8,0.3,1.1C0,1.3-0.1,1.8,0.1,2.2c5.1,7.5,13.6,11.9,22.6,11.9c5.5,0,10.8-1.7,15.2-4.6l2.5,3
	c0.2,0.2,0.4,0.3,0.6,0.3c0.2,0,0.4-0.1,0.5-0.2c0.3-0.3,0.4-0.8,0.1-1.1l-2.5-2.9c1-0.8,2-1.6,2.9-2.5l2.5,3
	c0.2,0.2,0.4,0.3,0.6,0.3c0.2,0,0.4-0.1,0.5-0.2C46.1,8.9,46.1,8.4,45.8,8z"/>
</svg>
