<?xml version="1.0" encoding="utf-8"?>
<!-- Generator: Adobe Illustrator 26.4.1, SVG Export Plug-In . SVG Version: 6.00 Build 0)  -->
<svg version="1.1" id="Capa_1" xmlns="http://www.w3.org/2000/svg" xmlns:xlink="http://www.w3.org/1999/xlink" x="0px" y="0px"
	 viewBox="0 0 40.3 12.1" style="enable-background:new 0 0 40.3 12.1;" xml:space="preserve">
<style type="text/css">
	.st0{fill:#333333;}
</style>
<g>
	<path class="st0" d="M29.1,0.4c-3.8,0-7.4,1.9-9.5,5.1l-0.1,0.2c-1.8,2.8-4.9,4.4-8.2,4.4c-5,0-9.1-3.5-9.5-8
		c0-0.4-0.4-0.7-0.8-0.7c-0.5,0-0.8,0.4-0.8,0.8c0.5,5.3,5.2,9.4,11,9.4c3.8,0,7.4-1.9,9.5-5.1l0.1-0.2c1.8-2.8,4.9-4.4,8.2-4.4
		c4.9,0,9,3.5,9.5,7.9c0,0.4,0.4,0.7,0.8,0.7c0.5,0,0.8-0.4,0.8-0.8C39.6,4.5,34.8,0.4,29.1,0.4z"/>
	<path class="st0" d="M15,8.4L14.4,7c-0.9,0.4-1.8,0.6-2.7,0.6l0.1,1.5C12.9,9.1,14,8.8,15,8.4z"/>
	<path class="st0" d="M10.7,7.6C9.7,7.6,8.8,7.3,8,6.9L7.3,8.3c1,0.5,2.1,0.8,3.2,0.8L10.7,7.6z"/>
	<polygon class="st0" points="16.1,7.8 16.1,7.8 16.1,7.8 	"/>
	<path class="st0" d="M18.1,6.2c0.3-0.3,0.2-0.9-0.1-1.1c-0.3-0.2-0.8-0.2-1,0.1c-0.5,0.5-1,1-1.6,1.3l0.8,1.3
		C16.9,7.4,17.5,6.8,18.1,6.2z"/>
	<path class="st0" d="M6.2,7.7l0.8-1.3c-0.8-0.5-1.4-1.1-2-1.9L3.8,5.4C4.5,6.3,5.3,7.1,6.2,7.7z"/>
	<path class="st0" d="M4.6,3.6C4.3,3,4.1,2.4,4,1.7C4,1.3,3.7,1,3.3,1C2.8,1,2.5,1.4,2.5,1.8c0.1,0.8,0.3,1.7,0.7,2.5L4.6,3.6z"/>
	<path class="st0" d="M22.4,5.8c-0.3,0.3-0.2,0.9,0.1,1.1c0.3,0.2,0.8,0.2,1-0.1c0.5-0.5,1-1,1.6-1.3l-0.8-1.3
		C23.6,4.6,23,5.2,22.4,5.8z"/>
	<polygon class="st0" points="24.4,4.2 24.4,4.2 24.4,4.2 	"/>
	<path class="st0" d="M34.2,4.1l-0.8,1.3c0.8,0.5,1.4,1.1,2,1.9l1.3-0.9C35.9,5.5,35.1,4.7,34.2,4.1z"/>
	<path class="st0" d="M35.8,8.2c0.3,0.6,0.5,1.3,0.6,2c0,0.4,0.4,0.7,0.8,0.7c0.5,0,0.8-0.4,0.8-0.8c-0.1-0.8-0.3-1.7-0.7-2.5
		L35.8,8.2z"/>
	<path class="st0" d="M29.7,4.2c0.9,0.1,1.8,0.3,2.7,0.7l0.6-1.4C32,3,31,2.8,29.8,2.7L29.7,4.2z"/>
	<path class="st0" d="M25.4,3.5L26,4.9c0.9-0.4,1.8-0.6,2.7-0.7l-0.1-1.5C27.5,2.7,26.4,3,25.4,3.5z"/>
</g>
</svg>
