<svg xmlns="http://www.w3.org/2000/svg" width="44.029" height="12.693" viewBox="0 0 44.029 12.693">
  <path id="Trazado_2286" data-name="Trazado 2286" d="M32.278,12.692a12.528,12.528,0,0,1-10.6-5.666L21.521,6.8a10.412,10.412,0,0,0-8.837-4.7c-5.211,0-9.549,3.644-10.117,8.3a1.049,1.049,0,1,1-2.086-.219C1.158,4.471,6.394,0,12.683,0a12.529,12.529,0,0,1,10.6,5.666l.156.227a10.412,10.412,0,0,0,8.837,4.7c5.264,0,9.608-3.683,10.128-8.39a1.049,1.049,0,0,1,2.088.2c-.621,5.77-5.863,10.29-12.217,10.29" transform="translate(-0.472 0)" fill="#00000066"/>
</svg>
