<?xml version="1.0" encoding="utf-8"?>
<!-- Generator: Adobe Illustrator 26.4.1, SVG Export Plug-In . SVG Version: 6.00 Build 0)  -->
<svg version="1.1" id="Capa_1" xmlns="http://www.w3.org/2000/svg" xmlns:xlink="http://www.w3.org/1999/xlink" x="0px" y="0px"
	 viewBox="0 0 41.9 12.1" style="enable-background:new 0 0 41.9 12.1;" xml:space="preserve">
<style type="text/css">
	.st0{fill:#333333;}
</style>
<path id="Trazado_1653_00000076586385094257205690000001385890619302815390_" class="st0" d="M11.7,11.7c-2.9,0-5.6-1.1-7.7-3.1
	c-1.8-1.7-3-4-3.2-6.5c0-0.5,0.3-0.8,0.8-0.8h0c0.4,0,0.7,0.3,0.8,0.7c0.4,4.5,4.5,8.1,9.4,8.1L11.7,11.7z M12.9,11.7l-0.1-1.5
	c1.1-0.1,2.1-0.4,3.1-0.8l0.6,1.4C15.4,11.3,14.2,11.6,12.9,11.7L12.9,11.7z M39.6,10c-0.3-2.9-2.1-5.5-4.7-6.9l0.7-1.4
	c3.1,1.6,5.1,4.6,5.5,8c0.1,0.5-0.3,0.9-0.8,0.9h0C40,10.7,39.7,10.4,39.6,10z M17.7,10.2l-0.8-1.4c1.4-0.8,2.5-1.8,3.3-3.2l0,0
	l0.1-0.2c2-3.2,5.5-5.1,9.3-5.2l0.1,1.6c-3.2,0.1-6.2,1.7-8,4.4l0,0l-0.1,0.2C20.6,8.1,19.2,9.3,17.7,10.2L17.7,10.2z M33.9,2.7
	c-1-0.4-2.1-0.7-3.2-0.7l0.1-1.6c1.2,0.1,2.5,0.4,3.6,0.8L33.9,2.7z"/>
</svg>
