<?xml version="1.0" encoding="utf-8"?>
<!-- Generator: Adobe Illustrator 26.4.1, SVG Export Plug-In . SVG Version: 6.00 Build 0)  -->
<svg version="1.1" id="Capa_1" xmlns="http://www.w3.org/2000/svg" xmlns:xlink="http://www.w3.org/1999/xlink" x="0px" y="0px"
	 viewBox="0 0 46 18" style="enable-background:new 0 0 46 18;" xml:space="preserve">
<style type="text/css">
	.st0{fill:#333333;}
</style>
<g>
	<path class="st0" d="M45.6,2.1c-0.4-0.2-0.9-0.2-1.1,0.2C39.6,9.5,31.6,13.7,23,13.7c-8.6,0-16.7-4.2-21.5-11.4
		C1.2,2,0.7,1.9,0.3,2.2C0,2.4-0.1,2.9,0.1,3.3C5.3,10.8,13.8,15.3,23,15.3c9.1,0,17.7-4.5,22.8-12.1C46.1,2.9,46,2.4,45.6,2.1z"/>
	<path class="st0" d="M8.4,6.8C8.6,6.9,8.7,7,8.9,7c0.2,0,0.4-0.1,0.6-0.3c0.3-0.3,0.2-0.8-0.1-1.1c-1.1-1-2.1-2-3-3.2
		C6.2,2.1,5.7,2,5.3,2.3C5,2.5,4.9,3,5.2,3.4C6.1,4.6,7.2,5.8,8.4,6.8z"/>
	<path class="st0" d="M20.1,10.4c-0.4-0.1-0.8,0.2-0.9,0.7c-0.1,0.4,0.2,0.8,0.7,0.9c1,0.1,2.1,0.2,3.1,0.2c0.4,0,0.8-0.4,0.8-0.8
		s-0.4-0.8-0.8-0.8C22,10.6,21,10.6,20.1,10.4z"/>
	<path class="st0" d="M36.8,5.4C35,7,33,8.2,30.7,9.1c-0.4,0.2-0.6,0.6-0.4,1c0.1,0.3,0.4,0.5,0.7,0.5c0.1,0,0.2,0,0.3-0.1
		c2.4-1,4.6-2.3,6.5-4.1c0.4-0.4,0.9-0.8,1.3-1.2c0.3-0.3,0.3-0.8,0-1.1c-0.3-0.3-0.8-0.3-1.1,0C37.6,4.6,37.2,5,36.8,5.4z"/>
	<path class="st0" d="M23,9.5c2.2,0,4.4-0.4,6.4-1.2C30,8.1,30.5,7.8,31,7.6c0.4-0.2,0.6-0.7,0.4-1.1c-0.2-0.4-0.7-0.6-1.1-0.4
		c-0.5,0.2-1,0.5-1.5,0.6C27,7.5,25,7.9,23,7.9c-4.5,0-8.6-1.7-11.8-4.9c-0.3-0.3-0.8-0.3-1.1,0c-0.3,0.3-0.3,0.8,0,1.1
		C13.5,7.5,18.1,9.5,23,9.5z"/>
	<path class="st0" d="M32.1,6.9c0.1,0,0.3,0,0.4-0.1c0.7-0.4,1.4-0.9,2-1.5C35.9,4.2,37,2.9,38,1.5c0.2-0.4,0.2-0.9-0.2-1.1
		c-0.4-0.2-0.9-0.2-1.1,0.2c-0.9,1.3-1.9,2.4-3.1,3.4C33,4.6,32.3,5,31.7,5.4c-0.4,0.2-0.5,0.7-0.3,1.1C31.6,6.7,31.8,6.9,32.1,6.9z
		"/>
	<path class="st0" d="M44.2,6.8c-2.8,3.1-6.3,5.5-10.1,7.1c-3.5,1.5-7.3,2.2-11.1,2.2c-2.8,0-5.5-0.4-8.1-1.2
		c-0.4-0.1-0.9,0.1-1,0.5c-0.1,0.4,0.1,0.9,0.5,1c2.8,0.8,5.7,1.2,8.6,1.2c4.1,0,8-0.8,11.7-2.3c4-1.7,7.7-4.3,10.7-7.5
		c0.3-0.3,0.3-0.8,0-1.1C45,6.5,44.5,6.5,44.2,6.8z"/>
</g>
</svg>
