<?xml version="1.0" encoding="utf-8"?>
<!-- Generator: Adobe Illustrator 26.4.1, SVG Export Plug-In . SVG Version: 6.00 Build 0)  -->
<svg version="1.1" id="Capa_1" xmlns="http://www.w3.org/2000/svg" xmlns:xlink="http://www.w3.org/1999/xlink" x="0px" y="0px"
	 viewBox="0 0 41.9 12.1" style="enable-background:new 0 0 41.9 12.1;" xml:space="preserve">
<style type="text/css">
	.st0{fill:#333333;}
</style>
<g id="Grupo_467_00000060711117452593378260000015606818714635412667_" transform="translate(832.263 127.556) rotate(180)">
	<path id="Trazado_1146_00000096029902098169677110000010570918101932604849_" class="st0" d="M802.1,127.3c-6,0-10.9-4.3-11.4-9.7
		c0-0.5,0.3-0.9,0.8-0.9l0,0c0.4,0,0.7,0.3,0.8,0.7c0.4,4.6,4.6,8.3,9.8,8.3c3.4,0,6.6-1.7,8.5-4.5l0,0l0.1-0.2
		c2.2-3.3,5.9-5.3,9.8-5.3c5.9,0,10.8,4.2,11.4,9.6c0,0.5-0.3,0.9-0.8,0.9l0,0c-0.4,0-0.8-0.3-0.8-0.7c-0.4-4.6-4.7-8.2-9.8-8.2
		c-3.4,0-6.6,1.7-8.5,4.5l0,0l-0.1,0.2C809.7,125.4,806,127.4,802.1,127.3z"/>
	<path id="Trazado_1147_00000005247376287445267530000006537304010842932396_" class="st0" d="M802.1,124.5L802.1,124.5
		c-4.4,0-8-3.1-8.4-7c-0.1-0.5,0.3-0.9,0.8-0.9l0,0c0.4,0,0.7,0.3,0.8,0.7c0.4,3.1,3.3,5.6,6.8,5.6h0.1c3.5,0,6.4-2.4,6.8-5.6
		c0-0.4,0.4-0.7,0.8-0.7l0,0c0.5,0,0.8,0.4,0.8,0.9C810.1,121.5,806.5,124.5,802.1,124.5z"/>
	<path id="Trazado_1148_00000134214656397493550690000001083400802190032548_" class="st0" d="M802.1,121.8L802.1,121.8
		c-2.7,0-4.9-1.8-5.4-4.2c-0.1-0.5,0.3-0.9,0.7-0.9h0.1c0.4,0,0.7,0.3,0.7,0.6c0.3,1.6,1.9,2.9,3.8,2.9h0c1.9,0,3.5-1.2,3.8-2.9
		c0.1-0.4,0.4-0.6,0.7-0.6h0.1c0.5,0,0.8,0.4,0.7,0.9C807,120,804.8,121.8,802.1,121.8z"/>
</g>
</svg>
