<?xml version="1.0" encoding="utf-8"?>
<!-- Generator: Adobe Illustrator 26.4.1, SVG Export Plug-In . SVG Version: 6.00 Build 0)  -->
<svg version="1.1" id="Capa_1" xmlns="http://www.w3.org/2000/svg" xmlns:xlink="http://www.w3.org/1999/xlink" x="0px" y="0px"
	 viewBox="0 0 46 14" style="enable-background:new 0 0 46 14;" xml:space="preserve">
<style type="text/css">
	.st0{fill:#333333;}
</style>
<g>
	<path class="st0" d="M45.7,0.5c-0.4-0.2-0.9-0.2-1.1,0.2C39.7,7.8,31.6,12.1,23,12.1c-8.6,0-16.7-4.3-21.5-11.4
		C1.2,0.4,0.7,0.3,0.3,0.5C0,0.8-0.1,1.3,0.1,1.6C5.3,9.2,13.8,13.7,23,13.7c9.2,0,17.7-4.5,22.9-12.1C46.1,1.2,46,0.7,45.7,0.5z"/>
	<path class="st0" d="M23,10.6c1.9,0,3.5-1.6,3.5-3.5c0-1.3-1.1-6.8-3.5-6.8s-3.5,5.4-3.5,6.8C19.5,9,21.1,10.6,23,10.6z M23,1.9
		c0.7,0.1,1.9,3.5,1.9,5.2C24.9,8.1,24.1,9,23,9s-1.9-0.9-1.9-1.9C21.1,5.4,22.3,2,23,1.9z"/>
</g>
</svg>
