<?xml version="1.0" encoding="utf-8"?>
<!-- Generator: Adobe Illustrator 26.4.1, SVG Export Plug-In . SVG Version: 6.00 Build 0)  -->
<svg version="1.1" id="Capa_1" xmlns="http://www.w3.org/2000/svg" xmlns:xlink="http://www.w3.org/1999/xlink" x="0px" y="0px"
	 viewBox="0 0 46 18" style="enable-background:new 0 0 46 18;" xml:space="preserve">
<style type="text/css">
	.st0{fill:#333333;}
</style>
<path class="st0" d="M45.4,4.7L45,4.5C41,2.7,36,3,31.9,5.4c-3.8,2.2-6.4,6-6.9,10.3h-0.5l1.7-11.2c0,0,0,0,0,0
	c1-0.3,1.6-1.3,1.4-2.5c-0.2-0.8-0.8-1.5-1.6-1.6c-1.4-0.3-2.7,0.7-2.7,2.1c0,0.9,0.5,1.6,1.3,2c0,0,0,0,0,0l-1.7,11.3h-0.1
	l-1.2-8.4c0,0,0,0,0,0c0.9-0.4,1.5-1.4,1.2-2.4c-0.2-0.8-0.8-1.4-1.6-1.6C19.8,3,18.6,4,18.6,5.4c0,0.9,0.6,1.7,1.5,2c0,0,0,0,0,0
	l1.2,8.3h-0.2c-0.6-4.3-3.1-8.1-6.9-10.3C10,3,5,2.7,1,4.5L0.6,4.7L0,5l0.5,0.7C5.6,13.2,14,17.6,23,17.6c0,0,0,0,0,0
	c9,0,17.4-4.4,22.5-11.9L46,5L45.4,4.7z M25.4,1.9c0.3,0,0.6,0.3,0.6,0.6s-0.3,0.6-0.6,0.6c-0.3,0-0.6-0.3-0.6-0.6
	S25.1,1.9,25.4,1.9z M20.7,4.8c0.3,0,0.6,0.3,0.6,0.6c0,0.3-0.3,0.6-0.6,0.6c-0.3,0-0.6-0.3-0.6-0.6C20.1,5,20.4,4.8,20.7,4.8z
	 M2.4,5.7C2.4,5.7,2.4,5.7,2.4,5.7c3.4-1.3,7.5-0.9,11,1.1c3.4,1.9,5.6,5.3,6.1,9.1c0,0,0,0,0,0C12.7,14.9,6.5,11.3,2.4,5.7z
	 M26.5,15.8C26.5,15.8,26.5,15.8,26.5,15.8c0.5-3.8,2.8-7.2,6.1-9.1c2.1-1.2,4.5-1.8,6.8-1.8c1.5,0,2.9,0.2,4.2,0.8c0,0,0,0,0,0
	C39.5,11.3,33.3,14.9,26.5,15.8z"/>
</svg>
