<svg xmlns="http://www.w3.org/2000/svg" width="28.906" height="23.55" viewBox="0 0 28.906 23.55">
  <path id="Trazado_1019" data-name="Trazado 1019" d="M29.406,4.051a24.587,24.587,0,0,1-4.111,1.357c-1.536-1.733-3.813-1.829-6-1.01A5.389,5.389,0,0,0,15.7,9.518v1.37A12.87,12.87,0,0,1,4.741,5.408S-.99,15.593,10.222,20.481C7.657,22.189,5.1,23.342,2,23.221c4.533,2.471,9.473,3.32,13.749,2.079A15.079,15.079,0,0,0,26.233,14.691a18.965,18.965,0,0,0,.681-5.143c0-.341,2.069-3.8,2.491-5.5Z" transform="translate(-1.25 -3.108)" fill="none" stroke="#fff" stroke-linecap="round" stroke-linejoin="round" stroke-width="1.5"/>
</svg>
