<?xml version="1.0" encoding="utf-8"?>
<!-- Generator: Adobe Illustrator 26.4.1, SVG Export Plug-In . SVG Version: 6.00 Build 0)  -->
<svg version="1.1" id="Capa_1" xmlns="http://www.w3.org/2000/svg" xmlns:xlink="http://www.w3.org/1999/xlink" x="0px" y="0px"
	 viewBox="0 0 46 15" style="enable-background:new 0 0 46 15;" xml:space="preserve">
<style type="text/css">
	.st0{fill:#333333;}
</style>
<path class="st0" d="M45.4,1c-0.4-0.2-0.8-0.2-1.1,0.2c-0.2,0.3-0.5,0.7-0.7,1c-0.1-0.3-0.3-0.5-0.6-0.7c-0.5-0.4-1.2-0.7-1.8-0.6
	c-0.7,0-1.3,0.3-1.7,0.8c-0.7,0.8-0.8,1.8-0.4,2.7c-0.4-0.2-0.9-0.3-1.4-0.3c-0.7,0-1.3,0.3-1.7,0.8c-0.4,0.5-0.7,1.1-0.6,1.8
	c0,0.7,0.3,1.3,0.8,1.7c0.1,0.1,0.2,0.2,0.3,0.2C36.3,8.8,36.2,8.9,36,9c-0.1-0.6-0.3-1.2-0.8-1.7c-0.5-0.4-1.2-0.7-1.8-0.6
	c-0.7,0-1.3,0.3-1.7,0.8c-0.9,1-0.8,2.5,0.1,3.4C29,12,26,12.5,23,12.5c-8.5,0-16.5-4.2-21.3-11.3C1.4,0.9,0.9,0.8,0.6,1.1
	C0.2,1.3,0.1,1.8,0.4,2.2C5.5,9.6,13.9,14.1,23,14.1c9.1,0,17.5-4.5,22.6-12C45.9,1.8,45.8,1.3,45.4,1z M32.8,8.6
	c0.2-0.2,0.4-0.3,0.7-0.3c0,0,0,0,0.1,0c0.2,0,0.5,0.1,0.6,0.2c0.2,0.2,0.3,0.4,0.3,0.7c0,0.3-0.1,0.5-0.2,0.7
	c-0.2,0.2-0.4,0.3-0.7,0.3c-0.2,0-0.5-0.1-0.7-0.2C32.5,9.6,32.4,9,32.8,8.6z M40.7,2.8c0.2-0.2,0.4-0.3,0.7-0.3
	c0.2,0,0.4,0.1,0.6,0.2c0.4,0.3,0.4,0.9,0.1,1.3c-0.3,0.4-0.9,0.4-1.3,0.1C40.4,3.8,40.3,3.2,40.7,2.8z M37.2,6
	c0.2-0.2,0.4-0.3,0.6-0.3c0,0,0,0,0.1,0c0.2,0,0.5,0.1,0.6,0.2c0.4,0.3,0.4,0.9,0.1,1.3c-0.3,0.4-0.9,0.4-1.3,0.1
	c-0.2-0.2-0.3-0.4-0.3-0.7C36.9,6.4,37,6.2,37.2,6z M40.2,5.6c0.1,0,0.2,0.1,0.3,0.1c-0.1,0.1-0.1,0.1-0.2,0.2
	C40.2,5.8,40.2,5.7,40.2,5.6z"/>
</svg>
