<?xml version="1.0" encoding="utf-8"?>
<!-- Generator: Adobe Illustrator 26.4.1, SVG Export Plug-In . SVG Version: 6.00 Build 0)  -->
<svg version="1.1" id="Capa_1" xmlns="http://www.w3.org/2000/svg" xmlns:xlink="http://www.w3.org/1999/xlink" x="0px" y="0px"
	 viewBox="0 0 46 18" style="enable-background:new 0 0 46 18;" xml:space="preserve">
<style type="text/css">
	.st0{fill:#333333;}
</style>
<path class="st0" d="M45.7,0.6c-0.4-0.2-0.9-0.2-1.1,0.2c-3,4.3-7.1,7.6-11.8,9.5v-2c1.6,0,3.3-0.4,3.3-2.7c0-2.3-1.8-5.2-4.1-5.2
	s-4.1,2.8-4.1,5.2c0,2.3,1.7,2.6,3.3,2.7v2.6c-2.4,0.8-4.8,1.2-7.4,1.3V8.3c1.6,0,3.3-0.4,3.3-2.7c0-2.3-1.8-5.2-4.1-5.2
	s-4.1,2.8-4.1,5.2c0,2.3,1.7,2.6,3.3,2.7v3.9c-2.5-0.1-5-0.5-7.4-1.3V8.3c1.6,0,3.3-0.4,3.3-2.7c0-2.3-1.8-5.2-4.1-5.2
	S9.9,3.3,9.9,5.6c0,2.3,1.7,2.6,3.3,2.7v2C8.5,8.4,4.4,5.2,1.4,0.9C1.2,0.5,0.7,0.4,0.3,0.6C0,0.9-0.1,1.4,0.1,1.7
	C3.4,6.5,8,10.1,13.2,12v1.9c0,0.4,0.4,0.8,0.8,0.8s0.8-0.4,0.8-0.8v-1.4c2.4,0.7,4.9,1.1,7.4,1.2v2.9c0,0.4,0.4,0.8,0.8,0.8
	c0.4,0,0.8-0.4,0.8-0.8v-2.9c2.5-0.1,5-0.5,7.4-1.2v1.4c0,0.4,0.4,0.8,0.8,0.8c0.4,0,0.8-0.4,0.8-0.8V12c5.2-2,9.8-5.5,13.1-10.3
	C46.1,1.3,46,0.9,45.7,0.6z M29.4,5.6c0-1.5,1.3-3.6,2.6-3.6s2.6,2.1,2.6,3.6c0,0.9-0.3,1.1-2.6,1.1C29.7,6.7,29.4,6.5,29.4,5.6z
	 M11.5,5.6c0-1.5,1.3-3.6,2.6-3.6s2.6,2.1,2.6,3.6c0,0.9-0.3,1.1-2.6,1.1S11.5,6.5,11.5,5.6z M20.4,5.6c0-1.5,1.3-3.6,2.6-3.6
	c1.3,0,2.6,2.1,2.6,3.6c0,0.9-0.3,1.1-2.6,1.1S20.4,6.5,20.4,5.6z"/>
</svg>
