<svg xmlns="http://www.w3.org/2000/svg" width="44.89" height="12.62" viewBox="0 0 44.89 12.62">
  <g id="Grupo_2157" data-name="Grupo 2157" transform="translate(0 0)">
    <path id="Trazado_2307" data-name="Trazado 2307" d="M12.376,165.619c-6.5,0-11.853-4.676-12.37-10.6a.868.868,0,0,1,.863-.944.856.856,0,0,1,.854.782c.435,5.051,5.047,9.039,10.652,9.039a10.924,10.924,0,0,0,9.272-4.933l.158-.228A12.667,12.667,0,0,1,32.529,153c6.434,0,11.78,4.625,12.359,10.489a.868.868,0,0,1-.854.953.856.856,0,0,1-.863-.773c-.487-5-5.093-8.942-10.643-8.942a10.925,10.925,0,0,0-9.272,4.937l-.158.228a12.664,12.664,0,0,1-10.723,5.727" transform="translate(-0.003 -152.999)" fill="rgba(0,0,0,0.4)"/>
    <path id="Trazado_2308" data-name="Trazado 2308" d="M14.556,162.979l-.1-1.723a8.686,8.686,0,0,0,3.036-.73l.7,1.577a10.406,10.406,0,0,1-3.639.876m-1.405-.011a10.378,10.378,0,0,1-3.624-.935l.727-1.565a8.654,8.654,0,0,0,3.023.78Zm6.294-1.528-.914-1.464a7.848,7.848,0,0,0,1.776-1.5.863.863,0,0,1,1.3,1.137,9.58,9.58,0,0,1-2.162,1.829ZM8.29,161.349a9.523,9.523,0,0,1-2.7-2.624l1.425-.974a7.81,7.81,0,0,0,2.218,2.15Zm-3.414-3.864a8.613,8.613,0,0,1-.782-2.761.863.863,0,0,1,1.717-.176,6.922,6.922,0,0,0,.625,2.2Zm23.82-.121.914,1.464a7.851,7.851,0,0,0-1.777,1.5.862.862,0,0,1-1.3-1.137,9.563,9.563,0,0,1,2.162-1.829Z" transform="translate(-1.525 -153.289)" fill="rgba(0,0,0,0.4)"/>
    <path id="Trazado_2309" data-name="Trazado 2309" d="M58.354,166.444h0a.86.86,0,0,1-.854-.77,6.922,6.922,0,0,0-.625-2.2l1.561-.737a8.636,8.636,0,0,1,.781,2.762.863.863,0,0,1-.863.945M56.3,162.471a7.82,7.82,0,0,0-2.218-2.151l.941-1.448a9.54,9.54,0,0,1,2.7,2.624Zm-3.243-2.717a8.654,8.654,0,0,0-3.023-.78l.125-1.721a10.378,10.378,0,0,1,3.624.935Zm-7.24-.059-.7-1.577a10.4,10.4,0,0,1,3.639-.878l.1,1.723A8.675,8.675,0,0,0,45.817,159.7Z" transform="translate(-16.814 -154.579)" fill="rgba(0,0,0,0.4)"/>
  </g>
</svg>
