<?xml version="1.0" encoding="utf-8"?>
<!-- Generator: Adobe Illustrator 26.4.1, SVG Export Plug-In . SVG Version: 6.00 Build 0)  -->
<svg version="1.1" id="Capa_1" xmlns="http://www.w3.org/2000/svg" xmlns:xlink="http://www.w3.org/1999/xlink" x="0px" y="0px"
	 viewBox="0 0 46 15" style="enable-background:new 0 0 46 15;" xml:space="preserve">
<style type="text/css">
	.st0{fill:#333333;}
</style>
<path class="st0" d="M45.4,5C45.8,4.5,46,3.8,46,3.1c0-0.7-0.3-1.3-0.8-1.7C44.7,1,44,0.7,43.3,0.8c-0.7,0-1.3,0.3-1.7,0.8
	c-0.1,0.1-0.2,0.3-0.3,0.5c-0.4-0.2-0.9-0.3-1.3-0.3c-0.7,0-1.3,0.3-1.7,0.8c-0.4,0.5-0.7,1.1-0.6,1.8c0,0.7,0.3,1.3,0.8,1.7
	c0.2,0.2,0.5,0.4,0.8,0.5c-4.6,3.9-10.4,6-16.5,6c-8.5,0-16.5-4.2-21.3-11.2C1.2,1.1,0.7,1,0.3,1.2C0,1.5-0.1,1.9,0.1,2.3
	c5.1,7.5,13.5,11.9,22.6,11.9c6.6,0,12.9-2.3,17.8-6.6c0.1,0.4,0.4,0.7,0.7,1c0.5,0.4,1,0.6,1.7,0.6c0.1,0,0.1,0,0.2,0
	c0.7,0,1.3-0.3,1.7-0.8c0.8-0.9,0.8-2.2,0.2-3.1C45.1,5.2,45.2,5.1,45.4,5z M42.8,2.7c0.2-0.2,0.4-0.3,0.6-0.3c0,0,0,0,0.1,0
	c0.2,0,0.5,0.1,0.6,0.2c0.2,0.2,0.3,0.4,0.3,0.6c0,0.3-0.1,0.5-0.2,0.7c-0.2,0.2-0.4,0.3-0.6,0.3c-0.2,0-0.5-0.1-0.7-0.2
	c-0.2-0.2-0.3-0.4-0.3-0.6C42.5,3.1,42.6,2.9,42.8,2.7z M39.4,3.7c0.2-0.2,0.4-0.3,0.7-0.3c0.2,0,0.4,0.1,0.6,0.2
	C40.9,3.8,41,4,41.1,4.3c0,0.3-0.1,0.5-0.2,0.7c-0.3,0.4-0.9,0.4-1.3,0.1C39.1,4.7,39.1,4.1,39.4,3.7z M43.6,7.4
	c-0.2,0.2-0.4,0.3-0.6,0.3c-0.3,0-0.5-0.1-0.7-0.2c-0.2-0.2-0.3-0.4-0.3-0.6c0-0.3,0.1-0.5,0.2-0.7c0.2-0.2,0.4-0.3,0.6-0.3
	c0,0,0,0,0.1,0c0.2,0,0.5,0.1,0.6,0.2c0.2,0.2,0.3,0.4,0.3,0.6C43.8,7,43.7,7.2,43.6,7.4z"/>
</svg>
