<?xml version="1.0" encoding="utf-8"?>
<!-- Generator: Adobe Illustrator 26.4.1, SVG Export Plug-In . SVG Version: 6.00 Build 0)  -->
<svg version="1.1" id="Capa_1" xmlns="http://www.w3.org/2000/svg" xmlns:xlink="http://www.w3.org/1999/xlink" x="0px" y="0px"
	 viewBox="0 0 46 15" style="enable-background:new 0 0 46 15;" xml:space="preserve">
<style type="text/css">
	.st0{fill:#333333;}
</style>
<path class="st0" d="M45.2,6.5h-5v-5c0-0.4-0.3-0.8-0.8-0.8s-0.8,0.3-0.8,0.8v5h-5c-0.4,0-0.8,0.3-0.8,0.8s0.3,0.8,0.8,0.8h3.4
	c-4.3,3-9.4,4.6-14.5,4.6c-8.5,0-16.4-4.2-21.2-11.2C1.2,1.1,0.7,1,0.3,1.3C0,1.5-0.1,2,0.1,2.3c5.1,7.4,13.5,11.9,22.5,11.9
	c5.7,0,11.3-1.9,16.1-5.3v4.2c0,0.4,0.3,0.8,0.8,0.8s0.8-0.3,0.8-0.8v-5h5c0.4,0,0.8-0.3,0.8-0.8S45.7,6.5,45.2,6.5z"/>
</svg>
