<?xml version="1.0" encoding="utf-8"?>
<!-- Generator: Adobe Illustrator 26.4.1, SVG Export Plug-In . SVG Version: 6.00 Build 0)  -->
<svg version="1.1" id="Capa_1" xmlns="http://www.w3.org/2000/svg" xmlns:xlink="http://www.w3.org/1999/xlink" x="0px" y="0px"
	 viewBox="0 0 46 18" style="enable-background:new 0 0 46 18;" xml:space="preserve">
<style type="text/css">
	.st0{fill:#333333;}
</style>
<g>
	<path class="st0" d="M45.5,4.8c-0.4-0.2-0.9-0.2-1.1,0.2C39.6,12.1,31.6,16.4,23,16.4C14.4,16.4,6.4,12.1,1.6,5
		C1.3,4.7,0.8,4.6,0.5,4.8C0.1,5.1,0,5.6,0.3,5.9c5.1,7.5,13.6,12,22.7,12c9.1,0,17.6-4.5,22.8-12C46,5.5,45.9,5,45.5,4.8z"/>
	<path class="st0" d="M5.4,7.4c0.4,0,0.8-0.4,0.8-0.8V0.9c0-0.4-0.4-0.8-0.8-0.8S4.6,0.4,4.6,0.9v5.8C4.6,7.1,4.9,7.4,5.4,7.4z"/>
	<path class="st0" d="M11.2,12.5c0.4,0,0.8-0.4,0.8-0.8V5.9c0-0.4-0.4-0.8-0.8-0.8s-0.8,0.4-0.8,0.8v5.8
		C10.4,12.1,10.8,12.5,11.2,12.5z"/>
	<path class="st0" d="M17.1,15c0.4,0,0.8-0.4,0.8-0.8V8.4c0-0.4-0.4-0.8-0.8-0.8c-0.4,0-0.8,0.4-0.8,0.8v5.8
		C16.3,14.7,16.7,15,17.1,15z"/>
	<path class="st0" d="M23,15.6c0.4,0,0.8-0.4,0.8-0.8V9.1c0-0.4-0.4-0.8-0.8-0.8s-0.8,0.4-0.8,0.8v5.8C22.2,15.3,22.6,15.6,23,15.6z
		"/>
	<path class="st0" d="M28.9,15c0.4,0,0.8-0.4,0.8-0.8V8.4c0-0.4-0.4-0.8-0.8-0.8S28.1,8,28.1,8.4v5.8C28.1,14.7,28.4,15,28.9,15z"/>
	<path class="st0" d="M34.8,12.5c0.4,0,0.8-0.4,0.8-0.8V5.9c0-0.4-0.4-0.8-0.8-0.8c-0.4,0-0.8,0.4-0.8,0.8v5.8
		C34,12.1,34.3,12.5,34.8,12.5z"/>
	<path class="st0" d="M40.6,7.4c0.4,0,0.8-0.4,0.8-0.8V0.9c0-0.4-0.4-0.8-0.8-0.8c-0.4,0-0.8,0.4-0.8,0.8v5.8
		C39.9,7.1,40.2,7.4,40.6,7.4z"/>
</g>
</svg>
