<?xml version="1.0" encoding="utf-8"?>
<!-- Generator: Adobe Illustrator 26.4.1, SVG Export Plug-In . SVG Version: 6.00 Build 0)  -->
<svg version="1.1" id="Capa_1" xmlns="http://www.w3.org/2000/svg" xmlns:xlink="http://www.w3.org/1999/xlink" x="0px" y="0px"
	 viewBox="0 0 46 14" style="enable-background:new 0 0 46 14;" xml:space="preserve">
<style type="text/css">
	.st0{fill:#333333;}
</style>
<g>
	<path class="st0" d="M45.7,0.6c-0.4-0.2-0.9-0.2-1.1,0.2C39.7,8,31.6,12.2,23,12.2C14.4,12.2,6.3,8,1.4,0.9
		C1.2,0.5,0.7,0.4,0.3,0.7C0,0.9-0.1,1.4,0.1,1.8C5.3,9.3,13.8,13.8,23,13.8c9.2,0,17.7-4.5,22.9-12.1C46.1,1.4,46,0.9,45.7,0.6z"/>
	<path class="st0" d="M18.7,6.4c0.2,0,0.4-0.1,0.6-0.2L23,2.4l3.8,3.8c0.3,0.3,0.8,0.3,1.1,0s0.3-0.8,0-1.1L23,0.2l-4.9,4.9
		c-0.3,0.3-0.3,0.8,0,1.1C18.3,6.3,18.5,6.4,18.7,6.4z"/>
	<path class="st0" d="M19.2,10.3L23,6.6l3.8,3.8c0.2,0.2,0.4,0.2,0.6,0.2c0.2,0,0.4-0.1,0.6-0.2c0.3-0.3,0.3-0.8,0-1.1L23,4.3
		l-4.9,4.9c-0.3,0.3-0.3,0.8,0,1.1C18.4,10.7,18.9,10.7,19.2,10.3z"/>
</g>
</svg>
