<?xml version="1.0" encoding="utf-8"?>
<!-- Generator: Adobe Illustrator 26.4.1, SVG Export Plug-In . SVG Version: 6.00 Build 0)  -->
<svg version="1.1" id="Capa_1" xmlns="http://www.w3.org/2000/svg" xmlns:xlink="http://www.w3.org/1999/xlink" x="0px" y="0px"
	 viewBox="0 0 46 14" style="enable-background:new 0 0 46 14;" xml:space="preserve">
<style type="text/css">
	.st0{fill:#333333;}
</style>
<path id="Trazado_1650_00000061473453132303552880000004723687932742089911_" class="st0" d="M0.4,7.5c4.1,6.3,12.6,8.1,18.9,4
	c1.1-0.7,2.2-1.7,3-2.7c2.6,3.1,6.5,5,10.5,4.9c6.8,0,12.4-4.9,13.1-11.1c0.1-0.5-0.4-1-0.9-1h0c-0.5,0-0.9,0.3-0.9,0.8
	c-0.5,5.3-5.4,9.4-11.2,9.4c-3.9,0-7.6-1.9-9.8-5.2l-0.2-0.2c-2.5-3.8-6.8-6.1-11.3-6.1c-4.5,0-8.8,2.2-11.3,6L0,6.8L0.4,7.5z
	 M11.6,2.2c3.9,0,7.5,1.8,9.7,5c-2.2,3-5.7,4.7-9.4,4.7c-3.5,0-6.8-1.5-9.1-4.2C5,6.8,7.2,6.4,9.6,6.4c2,0,4,0.4,5.9,1.2l0.7-1.7
	C14.1,5,11.8,4.5,9.6,4.6H9.5c-2.1,0-4.2,0.3-6.2,1C5.5,3.4,8.5,2.1,11.6,2.2z"/>
</svg>
