<?xml version="1.0" encoding="utf-8"?>
<!-- Generator: Adobe Illustrator 26.4.1, SVG Export Plug-In . SVG Version: 6.00 Build 0)  -->
<svg version="1.1" id="Capa_1" xmlns="http://www.w3.org/2000/svg" xmlns:xlink="http://www.w3.org/1999/xlink" x="0px" y="0px"
	 viewBox="0 0 46 14" style="enable-background:new 0 0 46 14;" xml:space="preserve">
<style type="text/css">
	.st0{fill:#333333;}
</style>
<g>
	<path class="st0" d="M69.7,337.4c-0.9-0.2-1.7,0.4-1.9,1.2c-0.3,1.2-0.4,2.5-0.4,3.8c0,0.9,0.7,1.6,1.6,1.6h0
		c0.9,0,1.6-0.7,1.6-1.6c0-1,0.1-2.1,0.3-3.1C71.2,338.5,70.6,337.6,69.7,337.4z"/>
	<path class="st0" d="M76.1,327c-2.1,1.3-3.8,3-5.3,5c-0.2,0.3-0.3,0.6-0.3,1c0,0.4,0.2,0.8,0.5,1.2c0.3,0.3,0.7,0.5,1.2,0.5v0
		c0.5,0,1-0.3,1.3-0.7c1.2-1.7,2.7-3,4.4-4.1c0.7-0.5,0.9-1.5,0.5-2.2C77.8,326.8,76.8,326.5,76.1,327z"/>
	<path class="st0" d="M89.9,323.9c-2.4-0.3-4.8-0.1-7.2,0.4c-0.7,0.2-1.3,0.8-1.3,1.6c0,0.4,0.2,0.8,0.5,1.2
		c0.2,0.2,0.4,0.3,0.6,0.4l-0.1,0.1h0.6c0.1,0,0.2,0,0.4,0c2-0.4,4.1-0.6,6.1-0.3c0.4,0.1,0.9-0.1,1.2-0.3c0.3-0.3,0.6-0.7,0.6-1.1
		C91.5,324.8,90.8,324,89.9,323.9z"/>
	<path class="st0" d="M96.8,325.9c-0.8-0.4-1.8-0.1-2.2,0.7c-0.4,0.8-0.1,1.8,0.7,2.2c1.8,0.9,3.5,2.1,4.9,3.6
		c0.3,0.3,0.7,0.5,1.2,0.5c0,0,0,0,0,0c0.4,0,0.8-0.2,1.1-0.4c0.3-0.3,0.5-0.7,0.5-1.1c0-0.4-0.1-0.8-0.4-1.2
		C101,328.4,99,327,96.8,325.9z"/>
	<path class="st0" d="M111.5,339.2c-1.8-0.9-3.5-2.2-4.8-3.7c-0.6-0.7-1.6-0.7-2.3-0.1c-0.7,0.6-0.7,1.6-0.1,2.3
		c1.6,1.8,3.6,3.3,5.8,4.4c0.2,0.1,0.5,0.2,0.7,0.2V342l0,0l0,0.2c0,0,0,0,0,0c0.6,0,1.2-0.3,1.5-0.9c0.2-0.4,0.2-0.8,0.1-1.2
		S111.9,339.4,111.5,339.2z"/>
	<path class="st0" d="M135.8,334c-0.7-0.5-1.7-0.4-2.3,0.3c-1.2,1.6-2.7,3-4.4,4.1c-0.5,0.3-0.8,0.8-0.8,1.4c0,0.9,0.7,1.6,1.6,1.6
		c0,0,0,0,0,0v0c0.3,0,0.6-0.1,0.9-0.2c2.1-1.3,3.9-2.9,5.3-4.9C136.7,335.6,136.6,334.5,135.8,334z"/>
	<path class="st0" d="M124.7,340.9c-0.4-0.2-0.8-0.3-1.2-0.2c-2,0.4-4.1,0.5-6.1,0.3c-0.9-0.1-1.7,0.5-1.8,1.4
		c-0.1,0.9,0.5,1.7,1.4,1.8c0.9,0.1,1.8,0.2,2.7,0.2h0c0,0,0,0,0,0c1.5,0,3-0.2,4.5-0.5c0.4-0.1,0.8-0.3,1-0.7
		c0.2-0.4,0.3-0.8,0.2-1.2S125.1,341.2,124.7,340.9z"/>
	<path class="st0" d="M138.1,324.2c-0.9,0-1.6,0.7-1.6,1.6c0,1-0.1,2.1-0.4,3.1c0,0.1,0,0.2,0,0.4c0,0.9,0.7,1.6,1.6,1.6h0
		c0.8,0,1.4-0.5,1.6-1.3c0.3-1.2,0.4-2.5,0.4-3.8C139.7,325,139,324.2,138.1,324.2z"/>
</g>
<path class="st0" d="M138.8,377c0.2-0.7,0.3-1.4,0.4-2.1c0.1-1-0.7-1.8-1.7-1.8h0c-0.9,0-1.6,0.7-1.7,1.6c-0.1,0.5-0.1,1-0.3,1.5
	c-1.6,0.4-2.7,1.7-2.7,3.4c0,0.6,0.2,1.2,0.4,1.7c-1.9,2.8-4.8,4.9-8.3,6.1c-0.6-0.8-1.6-1.3-2.7-1.3c-1.5,0-2.7,0.9-3.2,2.2
	c-4.7,0-9.1-1.9-12.2-5.3c0.8-1.1,1.1-2.4,0.9-3.9c-0.3-1.8-1.7-3.3-3.4-3.8c-1.4-0.4-2.7-0.2-3.8,0.3c-2.9-2.3-6.3-3.8-10-4.4
	c-0.5-1.3-1.8-2.2-3.2-2.2c-1.5,0-2.8,1-3.3,2.3c-5.3,0.9-9.9,3.7-12.9,7.7c-1.9,0.1-3.3,1.6-3.3,3.5c0,0.7,0.2,1.4,0.6,1.9
	c-0.3,1-0.5,2-0.7,3.1c-0.1,1,0.7,1.9,1.7,1.9h0c0.9,0,1.6-0.6,1.7-1.5c0.1-0.6,0.2-1.3,0.4-1.9c1.9-0.1,3.3-1.6,3.3-3.5
	c0-0.7-0.2-1.4-0.6-1.9c2.5-3,6.1-5.2,10.3-5.9c0.6,0.8,1.6,1.3,2.7,1.3c1.1,0,2.2-0.6,2.8-1.4c3,0.4,5.8,1.6,8.1,3.5
	c-0.3,0.6-0.4,1.3-0.4,1.9c0,1.2,0.6,2.4,1.4,3.2c1.9,1.9,3.4,2,4.8,1.6c3.9,4.3,9.4,6.8,15.3,6.8c0.1,0,0.1,0,0.2,0
	c0.6,0.8,1.6,1.4,2.8,1.4c1.5,0,2.8-1,3.3-2.3c4.4-1.4,8.1-4.1,10.5-7.7c0.1,0,0.1,0,0.2,0c1.9,0,3.5-1.6,3.5-3.5
	C139.9,378.5,139.5,377.6,138.8,377z"/>
<g>
	<path class="st0" d="M44.9,1.7c-0.6,0-1,0.4-1.1,1c-0.5,4.9-5.1,8.8-10.6,8.8c-3.7,0-7.2-1.8-9.2-4.9l-0.2-0.2
		c-2.4-3.7-6.6-6-11.1-5.9C6.2,0.4,0.7,5,0,11c-0.1,0.6,0.4,1.2,1.1,1.2h0c0.6,0,1-0.4,1.1-1c0.6-4.9,5.1-8.7,10.6-8.7
		c3.7,0,7.2,1.8,9.2,4.9l0.2,0.2c2.4,3.7,6.6,6,11.1,5.9c6.6,0,12.1-4.7,12.8-10.8C46.1,2.2,45.5,1.7,44.9,1.7L44.9,1.7z"/>
	<path class="st0" d="M10.5,7C9.4,7,8.6,7.8,8.6,8.9c0,1.1,0.9,1.9,1.9,1.9s1.9-0.9,1.9-1.9C12.4,7.8,11.5,7,10.5,7z"/>
	<path class="st0" d="M15.6,7c-1.1,0-1.9,0.9-1.9,1.9c0,1.1,0.9,1.9,1.9,1.9c1.1,0,1.9-0.9,1.9-1.9C17.5,7.8,16.6,7,15.6,7z"/>
	<path class="st0" d="M30.8,7.5c1.1,0,1.9-0.9,1.9-1.9c0-1.1-0.9-1.9-1.9-1.9s-1.9,0.9-1.9,1.9C28.9,6.6,29.8,7.5,30.8,7.5z"/>
	<path class="st0" d="M35.9,7.5c1.1,0,1.9-0.9,1.9-1.9c0-1.1-0.9-1.9-1.9-1.9c-1.1,0-1.9,0.9-1.9,1.9C34,6.6,34.8,7.5,35.9,7.5z"/>
</g>
</svg>
