<?xml version="1.0" encoding="utf-8"?>
<!-- Generator: Adobe Illustrator 26.4.1, SVG Export Plug-In . SVG Version: 6.00 Build 0)  -->
<svg version="1.1" id="Capa_1" xmlns="http://www.w3.org/2000/svg" xmlns:xlink="http://www.w3.org/1999/xlink" x="0px" y="0px"
	 viewBox="0 0 46 17" style="enable-background:new 0 0 46 17;" xml:space="preserve">
<style type="text/css">
	.st0{fill:#333333;}
</style>
<path class="st0" d="M45.4,8.9l-5.1-1.1c2.1-1.7,4-3.7,5.6-6c0.2-0.4,0.2-0.9-0.2-1.1c-0.4-0.2-0.9-0.2-1.1,0.2
	C43.1,3,41.3,5,39.2,6.6V1.3c0-0.4-0.4-0.8-0.8-0.8s-0.8,0.4-0.8,0.8v6.4c-1.2,0.8-2.4,1.5-3.7,2.1V4.2c0-0.4-0.4-0.8-0.8-0.8
	s-0.8,0.4-0.8,0.8v6.3c-1.5,0.6-3.1,1-4.8,1.3V5.9c0-0.4-0.4-0.8-0.8-0.8S26,5.5,26,5.9v6.2c-1,0.1-2,0.2-3,0.2
	C14.4,12.3,6.3,8,1.5,0.9C1.2,0.5,0.7,0.4,0.4,0.7C0,0.9-0.1,1.4,0.1,1.8C5.3,9.3,13.9,13.8,23,13.8c1.3,0,2.5-0.1,3.7-0.3l6.4,2.9
	c0.1,0,0.2,0.1,0.3,0.1c0.3,0,0.6-0.2,0.7-0.5c0.2-0.4,0-0.9-0.4-1l-4.3-1.9c1.3-0.3,2.5-0.7,3.7-1.2l6.5,1.8c0.1,0,0.1,0,0.2,0
	c0.3,0,0.7-0.2,0.8-0.6c0.1-0.4-0.1-0.9-0.6-1l-4.7-1.3c1.1-0.6,2.2-1.2,3.2-1.9l6.4,1.4c0.1,0,0.1,0,0.2,0c0.4,0,0.7-0.3,0.8-0.6
	C46.1,9.4,45.8,9,45.4,8.9z"/>
</svg>
