<?xml version="1.0" encoding="utf-8"?>
<!-- Generator: Adobe Illustrator 26.5.0, SVG Export Plug-In . SVG Version: 6.00 Build 0)  -->
<svg version="1.1" id="Capa_2" xmlns="http://www.w3.org/2000/svg" xmlns:xlink="http://www.w3.org/1999/xlink" x="0px" y="0px"
	 viewBox="0 0 1223.2 794" style="enable-background:new 0 0 1223.2 794;" xml:space="preserve">
<style type="text/css">
	.st0{fill:#B3CFC0;stroke:#00634B;stroke-width:0.8;stroke-miterlimit:10;}
	.st1{fill:#FFFFFF;}
	.st2{fill:#C7F789;}
	.st3{fill:#B3CFC0;}
</style>
<g>
	<g>
		<path class="st0" d="M805.8,92.2l-3.9,0.1l-3.2,0.3h-0.7l-5.4-1.4l-6-2.7l-3.4-0.9l-1.5-1.3l-3.3-1.5l-1.3-1.7l-0.8-1.2l-3.3-1.7
			l-1.9-0.5l-1-0.2h-1h-0.8l-1.8-0.4l-1.9-0.2l-1.2,0.4l-1,0.5l-1.7,0.8l-2,0.4l-2.7-0.2l-2.5,0.3l-1.3,0.7l-1.7,0h-2l-1.7-0.4
			l-1.7-0.5l-0.8-0.7l-1-1.2h-0.7l-2-0.8l-1.8,0.5l-2.2,3.7l-1.5,2l-1.7,3.7l-1.7,2.5l-1,1.5l-1.5,1l-1.5,1.2l-1.9,0.7l-1.8,1.2
			l-1.2,0.2l-1.5,0.1l-2,0.2l0.2-1.5v-1.5l0.2-1.9l0.2-0.8l-0.3-0.8l-1.3-1.7H717l-2.2-0.2l-1.7,0.2l-1.8,1.2l-1.2,1.3l-1.3,3.7
			l-1.8,3.7l-1,2.8l-2.2,4.7l-1.3,2.9l-2.7,4l-1.2,1.5l-2.4,2.7l-1.5,2.2l-3,1.2l-2.5,1.5l-2.7,1.3l-2,1.7l-1.7,0.8l-3.3,2.2l-2.5,0
			h-2.2l-2.5-0.5l-3.5-1l-1.8-1.2l-2-1.7l-4.2-1.2l0.4-1.2l-2.7-0.5l-1.5-1l-3.4-0.7l-1.7-1.2l-2.2-0.2l-1.5-0.4l-1,6.5l2.4,5.1
			l0.3,2.4l0.2,4.4l0.3,3l5.9,0.5l3.7,0.4l3.5,0l3.7,0.4h1.3l2.5,0.4l3.7,0.7l2,0.5l2.8,0.5l4.9,0.3l2,0h3.2l3.7-0.5l3.2-0.5
			l2.4,0.2l3.2,4.9l1.5,4.6l2.9,4.4l1.8,4.5l0.8,3.5l0.8,5.4l1,5.5l0.7,3.2l0.7,1.9v2.7l1.3-0.3h2.2l2,0.5l3.4,0.3l4,0.4h1.8
			l3.5-2.8l2.4-2.2l2.7-2.5l2.8-0.5l2.2-1.8l1.3-1.3l3.7-0.2l2.9,0.5l3.2,0.2l3.3,0.4l5.7,0l5.7-1.7l2.2-0.5l4.4-0.6l3.3-0.7
			l3.7-1.7l1.5-2.7l2-3.7l0.8-2.4l2.2-4.4l0.4-3.3l1.7-5.9l0.3-2.7l0.8-3l2.2-3.7l0.8-4l1.5-3l2.5-4.2l1.5-5.7l3.3-2.8L805.8,92.2
			L805.8,92.2z"/>
		<path class="st0" d="M650.3,138.4l1.2,6.2l1,5.4l-0.5,4.9l0.2,4.4l-0.5,2.8l-0.8,3.5l-0.5,2.7v0.8v5.9l-0.5,3.5l-0.8,3.4l1.2,5.2
			l0.2,3.2l-0.7,6.2l-0.5,2.8l-3.5,3.8l-4.4,3.3l-2.2,3.7l0.4,0.5l-0.3,0.5l-1.4,2.5l-1,3.2l-0.7,3.5l0.5,4.5l1.3,5.5l0.2,3.5
			l0.5,2.9l5.7-1.7l3.3-1.5l2.5-1.5l4.2-0.5l3.5-0.6l3.5-0.3l3-0.7l2.8,0.5l5,3.2l4.7,2l4.7-1l8.1-4.2l5.2-1.7l1.9-2.5l-0.7-2.3
			l-3-2.9l-3.9-3.9l-2-5.2v-2.7l1.8-2l4.9-2.2l2.4-1.5l1.3-0.5l0.8-1.2l1.3-3l-1.5-2.4l1.7-4.4l4.2-3.3l3-1l2.5-2l1.7-3.5l0.8-0.8
			v-2.7l-0.7-1.9l-0.7-3.2l-1-5.5l-0.8-5.4l-0.8-3.5l-1.8-4.5l-2.9-4.4l-1.5-4.6l-3.2-4.9l-2.4-0.2l-3.2,0.5l-3.7,0.5h-3.2l-2,0
			l-4.9-0.3l-2.8-0.5l-2-0.5l-3.7-0.7l-2.5-0.4h-1.3l-3.7-0.4l-3.5,0l-3.7-0.4C656.2,138.9,650.3,138.4,650.3,138.4z"/>
		<path class="st0" d="M712.2,181.8l-0.8,0.8l-1.7,3.5l-2.5,2l-3,1l-4.2,3.3l-1.7,4.4l1.5,2.4l-1.3,3l-0.8,1.2l-1.3,0.5l-2.4,1.5
			l-4.9,2.2l-1.8,2v2.7l2,5.2l3.9,3.9l3,2.9l0.7,2.3l-1.9,2.5l-5.2,1.7l-8.1,4.2l-4.7,1l-2.4,1.8l-2.5,2.7l-0.8,1.2l-0.7,1.3
			l1.3,1.3l-0.8,4.4l-0.7,2.2l2,2l1.4,3.5l-1.2,2.2l0.7,2h1.7l2.7,0.8l6.4,0.9l2.4,2.7l2.5,2.7l3,3.2l2,1l3.5,1.2l1.2,1.5l-0.3,6.9
			l0.8-0.2l1.9-0.7l5-3.2l2-0.5l2.4-2.6l0.9-3.7v-4.9l-1-3v-3.5v-3l2.2-1.7l1.3,0.3l1.3,0.7l6,2h2.7l3,0l4.7-0.5l3.7-0.2l2.8-2.4
			l5.3-4.5l3.2-2.3l4.4-4.5l3.3-3.8l1.3-3.2l1.3-3.7l0.5-4.9l0.8-6l1.2-5.7l0.5-6.2l1.5-6.2l2.2-5.9l1.5-4.5l2.5-4.5l3.2-3.5
			l2.2-3.5l0.7-1.9l2.2-4.3l1.9-3.5l2-4.5l-3.7,1.7l-3.3,0.7l-4.4,0.6l-2.2,0.5l-5.7,1.7l-5.7,0l-3.3-0.4l-3.2-0.2l-2.9-0.5
			l-3.7,0.2l-1.3,1.3l-2.2,1.8l-2.8,0.5l-2.7,2.5l-2.4,2.2l-3.5,2.8h-1.8l-4-0.4l-3.4-0.3l-2-0.5h-2.2L712.2,181.8L712.2,181.8z"/>
		<path class="st0" d="M569.4,212.2l-1.3,1.3l-1.5,2.2l-1.5,2l-1.3,0.8h-3.4l-1.7,2.3l3.2,7.6l4.4,4.5l5.7,6.7l2.2,2.5l2.2,1.9
			l2.2,3l1.5,2l2,3.2l0.5,1.5l11.4-8.2l-2.7-4V239l-1.2-2.7l-0.8-2.5l-1.2-2.5l-1.4-2.5l-1.8-3.5l-2.5-1.5l-1.8-1L569.4,212.2z"/>
		<path class="st0" d="M638.7,236.9l-0.5,2.5l-0.7,0.8l2.2,0.3l3.5,1.9l3.2,1.4l3,2.9l1.8,4.5l1.3,1.9l1.5,2.7l2.9,1.9l1.2-1
			l2.3-1.7l3.2-4l2-2.5l3.5-2.9l1.5-2.7l0.7-1.3l0.8-1.2l2.5-2.7l2.4-1.8l-4.7-2l-5-3.2l-2.8-0.5l-3,0.7l-3.5,0.3l-3.5,0.6l-4.2,0.5
			l-2.5,1.5l-3.3,1.5L638.7,236.9L638.7,236.9z"/>
		<path class="st0" d="M629.8,242.2l4.9,8.7v1.2l1.2,2.5l0.7,2.9l2.2,1.9l2,2l2,2.9l1.8,1.9l2.7,1.9l2.2,1.7l1.7,3l1.2,2.4l1.9,1.2
			l0.3-1.2l0.5-1.5l0.5-1.2l0.3-1.7l0.3-2l0.7-2.8l0.5-3.3v-1.9l-0.3-3l-2.9-1.9l-1.5-2.7l-1.3-1.9l-1.8-4.5l-3-2.9l-3.2-1.4
			l-3.5-1.9l-2.2-0.3l-2.3-0.4l-1.3,2l-0.7-0.2l-1.8,0.1L629.8,242.2L629.8,242.2z"/>
		<path class="st0" d="M629.8,242.2l-1,1.8l-1.5,1l-1.9,1.2l-2,1.5l-1.2,1.9l-1.3,1.2l-1.3,1.2l-1,0.8l-1.7,1.2l-1.4,1.2l3.7,4.2
			l1,1.4l0.5,1.2l1,2.4l1.3,3.2l1,1.7l1.7,3.2l0.4,3.9l0.5,3l0.7,3l0.5,2.2l1.7,1l0.8,0.5l2.7-0.1l3-3.7l3.9-0.2l1.8,1l4,0.9
			l3.5-0.2l5.3,0l1.5,0.8l-2-8.2l-1.9-1.2l-1.2-2.4l-1.7-3l-2.2-1.7l-2.7-1.9l-1.8-1.9l-2-2.9l-2-2l-2.2-1.9l-0.7-2.9l-1.2-2.5V251
			L629.8,242.2L629.8,242.2z"/>
		<path class="st0" d="M670.7,242.9l-1.5,2.7l-3.5,2.9l-2,2.5l-3.2,4l-2.3,1.7l-1.2,1l0.3,3v1.9l-0.5,3.3l-0.7,2.8l-0.3,2l-0.3,1.7
			l-0.5,1.2l-0.5,1.5l-0.3,1.2l2.5-1.8l1.3-1.5l2.5-1.5l2.2-1.7l1.8-3.2l1.5-0.7l2.3-2.3l2.2-1.8l1.5-1l1.3-0.1l-0.7-2l1.2-2.2
			l-1.4-3.5l-2-2l0.7-2.2l0.8-4.4L670.7,242.9L670.7,242.9z"/>
		<path class="st0" d="M582.5,253.9l-0.2,4l-0.7,3l-0.3,2.2l-0.5,2l0.2,1.7l-0.2,2.7l-0.3,1v0.7l8.2,1l1,0l1.7,0.8h2l2.5,0.4h2
			l2.7-0.2l3.3-0.3l1.2-2.7l-1.5-4l-0.8-4.4l0.1-3.3l-1.3-2.9l-1.2-2.2l-0.5-1l-0.5-1.5l-0.8-1.5l-0.5-0.3l-0.5-0.3l-0.5-0.8l-1-0.7
			l-0.5-0.8l-0.8-0.5l-0.8-0.2L582.5,253.9L582.5,253.9z"/>
		<path class="st0" d="M615.5,255.1l-2.2,1l-1.4,0.1l-1.7,0.5l-0.8,0.2l-2.5-0.4l-2.4,0.5h-1.3l-1.7-1.4l1.3,2.9l-0.1,3.3l0.8,4.4
			l1.5,4L604,273l-0.5,2.7l1,4l1.2,4.7l1.7,6.9l1,3.9l0.7,5.4l-0.5,2.5l-0.7,2.4l-0.1,1.7l-1.9,4l1.5,5.6l1.7,3.7l0.7,1.5l-0.3,5.1
			l1.7-1.9l2.2-1.8l2.5-2.2l2.2-2.5l2-2.2l2.8-3.5l2.2-5.2l3.2-6.5l0.5-4.5l0.2-5.7v-3.5l0.7-2l-1.7-1l-0.5-2.2l-0.7-3l-0.5-3
			l-0.4-3.9l-1.7-3.2l-1-1.7l-1.3-3.2l-1-2.4l-0.5-1.2l-1-1.4L615.5,255.1L615.5,255.1z"/>
		<path class="st0" d="M654.1,276.2l2,8.2l0.2,1.9l2.4,2.4l1,1.9l2.2,3.7l0.8,1.3l0.3,2.2l0.7,0.7l4.4,2.2l3,1.7l4,1.5l1.8,0.5
			l2.2,0.3l0.7,1.4l1.9-3.6l2.3-4.2l3-3.9l1.2-3.3l3.2-3.2l3-3.5l4-3l0.3-6.9l-1.2-1.5l-3.5-1.2l-2-1l-3-3.2l-2.5-2.7l-2.4-2.7
			l-6.4-0.9l-2.7-0.8h-1.7l-1.3,0.1l-1.5,1l-2.2,1.8l-2.3,2.3l-1.5,0.7l-1.8,3.2l-2.2,1.7l-2.5,1.5l-1.3,1.5L654.1,276.2
			L654.1,276.2z"/>
		<path class="st0" d="M604,273l-3.3,0.3l-2.7,0.2h-2l-2.5-0.4h-2l-1.7-0.8l-1,0l-8.2-1l-1.5,6l-1.5,5.2l-2.2,4.5l-1.7,5l0.8,4
			l0.2,3.8l6.5,2.7l2.8-0.5h2.7l2.4,1.5l2.2,1.2l2.3,0l2.4,2.4l1,1.7l3.2-0.2l2-0.8l3.4-1.7l2.2,0.8l0.1-1.7l0.7-2.4l0.5-2.5
			l-0.7-5.4l-1-3.9l-1.7-6.9l-1.2-4.7l-1-4L604,273L604,273z"/>
		<path class="st0" d="M656.1,284.4l-1.5-0.8l-5.3,0l-3.5,0.2l-4-0.9l-1.8-1L636,282l-3,3.7l-2.7,0.1l-0.8-0.5l-0.7,2v3.5l-0.2,5.7
			l-0.5,4.5l-3.2,6.5l-2.2,5.2l-2.8,3.5l-2,2.2l-2.2,2.5l-2.5,2.2l-2.2,1.8l-1.7,1.9l3-0.5l2.5,0.2l2.5,1.9l3.5,0.8l4.7,0.9l3.3,0.4
			l3.2,2.5l2.2,1.7h1.2l2.4-3.7l3.7-6.9l1.3-1.7l2.4-2.8l0.4-1.5v-2l2.8-3.5l3.5-2.6l1.7-0.7l0.5-1.9l0.8-1.8l3-2.4l1.6-1.7l2.5-1.2
			l0.8-2.7l-0.3-2.2l-0.8-1.3l-2.2-3.7l-1-1.9l-2.4-2.4L656.1,284.4L656.1,284.4z"/>
		<path class="st0" d="M663,297.7l-0.8,2.7l-2.5,1.2l-1.6,1.7l-3,2.4l-0.8,1.8l-0.5,1.9l-1.7,0.7l-3.5,2.6l-2.8,3.5v2l-0.4,1.5
			l-2.4,2.8l-1.3,1.7l-3.7,6.9l-2.4,3.7l1.3,0.5l3.2,2l1.5,1l1.8,1l2,1.7l1.5,2.5l1,3.7v3.2l0.2,2.9l0.2,2.9l-1.5,2.8l-4,3.3
			l-0.7,1.5l-0.5,0.5l-0.2,2.2l1.2,5.7v2.2v4.5l2.2,3.7l4.9,2.2l4.9,3l2.4,1.7l3.9,3.4l3.7,3.2l2.8,5.6l3.2,0.8l1.5,1.5l3.5,5.9
			l1.5,2.7l0.7,1.5l1.5,0.2l1.3-1.2l1.7-2.7l1.3-2l1-6l1.3-5.5l0.8-5l0.8-4l1.5-5.5l1-2.7l0.7-3.7l2.2-5.5l1-2.5l1.7-3.4l1.5-1.8
			l0.8-1.5l0.3-2.7l-1.7-1.4h-1.9l-1.8-0.2l-1.8-0.3l-2-1.7l-1.5-2.4l-0.5-1.5l-1.5-1.3l-1-2.5l-0.8-2.9l-2.9-8.2l-2.2-4.4l-2.2-4
			l0.3-3.9l1.3-3l2.2-2.9l-0.2-3.9l0.5-3l-0.3-3.9l-0.5-1.1l-0.7-1.4l-2.2-0.3l-1.8-0.5l-4-1.5l-3-1.7l-4.4-2.2L663,297.7L663,297.7
			z"/>
		<path class="st0" d="M607.7,307.1l-2.2-0.8l-3.4,1.7l-2,0.8l-3.2,0.2l-1-1.7l-2.4-2.4l-2.3,0l-2.2-1.2l-2.4-1.5h-2.7l-2.8,0.5
			l-6.5-2.7l-1.3,6l-0.2,3.9l-1.5,3.5l-5,5.9l-4.2,2.5l-2.2,1.7l-2,2.4l-1.5,2.3l-2.9,3.5l-3.5,2l-2.4,1.8l-2,1.3l7.4,4.2l0.7,0.5
			l5.3-1.2l6.2-0.5l6.4-3.8l4.7,0.2l2.5,2.7l3-0.8h3.9l0.8-1.2l5.9,0l1-3.5l6.2-0.7l2.7,0l4.4,1.4l2.4-0.3l-0.2-2.7v-1.5l0.2-1.5
			v-1.2l0.3-5.1l-0.7-1.5l-1.7-3.7l-1.5-5.6L607.7,307.1L607.7,307.1z"/>
		<path class="st0" d="M60.7,305.1l-1.2-2.1l-1.5,0.5l-1.7,0.5l-2.5,4.4l-0.8,0.5l-2.2,3.4l-2,3.5l-2.7,3.8l-0.8,3.9l-1,4.9v2.9
			l-1.5,3.7l-2.7,4.2l-2,6l-0.2,5l1.7,3.9l3,2.5l0.8,1l1.2,1.5l1.5,0.2l2.3,0.3l1.2,0.5l0.7,2.8l-1.2,1.5l-0.8,2l-1.2,1.2l-0.8,0.8
			l-1,2.2l-0.3,2.2l1,1.9l2.7,2.5l1.2,2l0.5,2.7v1l-1,2l-3.2,1.3l-2.7,1l-2.2,0.8l-2.2,1.5l0.2,5.4v2.5l1.2,2.9l1.2,2.7l2.7,4.9
			l-0.3,1.5l-4.2,1.8l-3.5,1.7l-2.2,1.3l-2.4,0.8l-2.7,3.7l0.2,2.2l-0.8,1.8l-0.3,0.7l0.2,3.2l-1.2,2.7l-1.7,6.7l-0.3,5.2v5v1h2.2
			l3,1.5l2.4,1.3l2.3,1.7l2.7,1.7L42,453l2.5-0.8l3.7-0.3l1.3-0.7l1.2-0.8l0.8-1.9l1.8-1.7l2.2-0.3l1.5-0.2l1.2-1.3l1.2-1.9l4,0.2
			l0.3,2.8l4,0l2.4-1.3l2,1.3l3.7-0.5l1-0.1l1.2,2.2l2.5,1.4l2.5,0.2L85,451l2.5-1.2l2.8-1.7l1.7-0.7l1.3-1l2.2-0.3l4.7-1.3l2.3-1.8
			l1.5-2.5l3.2-2.2l1.3-0.8l1.8-2.8l2.2-2.7l1.3-1.5l4.2-1.3l1.9,4.5l0.3,0.8l1.5,1.5l1.8,3.5l0.2,2.4l2.4-0.7l1.5-2.7l1.8-0.7
			l3.5-5.5l0.8-1.9l1.3-1.8l2.5-1.3l2.8-1.8l1.5-0.3l4.5-2.7l-0.7-2.7l-0.5-2l-0.1-3.2l-0.5-4l-0.3-1.9l-0.2-0.8l0.2-0.7l0.7-2.5
			l0.7-3.2l-0.5-1.5l-3.5-1.4l-4.2-2.4l-1-2.4l-0.3-3.7v-2.7l0.7-2.4l0.7-2.4l0.2-3.2l-1-2.7v-3.3v-3.7v-4.4l-0.5-3l-3.7-3.2
			l-4.7,0.8l-4.4,2.5l-1.8,3l-2.7,2.7l-4.4,1.2l-6.5,1l-2.9-0.2l-4.5-0.9l-1.8-1.7l-1-2.9l-1.7-1.2l-3.2-0.5l-4.2-0.9l-2.5-1.8
			l-3.5-3.7l-0.8-2l-0.7-3.9v-3.4V344l-1.2-1.9l-1.2-1.7l-1.8-2.9l-2.5-7.4l-0.2-4.2l0.2-2.4l-0.3-2.5l-2.5-2.2l-3.9-2.7l-3-3.4
			l-2.4-3.9l-1.2-3.1L60.7,305.1L60.7,305.1z"/>
		<path class="st0" d="M609.4,333.8v1.7l-0.4,1.3l-0.7,2.2l-1,1.7l-0.7,1.8l1.7,0.3l3.7,2.4l6.9,4.6l2.2,4.2l3,2.7h1.4l2.2,0
			l3.2,2.5l1.9,1.5l2.3,1.2l3.4,1l1.8,1.2l1.3,0.2l0.5-0.5l0.7-1.5l4-3.3l1.5-2.8l-0.2-2.9l-0.2-2.9v-3.2l-1-3.7l-1.5-2.5l-2-1.7
			l-1.8-1l-1.5-1l-3.2-2l-1.3-0.5h-1.2l-2.2-1.7l-3.2-2.5l-3.3-0.4l-4.7-0.9l-3.5-0.8l-2.5-1.9l-2.5-0.2l-3,0.5v1.2l-0.2,1.5v1.5
			L609.4,333.8L609.4,333.8z"/>
		<path class="st0" d="M609.4,333.8l-2.4,0.3l-4.4-1.4l-2.7,0l-6.2,0.7l-1,3.5l-5.9,0l-0.8,1.2h-3.9l-3,0.8l-2.5-2.7L572,336
			l-6.4,3.8l-6.2,0.5l-5.3,1.2l0.8,0.6l1.4,3l-0.4,3.4l1.5,3.2l2.2,2.8l1.3,1.7l0.8,0.8l0.7-0.1l2.7-0.7l3.9-0.1h5l5.3,0l4.2-0.1
			l3.4-0.3l2.7-0.8l4,0h1.3l1.5,5.6l3,0.7l3.7-2.8l0.5-2.5l0.7-2.8v-3.2l1-2.5l0.3-2.8l1-1.9l0.7-1.8l1-1.7l0.7-2.2l0.4-1.3V333.8
			L609.4,333.8z"/>
		<path class="st0" d="M554.1,341.5l-0.7-0.5l-7.4-4.2l-2.4,3.2l-1.8,2.8l-2.4,1.3l-0.5,1l-1.3,2.2l-0.7,0.2l-1.3,0.3l-0.5,0.5
			l-2.2,4.7l-1.5,1l-1.7,3.3l-1.5,1.3l-1.2,1.3l3.2,4l1.4,3.5l1.3,2.2l2.5,3.4l3.2,2.9l2.4,2.7l2.2,2.7l2.7,2l5.9,0.2l2.7,0.2h2h1.7
			l2.2-0.5l-0.2-1.8l-0.4-3.2l0.4-2.5l1-2.7l0.2-2.8l-0.2-3.2l-0.3-3.5l-0.5-0.8l0.2-3l0.5-1.7l0.8-0.8l-0.8-0.8l-1.3-1.7l-2.2-2.8
			l-1.5-3.2l0.4-3.4l-1.4-3L554.1,341.5L554.1,341.5z"/>
		<path class="st0" d="M603.2,358.3l1.3,1l1.5,1.7l0.7,3.2l-0.8,3.5l-1,6.2l1.7,4l0.2,6.2l-1.2,2.7l1.5,2l2.7,2.5l2.5,2.8l1.2,4.4
			l0.8,4l-2.2,3.4l-0.2,3l2.2,1.3l0.7,2.4l0.5,1.5l-0.2,2.4l-0.5,3.5l-0.5,2.5l-0.7,3.7l0.3,2.4l-0.2,1.7l-2,3.9v2.8l0.7,2.7
			l0.2,0.7l1,4.7l1.2,2.5l0.5,1.7l0.2,1.9l-0.8,1.2l-1.7,1.5l-0.3,0.5l-0.6-0.1l0.1,0.8l3.2-0.2l3.2-0.3l4.4-0.7l3.2,0l2.4-0.2
			l6.7-3.1l3.2-4.4l3.2-2.4l4.4-0.6l3.5,0.4l4.4-2.2l1.7-3.7l0.3-3.9l1.2-2.5l2.8-1.8l4.9-2.8l0.2-1.3l1.8-1.3l1.9-2.4l1.8-2.8
			l2.7-3.3l4.9-1.3l-0.7-1.5l-1.5-2.7l-3.5-5.9l-1.5-1.5l-3.2-0.8l-2.8-5.6l-3.7-3.2l-3.9-3.4l-2.4-1.7l-4.9-3l-4.9-2.2l-2.2-3.7
			v-4.5v-2.2l-1.2-5.7l0.2-2.2l-1.3-0.2l-1.8-1.2l-3.4-1l-2.3-1.2l-1.9-1.5l-3.2-2.5l-2.2,0h-1.4l-3-2.7l-2.2-4.2l-6.9-4.6l-3.7-2.4
			l-1.7-0.3l-1,1.9l-0.3,2.8l-1,2.5v3.2l-0.7,2.8L603.2,358.3L603.2,358.3z"/>
		<path class="st0" d="M377,360.5l-3.7-2.5l-2.5-0.8l-3-0.5l-1.7-0.8l-1.2-1.4l-0.8-2.2l-1.5-1.3l-1-0.2l-2.5,0.2l-2.2-1.3l-1.8,3.2
			l-2.9,4.4l-0.5,1.2l-1.2,2.4l-0.7,1.5l-1,1.5l1.2,1.3l2.2,4.2l1.2,4.2l1.9,1.7l3.5-2.2l3.5,0.2l0.8,1.5l7.7,1.9l1-0.2l1.2-2.3
			l0.8-2l1.3-1.7l2-3.2l1.7-2.8L377,360.5L377,360.5z"/>
		<path class="st0" d="M562.5,357l3.9,2l6.2,2.2l3.9,0.9l4,0.2l2.4,1l1,5.9l0.8,2.2l1.2,3l2,0.4l1.5,1.7l0.5,1l4-1.7l2.4-2.5l1.2-3
			l1.7-2l1.5-1.8l2.7-8.1l-3.7,2.8l-3-0.7l-1.5-5.6h-1.3l-4,0l-2.7,0.8l-3.4,0.3l-4.2,0.1l-5.3,0h-5l-3.9,0.1L562.5,357L562.5,357z"
			/>
		<path class="st0" d="M561.8,357.1l-0.8,0.8l-0.5,1.7l-0.2,3l0.5,0.8l0.3,3.5l0.2,3.2l-0.2,2.8l-1,2.7l-0.4,2.5l0.4,3.2l0.2,1.8
			l0.3,0.8l2.2,1l2.4,1.9l1.2,2.5l-1.2,0.8l-0.8,0.8l2,0.4l1.4,0.5l2.3,0.3l0.8,0.7l12.9,0.1l0.3-2.2l0.3-1.5l0.5-1.9l0.5-3l1.3-1.8
			l2.4-2.4l0.7-3l-0.5-1l-1.5-1.7l-2-0.4l-1.2-3l-0.8-2.2l-1-5.9l-2.4-1l-4-0.2l-3.9-0.9l-6.2-2.2l-3.9-2L561.8,357.1L561.8,357.1z"
			/>
		<path class="st0" d="M589.8,377.4l-0.7,3l-2.4,2.4l-1.3,1.8l-0.5,3l-0.5,1.9l-0.3,1.5l-0.3,2.2l-0.3,2.7l0.7,2.8v2.7l1.2,4.2
			l1,3.4l0.8,0.8l0.5,4.2v2.5l4.2,4.2l3.5,3l3.5,2.4l2.7-0.2l2.8-2l1.7-1.9l1.2-1.8l1.3-1.7l0.7-0.7l1.8-0.8l0.5-0.4l3.2-4l-0.7-2.4
			l-2.2-1.3l0.2-3l2.2-3.4l-0.8-4l-1.2-4.4l-2.5-2.8l-2.7-2.5l-1.5-2l1.2-2.7l-0.2-6.2l-1.7-4l1-6.2l0.8-3.5L606,361l-1.5-1.7
			l-1.3-1l-2.7,8.1l-1.5,1.8l-1.7,2l-1.2,3l-2.4,2.5L589.8,377.4L589.8,377.4z"/>
		<path class="st0" d="M527.1,360l-2,1.7l-1.7,2l-1.8,0.1l-1.7,1.5l-0.8,0.7l-1.3,1.5l-1.3,2.5l-1,2.2l-1.7,1.9l-1.2,2.7l-0.8,1.3
			l-0.4,1.2l-0.3,1.3l3.2,6.9l0.7,0.7l1.2,1.5l1.7,2l0.7,1l2.3,0l4,2.2l1.3,1.7v2.2l2.4,0.9l1.2,0.5l2.7,0.2l2.7-1.2l2.2-0.1
			l2.8-0.7l4.7-0.5l4.4-0.6l3.2-1.2l4.4-2.2l3-1.5l4.3-0.1l0.3-1l0.8-0.8l1.2-0.8l-1.2-2.5l-2.4-1.9l-2.2-1l-0.3-0.8l-2.2,0.5h-1.7
			h-2l-2.7-0.2l-5.9-0.2l-2.7-2l-2.2-2.7l-2.4-2.7l-3.2-2.9l-2.5-3.4l-1.3-2.2l-1.4-3.5L527.1,360L527.1,360z"/>
		<path class="st0" d="M386.4,371l-0.2-1.4l-1.5-4.5l-1-1.3l-2.9-1.5l-1.3-0.3l-2.5-1.4l1.8,3.7l-1.7,2.8l-2,3.2l-1.3,1.7l-0.8,2
			l-1.2,2.3l-1,0.2l-0.7,1l-1.5,1.7l-1.8,2.2l-3.7,4.2l-1.5,2.9l-0.8,4h0.7l3.7,2.4l3.4,3.4l-0.5,2.7l5.9,4.9l1.5,3.5l0.6,6.5
			l0.8-0.5l0.8-0.7l3.2-1.5l1.2-3l1.7-2.5l1.3-2.7l1.8-2.5l1.8-4.5l3.4-5.2l1-2l1.5-2.2l0.3-2.3l-1.8-4.7l-2-2.9l-1-2.2l-1.7-2.5
			l-1.7-1.7L386.4,371L386.4,371z"/>
		<path class="st0" d="M348.8,363.6l-1.5,4.7l-2.4,3l-1.5,3l-1.5,1l-2,1.7l-1.8,1l-1.8,2l-0.3,1l-1.7,3.5l-1.7,1.5l-1.7,2l-1,1.9
			l-1.3,2.7l20.4,5.6l3.2-2.7l1.2-1.2l1.7-0.1l1.5-1l1.9-0.8h1.7h0.7l0.8-4l1.5-2.9l3.7-4.2l1.8-2.2l1.5-1.7l0.7-1l-7.7-1.9
			l-0.8-1.5l-3.5-0.2l-3.5,2.2l-1.9-1.7l-1.2-4.2l-2.2-4.2L348.8,363.6L348.8,363.6z"/>
		<path class="st0" d="M511,380.6l-3,3.7l-1.5,0.5l-3,1.5l-2,1l-1.7,0.8l-0.3,1.2l2.2,3.7l1.9,3.2l3.5,3.9l3.5,2.2l4,1.4l2,0.5
			l2.7,1.3l1.3,1l4.2-0.5l3.3-1.5l1-1h1.2l2-3.2l-2.7-0.2l-1.2-0.5l-2.4-0.9v-2.2l-1.3-1.7l-4-2.2l-2.3,0l-0.7-1l-1.7-2l-1.2-1.5
			l-0.7-0.7L511,380.6L511,380.6z"/>
		<path class="st0" d="M450.7,386.7l-1.5-1l-2.5-1.5l-2.3-0.7l-1.3,0.1l-1.5,2l-2,4.9l-0.7,3.7l-1.3,2.5l-1.3,3.5l-0.7,1.8l-1,3.5
			l-0.8,1.5l-1.8,0.8l-3.5,2.2l-2,4.9l-0.7,2.4l-1.7,3l-1.7,1.2l-2.8,0.5l6,7.1l1.3,2.5l2.7,3l3.3,1.9l2.5-0.7l4.4-0.8l4.4-1.2
			l3.9-2.5l5.7-1.3l6.5-0.3l0.4,4l-1.7,4l-1.8,3.5l-1,3l-0.4,2.8l-2.2,3l0.2,3.2l1.3,3l1.2,4l2.2,2.5l2.5,2.4v1.7l0.2,3l2.2,1.9
			l1.2,1.3l1.4,2.2l1.2,3.2l2.2,1h2.2l2.2,2l0.3,0.5l0.8-0.1l1.5-1.3l3.7-2.2l3.8-1.5l3.4-0.8l2-0.8l-0.5-2.4l-1.2-2.9l-1.3-3.2
			l0.2-3.2l1.3-3.7l1.5-4.4l1-3.7l0.5-1h-4l-3-1.4l-1.2-4.2l-0.2-3.4l-0.4-2.4l-3-3.2l-1.3-1.9l0.4-3.9l-1.3-3.3l-1-1.5l-0.3-3.2
			l-3.7-2.9l-1.2-3.4l0.7-3.5l-4-4.9l-3.7-4.2l-2.8-3.4l-3.9-3.2l-1.3-1.9L450.7,386.7L450.7,386.7z"/>
		<path class="st0" d="M456.7,385.9l-3.8,1.3l-1.2-0.2l-1-0.4l4.4,8.7l1.3,1.9l3.9,3.2l2.8,3.4l3.7,4.2l4,4.9l-0.7,3.5l1.2,3.4
			l3.7,2.9l0.3,3.2l1,1.5l1.3,3.3l-0.4,3.9l1.3,1.9l3,3.2l0.4,2.4l0.2,3.4l1.2,4.2l3,1.4h4l1.5-0.5l2.4-1.7l2.8-1.7l2.2-5.2l3.2-1.3
			l3.5,0.2l2.4,1l1.7,0l6-1.7l0.7,0l1-2.3l-1.4-3.4l-3.5-2.5l-1.5-1.7l-5.3-1.9l-1.5-1l-0.5-2.8v-4.2l-1.5-4.5l-3.4-9.1l-1.5-7.1
			l-2.8-5.2l-2.5-3.9l-6.4,0.6l-2.3-0.5l-4.5-1h-1.3l-2.4-0.5l-2.2,0l-3.2,0.3l-2,0.4l-1.5-0.2l-2.5-0.7l-1.3-0.2l-1.8-0.7l-0.7-0.5
			l-0.8-0.3L456.7,385.9L456.7,385.9z"/>
		<path class="st0" d="M499.5,389.2l-1.7,1.2l-1,0.4l-2.7-0.5l-1.9,0.3l2.5,3.9l2.8,5.2l1.5,7.1l3.4,9.1l1.5,4.5v4.2l0.5,2.8l1.5,1
			l5.3,1.9h0.8l1.3-2.8l0.4-3.3l1.2-2.5l3-3.7l2-3.2l0.8-6.2l-0.4-2l-1.3-1l-2.7-1.3l-2-0.5l-4-1.4L507,400l-3.5-3.9l-1.9-3.2
			L499.5,389.2L499.5,389.2z"/>
		<path class="st0" d="M570.9,393.1l-0.8-0.7l-2.3-0.3l-1.4-0.5l-2-0.4l-0.3,1l-4.3,0.1l-3,1.5l-4.4,2.2l-3.2,1.2l-4.4,0.6l-4.7,0.5
			l-2.8,0.7l-2.2,0.1l-2.7,1.2l-2,3.2h-1.2l-1,1l-3.3,1.5l2.7,1.7l1.5,1.3l2.2,2.2l2.4,2.4l1.5,3l2,3l1,8.1l1.5-0.5l0.7-0.8l1.5-0.7
			h2h1.3l0.7-0.3l1.2-2l1-1.3l2.8-0.3l2.2-0.5l2.5-0.3l1.3-1.8l2-2l3.2-3.5l2.8-4l1.3-2l0.8-2.5l2-4l0.7-1.7l1.3-3.3l0.2-1.2
			L570.9,393.1z"/>
		<path class="st0" d="M349,398.2l-0.4,0.7l0.2,2.2l1.5,2.2l0.3,1.5l-0.3,2l0.5,3.2l0.7,2.7l2.3,1.7l1.5,1.5l2,1.5l4,2.7l4.4,1.7
			l1.3,0.2l4.7,0.8l3-3.3l0.8-1.8l0.3-1.2l-0.1-0.7l-0.6-6.5l-1.5-3.5l-5.9-4.9l0.5-2.7l-3.4-3.4l-3.7-2.4h-0.7h-0.7h-1.7l-1.9,0.8
			l-1.5,1l-1.7,0.1l-1.2,1.2L349,398.2L349,398.2z"/>
		<path class="st0" d="M328.6,392.6l0.1,3.2l0.2,2.4l-0.2,2.5l-0.1,1.9l-1.3,2l-0.4,2l-0.5,1l1,3.2l1.8,5l0.8,2v5.7l-1.8,1.5l-1.2,4
			l-0.5,3.4l-0.7,2.2l-0.3,4.4l0.2,2.7l0.5,4.4l10.6-1.3l1-3.2l2-2.5l3,2.9h3.7l3.7,0l3.7,2.5l1.5,2.5l2-0.5l2.5-1.5l0.7-2.7
			l-0.5-2.7l-1.5-2.5l-0.5-2.5l-0.5-4.9l1.3-0.8l4.2,2.2l2.4,4.2l2.5,2.7l2.5,0.3l2.8-2.3l-0.7-1.2l-1-2l-1.2-1.9l-1-2.2l-1-1.2
			l-0.8-1.9l-0.2-1.5l-0.3-2.2l-1.3-0.2l-4.4-1.7l-4-2.7l-2-1.5l-1.5-1.5l-2.3-1.7l-0.7-2.7l-0.5-3.2l0.3-2l-0.3-1.5l-1.5-2.2
			l-0.2-2.2l0.4-0.7L328.6,392.6L328.6,392.6z"/>
		<path class="st0" d="M583.8,393.1l-12.9-0.1l0.4,1.7l-0.2,1.2l-1.3,3.3L569,401l-2,4l-0.8,2.5l-1.3,2l-2.8,4l-3.2,3.5l-2,2
			l-1.3,1.8l1.9,2l1.3,1.5l1,2l0,1.7v1.4l0.8,0.1l0.6,0.1l2.4,0l2.2,2.2l2.2,2.4l4.7,0.9l3.5,0.5l5,2.9l3.7,0.4l2.2,0.3l3.7-2
			l3.2,0.5l4.2,2.7l1.7,0.2l5.2-1.2l3.3-0.1l4,0.5l-0.7-2.7v-2.8l2-3.9l0.2-1.7l-0.3-2.4l0.7-3.7l0.5-2.5l0.5-3.5l0.2-2.4l-0.5-1.5
			l-3.2,4l-0.5,0.4l-1.8,0.8l-0.7,0.7l-1.3,1.7l-1.2,1.8l-1.7,1.9l-2.8,2l-2.7,0.2l-3.5-2.4l-3.5-3l-4.2-4.2V414l-0.5-4.2l-0.8-0.8
			l-1-3.4l-1.2-4.2v-2.7l-0.7-2.8L583.8,393.1L583.8,393.1z"/>
		<path class="st0" d="M520.6,406.5l0.4,2l-0.8,6.2l-2,3.2l-3,3.7l-1.2,2.5l-0.4,3.3l-1.3,2.8h-0.8l1.5,1.7l3.5,2.5l1.4,3.4l-1,2.3
			l2-0.1l3.7,2.4l3,0.5l3.3,3.2l2.8-0.3l1.7-0.7l3.5-6.5l0.7-1.9l-0.8-1.3l-0.5-1.7v-2.2l0.5-1.5l1.3-1.2v-1.2l-1-8.1l-2-3l-1.5-3
			l-2.4-2.4L529,409l-1.5-1.3l-2.7-1.7L520.6,406.5L520.6,406.5z"/>
		<path class="st0" d="M184.1,421.8l-2.4-1.7l-5.4-1.4l-3.5-0.5l-2.8-0.7l-2.7-2.5l-2.7-2.4l-2.5-1.2l0.2,1.5l-3.4,3l-0.5,1.9
			L156,421l-1.5,1.2l-1.3,1.2l-1.9,0.8l-2.3,0.5h-0.7l-0.3-0.5l-0.8-1.3l-0.5-0.4l-4.5,2.7l-1.5,0.3l-2.8,1.8l-2.5,1.3l-1.3,1.8
			l-0.8,1.9l-3.5,5.5l-1.8,0.7l-1.5,2.7l-2.4,0.7l-0.5,2.5l1.3,2l0.7,3.5l0.2,2.2l0.8,1l1.8,3l0.2,1.4l-0.7,5.5l-0.8,2.7l3.3,1.7
			l2,2.2l0.2,3l-2.5,4l-1.8,4.2l-3.2,3.2l-2.4,1.7l3.2,0.5l2,0.8l2.2,0.4l2.9,1.2l4,1l3.7,3.2l1.7,4l2.3,3.4h1.4l2.7-1.2l2.5,2.2
			l0.4,2.5l0.5,2.7l0.5-1.5l1.4-2.5l0.8-2.9l3.4-1l2.3-0.7l2.2-0.6l2.4-1.3l0.7-0.2l0.8,0l-0.7-4l-2.2-3.7v-3l2-3l1.7-5.7l2.2-1.8
			l2.5-1.7l-1.2-4.5l-2.2-3.1l-1.3-4.4l1.3-3l-0.2-6.1l2.7-1.5l6.4,0l5.6,0.4l4.7,0.5l2.5-16l-1.3-3.3l0.2-3.4v-2.9l-2.2-2.2
			L184.1,421.8L184.1,421.8z"/>
		<path class="st0" d="M545.7,425.4l1.2,1.9l1,2l-0.5,2l-1.3,2.5l-1.2,2.2l-2.3,1.5l-1.5,0.4l-1.9,0.6l-1.3,0.2h-1l-3.5,6.5l0.8,1.2
			l3.2,2.7l1.7,2l1.3,2l3.9-0.1l2-1.7l1.8-0.6l3.2-2l1.5-0.8l0.5-1.5l0.7-1.5l0.5-2.2l1-2.5l0.3-2.5l1-1l0.8-2l1.2-1.5l0.2-1
			l1.5-2.4l-0.8-0.1v-1.4l0-1.7l-1-2l-1.3-1.5l-1.9-2l-2.5,0.3l-2.2,0.5l-2.8,0.3l-1,1.3L545.7,425.4L545.7,425.4z"/>
		<path class="st0" d="M419.4,422l-1.7,1.3l-2.9,0.7l-4.4,0.1l-3.2,0.7l-2.9,0.3h-1.7l-3.7,3l-0.8,1.3l-0.7,1.3l-0.5,1.7l-0.2,4
			l-0.1,1.5l-0.4,1.5l2.2,1l2.5,3.2l4,4.4l3,5l2.5,5.2l5.2,7.1l3.7,2l3,1.3l2.7,0l3.7-0.5l2-0.3h3.5l4.5-0.5l1.5-2l0.8-2.5l5.2-0.1
			l4.2,1.7l4.4,1.9l2.4,1.2l3.3-0.6v-1.7l-2.5-2.4l-2.2-2.5l-1.2-4l-1.3-3l-0.2-3.2l2.2-3l0.4-2.8l1-3l1.8-3.5l1.7-4l-0.4-4
			l-6.5,0.3l-5.7,1.3l-3.9,2.5l-4.4,1.2l-4.4,0.8l-2.5,0.7l-3.3-1.9l-2.7-3l-1.3-2.5L419.4,422L419.4,422z"/>
		<path class="st0" d="M538,427.7v1.2l-1.3,1.2l-0.5,1.5v2.2l0.5,1.7l0.8,1.3l-0.7,1.9h1l1.3-0.2l1.9-0.6l1.5-0.4l2.3-1.5l1.2-2.2
			l1.3-2.5l0.5-2l-1-2l-1.2-1.9l-0.7,0.3h-1.3h-2l-1.5,0.7l-0.7,0.8L538,427.7L538,427.7z"/>
		<path class="st0" d="M664.4,426.7l-4.9,2.8l-2.8,1.8l-1.2,2.5l-0.3,3.9l-1.7,3.7l-4.4,2.2l-3.5-0.4l-4.4,0.6l-3.2,2.4l-3.2,4.4
			l-6.7,3.1v2.9v2.7L628,462l1.3,2l1.3,3.2l-1,4l1,2.2l1.8,2.7l1.3,1.2l2,1.5l0.7,1.9l0.2,6.7v4.4l1.5,2.2l3.7,3.2l2.4,2.5l2.2,1.4
			l1.1-1.4l3.5-4.5l3-3.5l5.3-5.7l1.3-6l2.5-1l2.5,0.3l4-0.8l2.3-1l4.2-1l0.8-1.5l-0.7-3.5l-0.8-2.5l-0.8-4.4l-0.8-3.7l-0.5-6.6
			l1-3.8l-0.5-3l2.5-1.8l2-0.7l3.7-0.2l2-1.8l0.2-4.2l-0.3-3.5l-0.5-0.4l-1.2-0.2l-1.7-1.4l-3.7-2.2l-3.2-0.7h-3.7L664.4,426.7
			L664.4,426.7z"/>
		<path class="st0" d="M355.4,446.9l-0.7,2.5l-0.4,1.7l0.7,3.7l2.5,0.3l2.2,1.4l-1.7,6.4l1.4,2v1l1.8,0.5l3,0.4l5,0.8l5,1.5l2.4,2.2
			l2.5,0l3.3,1.2l0.8,2.5l2.5,1.2l2.7,1.9l3,1.5l2.3,3.4l2.9,1.2l0.8,0.1l0.7-3.8l0.2-1.7l1.5-3v-2.7l-1-1.5l-0.8-1.2l-1-1.9
			l-0.5-2.2l-2.2-3.5l-2.7-2.5l-2.4-3.4l-2.5-4.5l-2.5-1.4l-2.5-1.8l-0.2-1l-0.7-2l-0.7-1.8l-0.3-0.7l-0.8-2.2l-1.5-3.2l-0.5-0.4
			l-2-0.5l-1.8-1.5l-2.8,2.3l-2.5-0.3l-2.5-2.7l-2.4-4.2l-4.2-2.2l-1.3,0.8l0.5,4.9l0.5,2.5l1.5,2.5l0.5,2.7l-0.7,2.7l-2.5,1.5
			L355.4,446.9L355.4,446.9z"/>
		<path class="st0" d="M560.5,429.6L559,432l-0.2,1l-1.2,1.5l-0.8,2l-1,1l-0.3,2.5l-1,2.5l-0.5,2.2l-0.7,1.5l2.4-0.3l5.3,0.9
			l1.8,1.2l1,2.2l0.7,1.7l0.8,1.5h2.4l2.9-0.1l2.8-1.3l4-0.1l4.4,0.3l4.7,1l4.4-0.6h4.5l2.4,0.3h2.7l4.7,0.2l3.3-0.2l2.4,1.2l1,0.2
			l0.6,0.1l0.3-0.5l1.7-1.5l0.8-1.2l-0.2-1.9l-0.5-1.7l-1.2-2.5l-1-4.7l-0.2-0.7l-4-0.5l-3.3,0.1l-5.2,1.2l-1.7-0.2l-4.2-2.7
			l-3.2-0.5l-3.7,2l-2.2-0.3l-3.7-0.4l-5-2.9l-3.5-0.5l-4.7-0.9l-2.2-2.4l-2.2-2.2l-2.4,0L560.5,429.6L560.5,429.6z"/>
		<path class="st0" d="M684.2,435.2l0.3,3.5l-0.2,4.2l-2,1.8l-3.7,0.2l-2,0.7l-2.5,1.8l0.5,3l-1,3.8l0.5,6.6l0.8,3.7l0.8,4.4
			l0.8,2.5l0.7,3.5l-0.8,1.5l-4.2,1l-2.3,1l-4,0.8l-2.5-0.3l-2.5,1l-1.3,6l-5.3,5.7l-3,3.5l-3.5,4.5l-1.1,1.4l5.8,2.5l2,4.2l0.7,1.9
			l0.2,0.8l2.2,0.8l5,3.4l0.3,3.2l1.2,3.2l1.3,1.3l3.5,2l0.8-0.5l1-1.3l0.3-0.8l0.5-2.4l2-3.5l1-2.5l2.2-1.8l3.5-1.7l1.3,0l2.7,1.2
			l0.4,2.9l1.3,2.7l1,2.7l2,3.4l2.7,2.7l2.8,2.4l3.5,2.2l1.5,2.5l3.2-0.1l4.9-1.7l1.7-4.5l-1-3.2l-0.2-2.8l-0.2-2.2l0.5-4.9l2.5-5
			l1.7-5.8l0.5-5.7l0.4-6.4l0.3-3.7l2.7-2.7l3.5-2.5l3.7-2l5.5-3.4l-2.6-2.6l-2.7-2l-4.5-5.2l-3.9-3.7l-2-3.4l-1.3-3.7l-3-5.1
			l-4.4-4.4l-6.5-3.9l-4.5-2.4L684.2,435.2L684.2,435.2z"/>
		<path class="st0" d="M190,435.3l-2.5,16l3,3.9l1.8,1.4l3.7,3.2l3,4.2v5.2l-0.3,5l-1.5,2.9l-1.8,6.9l3,1.9l4,2.6l0.2,2.5l2.3,1.5
			l4-0.7l5.4,2.6l5.9,4.9l2.4,2l1.8,2.4l2.5,1l4.9,1.2l2.2-2.5l2.5-2l2.5-3.7l3.7-3.3l5.2-2.3l-3.9-1l-1.5-1.4l-2.9-2.8l-2.8-3.4
			l-1.3-2.4l-2.4-3.1l-1.7-2l-2.7-3.9l-0.7-2.4l-2.5-1l-6-11.6l-1.2-0.8v-2l-0.2-4.2l-2.8-2.4l-2.2-1.7v-1.7v-2.7l-3.7-3.4l-6-1.4
			l-5,0l-5.5-0.4L190,435.3L190,435.3z"/>
		<path class="st0" d="M355.4,446.9l-1.5-2.5l-3.7-2.5l-3.7,0h-3.7l-3-2.9l-2,2.5l-1,3.2l0.2,0.7l-0.7,3.9v3.2l0.2,4.9v5.6l0.8,6.4
			l0.8,3l-0.7,3.4l2.7-0.3l2.8-0.7l2.7-1.2l3.5,0.8l1.9,0l2.2-4l1.7-3.8l4.5-0.5v-1l-1.4-2l1.7-6.4l-2.2-1.4l-2.5-0.3l-0.7-3.7
			l0.4-1.7L355.4,446.9L355.4,446.9z"/>
		<path class="st0" d="M396.4,439.5l-3.5,3.7l-2.7,4.7l-0.7,0.7l-1,2.5l-1.7,1.3l2.5,4.5l2.4,3.4l2.7,2.5l2.2,3.5l0.5,2.2l1,1.9
			l0.8,1.2l1,1.5v2.7l-1.5,3l-0.2,1.7l-0.7,3.8l1.1,0.1l0.8,0.5l0.7,1l0.3,1.7l0.2,2v1.8l-0.3,1.5l-0.5,1.2v1l0.4,1.7l0.5,0.8
			l1.9,1.5l1,2.5l0.4,2.5l0.3,1.3l2.3,1.7l2.7,1.4l0.2-0.7l1.5-3.5l1.5-3.2l1-3.4l2-2.5l1.3-1.7l5.3-3.2l0.2-2.9l0.7-1.5l0.2-1.2
			l1.7-2.7l2.5-3l2.7-4.5l2.2-4.2l-1.2-2.5l-2,0.3l-3.7,0.5l-2.7,0l-3-1.3l-3.7-2l-5.2-7.1l-2.5-5.2l-3-5l-4-4.4l-2.5-3.2
			L396.4,439.5L396.4,439.5z"/>
		<path class="st0" d="M510.1,441.9l2.7,3l1.2,2l-0.8,2.7l2.4,3.9l2.5,2.5l2,3.4l2.4,1.9l1.7-0.5l2.7-1.3l3.2-1l2.7-0.8l2-1l2.2-1.2
			l2.4-0.8l1.3-1.5l-1.3-2l-1.7-2l-3.2-2.7l-0.8-1.2l-1.7,0.7l-2.8,0.3l-3.3-3.2l-3-0.5l-3.7-2.4l-2,0.1l-0.7,0L510.1,441.9
			L510.1,441.9z"/>
		<path class="st0" d="M510.1,441.9l-1.7,0l-2.4-1l-3.5-0.2l-3.2,1.3l-2.2,5.2l-2.8,1.7l-2.4,1.7l-1.5,0.5l-0.5,1l-1,3.7l-1.5,4.4
			l-1.3,3.7l-0.2,3.2l1.3,3.2l1.2,2.9l0.5,2.4l1.5-0.2l1.7-0.2l2.2-0.8l1.7-1l1.3-1.7l0.5-1.2l0.5-1.5l3.5-0.5h0.8l1.7,1.4l2.7,2
			l2,0.4l2.3-0.3l1.7,0.2l4.2,0.2l0.2-1.8l0.8-1.3l1-3.4l1.8-2.5l1.2-1.8l-2.4-1.9l-2-3.4l-2.5-2.5l-2.4-3.9l0.8-2.7l-1.2-2
			L510.1,441.9L510.1,441.9z"/>
		<path class="st0" d="M326.2,446l0.7,2.8l-0.3,2.7l-2.5,2.5l-1.8,2.2l-2,4.4l-1.2,1l-0.5,0.3l-4.4,8.2l21.6,11.3l1.7-5.9l0.7-3.4
			l-0.8-3l-0.8-6.4v-5.6l-0.2-4.9v-3.2l0.7-3.9l-0.2-0.7L326.2,446L326.2,446z"/>
		<path class="st0" d="M540.4,453l4.7,5.6l9,3.6l0.7,0.6l10.6-9.4l-0.8-1.5l-0.7-1.7l-1-2.2l-1.8-1.2l-5.3-0.9l-2.4,0.3l-0.5,1.5
			l-1.5,0.8l-3.2,2l-1.8,0.6l-2,1.7L540.4,453L540.4,453z"/>
		<path class="st0" d="M284.7,447.1l-4,2l-3.7,1.7l-4.2,3l-2,0.3l-3.9-0.2l-3.2-0.5l-4.2,1.3l-4.2,0.8l-1.5,2.5l-1.3,1.7l-0.7,1.9
			l-2.2,2.5l1.3-0.2l2.8,2.4l1.3,3l3.2,1.5l0.3,1.4l-1.2,3.5l-1.3,2.9l1.3,3l1.2,1.3l3,1.9l3,0.5h3.7l5.3-0.2l4.5,0l6.2,0.2h4.4
			l6.2,1.2l3.2,1.5l3.2,1.4v-0.8l2.3-3.2l2.7-2.7l1.7-2.2l2-1.9l1.7-1.8l1.5-3l1.3-2.7l-0.5-1.2l4.4-8.2l-3.3,0.7l-3-1.7l-2.7-2.2
			l-1.7-2.5l-0.8-2.5l-2.2-2.5l-1-1.9l-2.2-1.2l-3.5-0.5l-2.8-0.4l-3.7-0.2l-2.7-0.7l-2.5,0.2L284.7,447.1L284.7,447.1z"/>
		<path class="st0" d="M187.5,451.2l-4.7-0.5l-5.6-0.4l-6.4,0l-2.7,1.5l0.2,6.1l-1.3,3l1.3,4.4l2.2,3.1l1.2,4.5l-2.5,1.7l-2.2,1.8
			l-1.7,5.7l-2,3v3l2.2,3.7l0.7,4l3.2,0l4.9,0.3l4.7,0.7l3.8,0.4l3.5,0.2l0.2-1l2.8-3.2l2.5-3.2l2.5-3v-1.8l1-1.4l1.8-6.9l1.5-2.9
			l0.3-5v-5.2l-3-4.2l-3.7-3.2l-1.8-1.4L187.5,451.2L187.5,451.2z"/>
		<path class="st0" d="M565.4,453.3l-10.6,9.4l0.7,0.6l2.2,3.7l3,4.5l2.5,2.2l0.8,1.9v3.7l0.3,2v2l3.2,2.9l2,3l3,2l2.9,2.9l2.5,3.9
			l2,1.9l1.7,0.8l2.5-1l2.2-1.5l3.2-3.9l4.7-7.7l5.5-3.3l3.5,1h2.5l2-0.2l2,0.4l2.4,2.4l2.8,1.9l2.7,2.2l2.8,2l2.5-0.3l0.5-2.2
			l1.7-4l1.5-3.8l2.7-5l3.2-1.5l-1.8-2.7l-1-2.2l1-4l-1.3-3.2l-1.3-2l0.2-2.7v-2.7v-2.9l-2.4,0.2l-3.2,0l-4.4,0.7l-3.2,0.3L612,455
			l-0.1-0.8l-1-0.2l-2.4-1.2l-3.3,0.2l-4.7-0.2h-2.7l-2.4-0.3h-4.5l-4.4,0.6l-4.7-1l-4.4-0.3l-4,0.1l-2.8,1.3l-2.9,0.1L565.4,453.3
			L565.4,453.3z"/>
		<path class="st0" d="M540.4,453l-1.3,1.5l-2.4,0.8l-2.2,1.2l-2,1l-2.7,0.8l-3.2,1l-2.7,1.3l-1.7,0.5l-1.2,1.8l-1.8,2.5l-1,3.4
			l-0.8,1.3l-0.2,1.8l-1.5,1.5l-1.8,3.3l-1,4.2l0.7,3.2l1,2.5l0.7,1.4l2-0.2l3.7,0.8l2.4,2.9l2.2,2.9l2.5,2.5l2.4-0.2l2.7,1.2h3.5
			l1.5,2.2l6.5,1l3,0.2l1.5,0.2l2.5,1.3l2.5,1.7l3.3,0.9l1.8-1.7l2.5-6.7l3.7-5.7l2-5.4l-3.2-2.9l-1.7,0.4l-2.3,1.2l-1,1.2l-1.8,0.8
			l-3.2,1.2l-1.5-0.7l-4.7-2.9l-1.5-5.4l-0.2-3.8l-1.2-3.1l-2-3v-3l0.8-3.3l0.7-2l0.4-2.2L540.4,453L540.4,453z"/>
		<path class="st0" d="M247.8,462.2l0.4-1.8l-2-2.2l-11.9-0.2l-6.2,0l-3.3-0.2l-3,0l-2.2-0.8l6,11.6L247.8,462.2L247.8,462.2z"/>
		<path class="st0" d="M554.8,462.8l-0.7-0.6l-9-3.6l-0.4,2.2l-0.7,2l-0.8,3.3v3l2,3l1.2,3.1l0.2,3.8l1.5,5.4l4.7,2.9l1.5,0.7
			l3.2-1.2l1.8-0.8l1-1.2l2.3-1.2l1.7-0.4v-2l-0.3-2v-3.7l-0.8-1.9l-2.5-2.2l-3-4.5l-2.2-3.7L554.8,462.8L554.8,462.8z"/>
		<path class="st0" d="M251.9,461.6l-2.5,0.8l-1.5-0.2l-0.3,2v3l-0.3,2.2l-1.4,3.9l0.4,2.7l2.5,5l1.8,4.9l-0.3,3.7l-2.4,2.2l1.3,0.5
			l4.2,0.7l2.7,1l1,3.4l-2.2,4.2l-0.5,1.7l2.7,3.7l2.4,4l1.3-2.2l1.3-1.3l1.7-1.7l2.5-2.2l3.5-2h0.8l1.3-0.7l1.2-2.4l-0.5-1.8
			l-0.2-3.2l5,2.5l2.2,1l3.9,0.4h2.2l2.7,2.7l2.8,0.8l2.4,1.9l0.7-2l1-2l1.8-7.5l4.4-1.8l-3.2-1.4l-3.2-1.5l-6.2-1.2h-4.4l-6.2-0.2
			l-4.5,0l-5.3,0.2h-3.7l-3-0.5l-3-1.9l-1.2-1.3l-1.3-3l1.3-2.9l1.2-3.5l-0.3-1.4l-3.2-1.5l-1.3-3l-2.8-2.4l-1.3,0.2L251.9,461.6
			L251.9,461.6z"/>
		<path class="st0" d="M247.8,462.2l-22.3,6.3l2.5,1l0.7,2.4l2.7,3.9l1.7,2l2.4,3.1l1.3,2.4l2.8,3.4l2.9,2.8l1.5,1.4l3.9,1l2.4-2.2
			l0.3-3.7l-1.8-4.9l-2.5-5l-0.4-2.7l1.4-3.9l0.3-2.2v-3L247.8,462.2z"/>
		<path class="st0" d="M431,468.1l1.2,2.5l-2.2,4.2l-2.7,4.5l-2.5,3l-1.7,2.7l-0.2,1.2l3.3,0.7l2.5,3l2,0.5l2.5,0.8l2.4,0.2l2.2,1
			l2,0.2l0.8-0.1l1.2-2l1.9-0.7l1.7-0.5h2l3-0.1l4.9,1.4l4.7,0.2l3.5,0.2l5.3,1.9l2-0.2l3.7,0l2-0.4l3.3-1.7l-6.2-8.4l-0.3-0.5
			l-2.2-2H469l-2.2-1l-1.2-3.2l-1.4-2.2l-1.2-1.3L461,470l-0.2-3l-3.3,0.6l-2.4-1.2l-4.4-1.9l-4.2-1.7l-5.2,0.1l-0.8,2.5l-1.5,2
			l-4.5,0.5L431,468.1L431,468.1z"/>
		<path class="st0" d="M376.7,471.3l-2.4-2.2l-5-1.5l-5-0.8l-3-0.4l-1.8-0.5l-4.5,0.5l-1.7,3.8l-2.2,4l-1.9,0l-3.5-0.8l-2.7,1.2
			l-2.8,0.7l-2.7,0.3l-1.7,5.9l0.2,2.5l0.2,2v2.5l0.8,2.5l-0.4,2.7l1-0.4l1.7,0.8l1.9,2.9l1.5,4.7l3.3-0.3l3-0.7l2.2-0.3l5.9-0.5
			l-0.7-2.5l3-4.3l3.2-3.9l-0.2-4.9l-0.8-4.2l4.4-3.2l4.4-0.8l-0.9-1l1.7-3.5l3.5-0.3L376.7,471.3L376.7,471.3z"/>
		<path class="st0" d="M489,475.3l-2,0.8l-3.4,0.8l-3.8,1.5l-3.7,2.2l-1.5,1.3l-0.8,0.1l6.2,8.4h1l2.8-0.1l5-0.1l4.2,0.2l5.4,0.2
			l5.2-0.2l2.2,0.2l0.6-0.2l8.9-2.3l-0.7-1.4l-1-2.5l-0.7-3.2l1-4.2l1.8-3.3l1.5-1.5l-4.2-0.2l-1.7-0.2l-2.3,0.3l-2-0.4l-2.7-2
			l-1.7-1.4h-0.8l-3.5,0.5l-0.5,1.5l-0.5,1.2l-1.3,1.7l-1.7,1l-2.2,0.8l-1.7,0.2L489,475.3L489,475.3z"/>
		<path class="st0" d="M314.2,470.1l0.5,1.2l-1.3,2.7l-1.5,3l-1.7,1.8l-2,1.9l-1.7,2.2l-2.7,2.7l-2.3,3.2v0.8l2.2,1l2.3,0.5l1.2,0.4
			l2.2,0.4h1l2.4,0.5l2.4,2l1.7,1.5l1.7,2.8l0.2,4.4v2.7l3,1.9l2.7-1.8l1.5-0.2l1.8-1.5l2-1.5l1.5-0.5l6.4,1.5l-0.8-1.3v-3.5V495
			v-1.3l0.4-2.7l-0.8-2.5V486l-0.2-2l-0.2-2.5L314.2,470.1L314.2,470.1z"/>
		<path class="st0" d="M376.7,471.3h-2l-3.5,0.3l-1.7,3.5l0.9,1l0.5,0.5l2.2,1l1.2,1l0.8,2.2l1.7,1.7l1.3,6.7l1.5,1.8l2.5,4l3.9,0.5
			l2.5,0.8l6.5,0.6l1,0.2h1.2l2.7-2.2v-1l0.5-1.2l0.3-1.5v-1.8l-0.2-2l-0.3-1.7l-0.7-1l-0.8-0.5l-1.1-0.1l-0.8-0.1l-2.9-1.2
			l-2.3-3.4l-3-1.5l-2.7-1.9l-2.5-1.2l-0.8-2.5l-3.3-1.2L376.7,471.3L376.7,471.3z"/>
		<path class="st0" d="M632.6,476.1l-3.2,1.5l-2.7,5l-1.5,3.8l-1.7,4l-0.5,2.2l-2.5,0.3l-2.8-2l-2.7-2.2l-2.8-1.9l-2.4-2.4l-2-0.4
			l-2,0.2h-2.5l-3.5-1l-5.5,3.3l-4.7,7.7l-3.2,3.9l-2.2,1.5l-2.5,1l-0.2,2.8l-0.2,3.3l0.2,4l1.8,4.4l1.3,5.7l0.7,3.7l2.7,3.4
			l1.6,2.2l2.9,7.2l1.8,3.9l2.9,2.7l2.4,3.5l2,0.4l1.2,2l3.9,3.4l5.5,0.9l6.5,1.7l3.7,1l3.3,2.2l2.7,2.7l0.2-1.8l1.7-2.4l3.5-1.2
			l4.2-2l4.9-4l3.2-2.9l3.5-3.7l2.7-3.3l2.8-4.2l1.7-3.7l4.2-3.8l3.5-1l4.3-3.5l-3.5-2l-1.3-1.3l-1.2-3.2l-0.3-3.2l-5-3.4l-2.2-0.8
			l-0.2-0.8l-0.7-1.9l-2-4.2l-5.8-2.5l-2.2-1.4l-2.4-2.5l-3.7-3.2l-1.5-2.2v-4.4l-0.2-6.7l-0.7-1.9l-2-1.5L632.6,476.1L632.6,476.1z
			"/>
		<path class="st0" d="M378.1,489.3l-1.3-6.7l-1.7-1.7l-0.8-2.2l-1.2-1l-2.2-1l-0.5-0.5L366,477l-4.4,3.2l0.8,4.2l0.2,4.9l-3.2,3.9
			l-3,4.3l0.7,2.5l5.3-0.6l1.8-2.2l3.4-2.5l2.5-1.2l2-1.7l3.7-2L378.1,489.3L378.1,489.3z"/>
		<path class="st0" d="M186.4,497.4l-4,3l0.2,4.7l1.7,2.5l4.5,5.4l3.5,3.7l1.3,2l1.3,5.5l1.8,0l2.9-0.5l2.8-1.5l0.5-3.5l5.2,0h3.4
			l0.8,0.4l1.4-0.3l1.8-0.7l2.2-0.5l3.8-1.2l5.7-1.5l3.5,0.2h3.2l-0.7-1.3l-0.3-2.9v-1.9l-0.5-1l-0.7-2.5l-4.9-1.2l-2.5-1l-1.8-2.4
			l-2.4-2l-5.9-4.9l-5.4-2.6l-4,0.7l-2.3-1.5l-0.2-2.5l-4-2.6l-3-1.9l-1,1.4v1.8l-2.5,3l-2.5,3.2l-2.8,3.2L186.4,497.4L186.4,497.4z
			"/>
		<path class="st0" d="M151.8,506.5l-0.5-2.7l-0.4-2.5l-2.5-2.2l-2.7,1.2h-1.4l-2.3-3.4l-1.7-4l-3.7-3.2l-4-1l-2.9-1.2l-2.2-0.4
			l-2-0.8l-3.2-0.5l-1.7,1.5l-0.3,2.5l1.3,3.1l1,2.5l2.7,4.4l2.7,3l2,4.4l2,2.7l3,5.1l2.7-0.2l5.7,0.2l4.5,1l2.7,1.7l2.2,1.9
			l3.8,2.5l1.4,0.7l1.8,2.9l1.2-3.9l0.7-4.2v-3.9l-1.5-2.5l-4.7-1.7l-3.7-0.7L151.8,506.5L151.8,506.5z"/>
		<path class="st0" d="M423,486.1l-0.7,1.5l-0.2,2.9l-5.3,3.2l-1.3,1.7l-2,2.5l-1,3.4l-1.5,3.2l-1.5,3.5l-0.2,0.7l0.5,2h2.7l1.9,2.4
			l1.2,1.9l0.5,2.2l5.4-5.7l4.9-6l2.8-3l3.3-5l0.8-2.7l0.5-1.5l2-1.7l-2.4-0.2l-2.5-0.8l-2-0.5l-2.5-3L423,486.1L423,486.1z"/>
		<path class="st0" d="M581.6,500.7l-1.7-0.8l-2-1.9l-2.5-3.9l-2.9-2.9l-3-2l-2-3l-2,5.4l-3.7,5.7l-2.5,6.7l-1.8,1.7l-3.3-0.9
			l-2.5-1.7l-2.5-1.3l-1.5-0.2l-3-0.2l-6.5-1l-0.8,0.8l-1.2,3.2l-2.5,5.4l-1,1.8l-2,1.8l-2,3.7h-0.7l-1.8,2.7l-2,2.9l-3.5,3.5
			l-2.4,3.7l-2.5,4l-4.7,5.2l-1.3,3.9l-1.5,3.8l-2.8,3.7l-0.3,2.9l-0.5,3.4l-2,3l-1.9,1.3v1.9l-0.2,2.7l-2.8,0.7l-3.2,2.7l-0.8,1.7
			l2.7,2l1.5,3.4l-0.8,2.2l-2,3v2.5l0.3,1.9l0.5,1.7l0.3,3.2l1.5,3.9l1.5,2.4l3.9,2.5l1,3.4l-1.3,6.4l-0.3,5.2l1.7,0.4l4.7,0.8
			l1.7,1l4.7,0l1.7,0.2l2.8-1l1.8-0.2l2.5-0.3l-0.2-2.2v-2l-1-1.2l-0.7-1.7l-2-1.4l3-3.2l2.9-1.7l5.7-4.5l5.6-5l4.5-5.8l4.4-2.8
			l3.5-6.4l2.9-3l2.8-1.9l5.5-3.8l3.2-5l0.3-1.4l-0.3-3l0.2-3.3l3-3.7l3.5-2.3l5-2.2l3.2-4.2l3-0.5l2.2,0.8l2.9,3l3.7,3.2h3.3l2-3.2
			l0.2-2l1.2-0.7l-2.9-2.7l-1.8-3.9l-2.9-7.2l-1.6-2.2l-2.7-3.4l-0.7-3.7l-1.3-5.7l-1.8-4.4l-0.2-4l0.2-3.3L581.6,500.7L581.6,500.7
			z"/>
		<path class="st0" d="M506.4,490.5l0.5,2.8l-0.8,2.8l-0.5,1.9l-0.8,1.7l-0.3,1.2l-1,2.7l0.5,1.9l0.3,0.7l3.2-1.3l3.5-0.3l6.9-0.5
			l5.3-0.1l4.9-2.9v-3.8l-2.5-2.5l-2.2-2.9l-2.4-2.9l-3.7-0.8l-2,0.2L506.4,490.5L506.4,490.5z"/>
		<path class="st0" d="M440.7,492.4l0.8,3.2v6l-2.9,4.3l-3,2.2l-3.5,2.9l-1.2,1l3.5,0.2l2.2,1.9l1,0.3h2.9l3.7,0l4,3.1l1.3,0.8
			l5.4,2.2l1.7,0.5l3,2.2l2.5,2.7l4,0.7l1.8-0.3l1-2.2l0.3-5.6l1-3.3l5.8-8.9l2-5.7l1.7-2.5l-0.5-5l0.5-2.5l-3.3,1.7l-2,0.4l-3.7,0
			l-2,0.2l-5.3-1.9l-3.5-0.2l-4.7-0.2l-4.9-1.4l-3,0.1h-2l-1.7,0.5l-1.9,0.7L440.7,492.4L440.7,492.4z"/>
		<path class="st0" d="M378.1,489.3l-2.2,0.5l-3.7,2l-2,1.7l-2.5,1.2l-3.4,2.5l-1.8,2.2l-5.3,0.6l1,1.2l-0.2,3.7l0.8,2.4l1.4,3.5
			l0.1,0.8h1.2l7.3-5.3l5.2-3.8l2-6.2l1.3-5.2L378.1,489.3L378.1,489.3z"/>
		<path class="st0" d="M378.1,489.3l-0.7,1.7l-1.3,5.2l-2,6.2l-5.2,3.8l2.5,1.7l2.5,1l0.7,3.7l0.5,4.2l0.2,5.2l-0.5,4l0.2,4l0.2,3
			l1,0.3l0.2,2.5l-0.4,2.8l0.5,3.4l0.2,1l0.5,0.5l1.2,1.3l4.2,0.2l0.3-1l4.2-0.1l4.2-0.3l5.5-3.3l3-1.2l1.3-2.5l2.3-4.5l1.5-2.9
			l2-2.7l3.2-3.2l2.2-1.8l1.8-0.5l0.4-0.5l0.5-1l0.5-2l0.5-0.7l-0.5-2.2l-1.2-1.9l-1.9-2.4h-2.7l-0.5-2l-2.7-1.4l-2.3-1.7l-0.3-1.3
			l-0.4-2.5l-1-2.5l-1.9-1.5l-0.5-0.8l-0.4-1.7l-2.7,2.2H396l-1-0.2l-6.5-0.6l-2.5-0.8l-3.9-0.5l-2.5-4L378.1,489.3L378.1,489.3z"/>
		<path class="st0" d="M301.5,489.5l-4.4,1.8l-1.8,7.5l-1,2l-0.7,2l-0.2,3.5l0.7,2.2l1.5,2.9l0.2,2.4l2.2,1.8l4,4.4l-0.5-1.5l3-2.7
			l2.7-2l4-2.5l3.5-1.8l3.5-2.9l0.4-1V503l-0.2-4.4l-1.7-2.8l-1.7-1.5l-2.4-2l-2.4-0.5h-1l-2.2-0.4L306,491l-2.3-0.5L301.5,489.5
			L301.5,489.5z"/>
		<path class="st0" d="M479.9,490.6l-0.5,2.5l0.5,5l-1.7,2.5l-2,5.7l-5.8,8.9l-1,3.3l-0.3,5.6l-1,2.2l-0.8,2.3l-1.2,2.9l-0.5,2.2
			v2.9v2l0.8,1.3l2.8,1.7l1.7,2.8l-1.3,2l-4.7,3l-0.3,3.5l2.4,3.4v2.9l0.8,7.2l-1.7,4.4l-5,3.5L453,578l3.5,1.9l2.5-1.3l3.9-1.3
			l3.8-0.3l5.5-0.8l2.2-1.5l3-2.2l2.2-2h1l2.4-2.5l1.5-3.5l4.2-4.5l-0.2-3.2l-0.3-5.2l-1.4-4.2l-0.2-3.7l4.4-8.5l3-8.6l3-5.9
			l2.4-5.7l4.2-7.7l0.7-1l-0.3-0.7l-0.5-1.9l1-2.7l0.3-1.2l0.8-1.7l0.5-1.9l0.8-2.8l-0.5-2.8l-0.6,0.2l-2.2-0.2l-5.2,0.2l-5.4-0.2
			l-4.2-0.2l-5,0.1l-2.8,0.1L479.9,490.6L479.9,490.6z"/>
		<path class="st0" d="M435.7,491.4l-2,1.7l-0.5,1.5l-0.8,2.7l-3.3,5l-2.8,3l-4.9,6l-5.4,5.7l-0.5,0.7l-0.5,2l-0.5,1l-0.4,0.5l2,0.9
			l0.4,1.3l1.3,1.5l0.8,0.8l0.7,0.4h3.2h1.5l3.5-1.2l0.5-1.7l-1-1.2l2.8-2l2.5-1.2l2.2-2l3.2-2.5l-1-0.3l-2.2-1.9L431,512l1.2-1
			l3.5-2.9l3-2.2l2.9-4.3v-6l-0.8-3.2l-0.8,0.1l-2-0.2L435.7,491.4L435.7,491.4z"/>
		<path class="st0" d="M247.8,491.8l-5.2,2.3l-3.7,3.3l-2.5,3.7l-2.5,2l-2.2,2.5l0.7,2.5l0.5,1v1.9l0.3,2.9l0.7,1.3l-0.3,1.2
			l-0.4,3.3l-0.2,1.7l0.8,1.7l1.2,2l0.7,1.4l4,4.4l0.3-2.3l1.5-2.7l1.2-3.7l0.7-0.4l2.2-2.8l4.9-1.5l2.5-1.2l1.9-1.3l1.3-1.5
			l2.2-2.2l1-0.3l-2.4-4l-2.7-3.7l0.5-1.7l2.2-4.2l-1-3.4l-2.7-1l-4.2-0.7L247.8,491.8L247.8,491.8z"/>
		<path class="st0" d="M336.7,493.7v1.3v3.7v3.5l0.8,1.3l-1,1.2l-0.5,5.4l0.8,2.5v3l0.4,1.7l4.2,1.7l1.9,1.4l0.2,1.3l2.5-0.8
			l4.7-0.5l3.4-0.5l3.2-1.7l2.5-3.9l1.9-2.8h-1.2l-0.1-0.8l-1.4-3.5l-0.8-2.4l0.2-3.7l-1-1.2l-5.9,0.5l-2.2,0.3l-3,0.7l-3.3,0.3
			l-1.5-4.7l-1.9-2.9l-1.7-0.8L336.7,493.7L336.7,493.7z"/>
		<path class="st0" d="M272,500.9l2.5-1.7l1,3.5l0.8,6.1l-0.8,3.5l-2.5,5.6l0.7,3.5l-0.5,1.9l-1.6,2.5l2.9,1l4.7,2.5l3.3,0.2l1.2,1
			l1,0.8l0.8,0.5l1.3,0.8l3-0.3l1.5,0.7l1.3,0.7h1.2l0.8-4.7l1.8-2.5l2.2-2l3-2.8l0.2-1.7l-4-4.4l-2.2-1.8l-0.2-2.4l-1.5-2.9
			l-0.7-2.2l0.2-3.5l-2.4-1.9l-2.8-0.8l-2.7-2.7h-2.2l-3.9-0.4l-2.2-1l-5-2.5l0.2,3.2l0.5,1.8L272,500.9L272,500.9z"/>
		<path class="st0" d="M166.3,495.8l-0.8,0l-0.7,0.2l-2.4,1.3l-2.2,0.6l-2.3,0.7l-3.4,1l-0.8,2.9l-1.4,2.5l-0.5,1.5l0.2,2.2l3.7,0.7
			l4.7,1.7l1.5,2.5v3.9l-0.7,4.2l-1.2,3.9l-1.2,5.3l-0.5,2.7l2,0.2l1.3,0.7l0.8,0.7l1.7,1.2l4.7,2.2l3,1.5l3.3-0.5l2.4-0.6l3.2-0.2
			l1,1.2l1-2.4l0.5-5.9l3-3.2l2.4-1.7l1-2.7l2.7,0.2h2.5l-1.3-5.5l-1.3-2l-3.5-3.7l-4.5-5.4l-1.7-2.5l-0.2-4.7l4-3l-3.5-0.2
			l-3.8-0.4l-4.7-0.7l-4.9-0.3L166.3,495.8L166.3,495.8z"/>
		<path class="st0" d="M528,497.2v3.8l-4.9,2.9l-5.3,0.1l-6.9,0.5l-3.5,0.3l-3.2,1.3l-0.7,1l2.9,1.3l3,0.9l4.2,2.8l3.3,1.5l4.2,0.2
			l2,0.7l4.7,2.5h0.7l2-3.7l2-1.8l1-1.8l2.5-5.4l1.2-3.2l0.8-0.8l-1.5-2.2H533l-2.7-1.2L528,497.2L528,497.2z"/>
		<path class="st0" d="M318.6,505.7l-0.4,1l-3.5,2.9l-3.5,1.8l-4,2.5l-2.7,2l-3,2.7l0.5,1.5l-0.2,1.7l-3,2.8l-2.2,2l-1.8,2.5
			l-0.8,4.7h0.8l5.3,2.4l3.2,0.7l2.7,0.2l4.5,2.2l0.5,1.9l2,3.7l2.4,2.7l4.4,2.2l3.2,2.7l2.3,2.4l1.7,2v-1.9l1-1.7l2-4.7l3.2-5.5
			l1-3.7l3.3-4.2l3.5-6.9l0.3-5.2l2-1.3l-0.2-1.3l-1.9-1.4l-4.2-1.7l-0.4-1.7v-3l-0.8-2.5l0.5-5.4l1-1.2l-6.4-1.5l-1.5,0.5l-2,1.5
			l-1.8,1.5l-1.5,0.2l-2.7,1.8L318.6,505.7L318.6,505.7z"/>
		<path class="st0" d="M368.8,506.2l-7.3,5.3l0.2,2.4v3.2l0.8,3.4l2.3,1.9h3.5l0.2,3.5l1.2,3.2l5.3,4.1l-0.2-3l-0.2-4l0.5-4
			l-0.2-5.2l-0.5-4.2l-0.7-3.7l-2.5-1L368.8,506.2L368.8,506.2z"/>
		<path class="st0" d="M503.6,507.1l-4.2,7.7l-2.4,5.7l-3,5.9l-3,8.6l-4.4,8.5l0.2,3.7l1.4,4.2l0.3,5.2l0.2,3.2l-4.2,4.5l-1.5,3.5
			l-2.4,2.5l1.9-0.2l4,0.7l3,0.5l4-0.8l0.8-1.7l3.2-2.7l2.8-0.7l0.2-2.7V561l1.9-1.3l2-3l0.5-3.4l0.3-2.9l2.8-3.7l1.5-3.8l1.3-3.9
			l4.7-5.2l2.5-4l2.4-3.7l3.5-3.5l2-2.9l1.8-2.7l-4.7-2.5l-2-0.7l-4.2-0.2l-3.3-1.5l-4.2-2.8l-3-0.9L503.6,507.1L503.6,507.1z"/>
		<path class="st0" d="M361.5,511.6l-1.9,2.8l-2.5,3.9l-3.2,1.7l-3.4,0.5l-4.7,0.5l-2.5,0.8l-2,1.3l-0.3,5.2l-3.5,6.9l-3.3,4.2
			l-1,3.7l-3.2,5.5l-2,4.7l-1,1.7v1.9l-2.2,0.1l0.4,2.4v2l0.5,1.3v1.3l5.2-4.7l4.9-2.5l3.3-3l9.2-4.8l8.2-0.1l7.9-0.5l4-3.2l4.5-1.7
			l3.7-0.3l-0.2-1l-0.5-3.4l0.4-2.8l-0.2-2.5l-1-0.3l-5.3-4.1l-1.2-3.2l-0.2-3.5h-3.5l-2.3-1.9l-0.8-3.4v-3.2L361.5,511.6
			L361.5,511.6z"/>
		<path class="st0" d="M418.6,525.7l0.3,2.8l1.9,1.5l1.2,2.5l0.7,1.7l2.8,1.5l1.7,1.8l2,4l2.4,2.5l2.2,1.4l4.7,1.2l2.4,0.2l0.8,0.5
			l0.8,0.1l1.2,0.2l2.2-0.8l3.2-2l2.7-0.5l3.7-1.3l3-2.5l3.9-0.5l3.3-1.7v-2v-2.9l0.5-2.2l1.2-2.9l0.8-2.3l-1.8,0.3l-4-0.7l-2.5-2.7
			l-3-2.2l-1.7-0.5l-5.4-2.2l-1.3-0.8l-4-3.1l-3.7,0h-2.9l-3.2,2.5l-2.2,2l-2.5,1.2l-2.8,2l1,1.2l-0.5,1.7l-3.5,1.2h-1.5h-3.2
			L418.6,525.7L418.6,525.7z"/>
		<path class="st0" d="M135.3,514.8l0.8,4.9l0.1,3.2l3.2,3.7l5.4,4.4l3.7,1.9l1.9,0.7l1.3,0.2h2.4l2.8-0.2l0.8,0h0.7l0.5-2.7
			l1.2-5.3l-1.8-2.9l-1.4-0.7l-3.8-2.5l-2.2-1.9l-2.7-1.7l-4.5-1l-5.7-0.2L135.3,514.8z"/>
		<path class="st0" d="M234,515.2h-3.2l-3.5-0.2l-5.7,1.5l-3.8,1.2l-2.2,0.5l-1.8,0.7l-1.4,0.3l0.5,1.7l-1.7,3.2l-2.2,2l-1.8,3.9
			l0.5,2.7l5,3.4l5.4,1.4l3.2,1.5l3.5,2.9l1.4,1.7l3.5,2.8l2.2-2.5l1-2.5l1.2-3.2l2.4-1.5l1.3-0.5l0.7-0.5l1-2.9l0.2-0.7l0.3-1.2
			l-4-4.4l-0.7-1.4l-1.2-2l-0.8-1.7l0.2-1.7l0.4-3.3L234,515.2L234,515.2z"/>
		<path class="st0" d="M212.3,519.2l-0.8-0.4h-3.4l-5.2,0l-0.5,3.5l-2.8,1.5l-2.9,0.5l-1.8,0h-2.5l-2.7-0.2l-1,2.7l-2.4,1.7l-3,3.2
			l-0.5,5.9l-1,2.4l1.2,1.5l0.8,1.3l0.5,1.4l0.8,2.5l0.5,0.7l2,3.5l2.2,2.7l1,1.9l2.2,1l4.2,0.7l2.5,4l2.7,2.9l2.7,1l2-0.7l0.8-0.8
			h0.7l0.7,1.1l3.6-3.9l3-4.4l1.3-2.2l4-1.2l3.5-1.7l3.9-1.8l0.8-3.2l-3.5-2.8l-1.4-1.7l-3.5-2.9l-3.2-1.5l-5.4-1.4l-5-3.4l-0.5-2.7
			l1.8-3.9l2.2-2l1.7-3.2L212.3,519.2L212.3,519.2z"/>
		<path class="st0" d="M414.1,521.2l-1.8,0.5l-2.2,1.8l-3.2,3.2l-2,2.7l-1.5,2.9l-2.3,4.5l-1.3,2.5l0.8,2.4l3.9-0.6l0.7,1.7l2.4,4.2
			l1.5,5.4l1.2-1.7l0.2-1.5l1.3-2l1.8-2.7l0.4-3.5l1.5-1.5l1.5-2.2l2.7-2.8l1.8,0.2l1.3-0.2l-0.7-1.7l-1.2-2.5l-1.9-1.5l-0.3-2.8
			l-0.8-0.8l-1.3-1.5l-0.4-1.3L414.1,521.2L414.1,521.2z"/>
		<path class="st0" d="M422.6,534.3l-1.3,0.2l-1.8-0.2l-2.7,2.8l-1.5,2.2l-1.5,1.5l-0.4,3.5l-1.8,2.7l-1.3,2l-0.2,1.5l-1.2,1.7
			l1.8,0.8l0.7,1l0.4,0.8l2.4,0.2l2.2-0.3l3.3-1.5l6.9-0.5l2.9,0l2.2-0.4h0.8l5.2,3.7l0.8-0.7l2-1.5l6.4-2.2l-4.4-4.2l-0.8-0.1
			l-0.8-0.5l-2.4-0.2l-4.7-1.2l-2.2-1.4l-2.4-2.5l-2-4l-1.7-1.8L422.6,534.3L422.6,534.3z"/>
		<path class="st0" d="M442.4,547.7l4.4,4.2l-6.4,2.2l-2,1.5l-0.8,0.7l0.5,3.4l0.7,2.5l-6,2.3l-2.5,4L427,572l-3.3,2l-1.5,1.3
			l-0.2,2.5l1,3l3.5,0.9l1.2,1.7l-0.3,2.8l-0.7,2.4h0.7h4.9l1.8,0l5.6-0.7l1.7-2.3l2.8-2l2.5-0.5l2-0.2l1.8,0.2l6-3.3L453,578
			l8.1-3.7l5-3.5l1.7-4.4l-0.8-7.2v-2.9l-2.4-3.4l0.3-3.5l4.7-3l1.3-2l-1.7-2.8l-2.8-1.7l-0.8-1.3l-3.3,1.7l-3.9,0.5l-3,2.5
			l-3.7,1.3l-2.7,0.5l-3.2,2l-2.2,0.8L442.4,547.7L442.4,547.7z"/>
		<path class="st0" d="M399.7,539.3l-3,1.2l-5.5,3.3l-4.2,0.3l-4.2,0.1l-0.3,1l-1.5,2l-0.2,1.5v1.8v2.8l-1,2l-0.3,2.2l-0.5,1.7
			l2-0.2l3.4,2h1.3l3.3-2.2l4-1.3l3.9-1.2l4-1l1.9-1.2l1-0.2h1.7l2.2-1.3l1.3-0.7l-1.5-5.4l-2.4-4.2l-0.7-1.7l-3.9,0.6L399.7,539.3
			L399.7,539.3z"/>
		<path class="st0" d="M597.3,544.1l-1.2,0.7l-0.2,2l-2,3.2h-3.3l-3.7-3.2l-2.9-3l-2.2-0.8l-3,0.5l-3.2,4.2l-5,2.2l-3.5,2.3l-3,3.7
			l-0.2,3.3l0.3,3l-0.3,1.4l-3.2,5l2.4-0.5l4.3,0.9l2.2,2.8l3.4,2.2l2.9,2l2.4,3.4l3.3,3.5l2.2,3.9l1.2,1.8l2.7-1.2l3.8,6.2l1.7,1.9
			l2,3.9l1.2-0.3l2-2.2l1.8-2.7l1.8-5.2l1-2.8l1.3-0.7l1.8-2.2l0.8-4.4l1.3-3.7l3.7-2.2l2.5-0.7l3-0.2l4-1.7l4.2-1.7l2.7-3.4h-1.2
			l-0.1-1l1.2-2l0.2-0.7l-2.7-2.7l-3.3-2.2l-3.7-1l-6.5-1.7l-5.5-0.9l-3.9-3.4l-1.2-2l-2-0.4L597.3,544.1L597.3,544.1z"/>
		<path class="st0" d="M382.4,545.3l-4.2-0.2l-1.2-1.3l-0.5-0.5l-3.7,0.3l-4.5,1.7l-4,3.2l-7.9,0.5l-8.2,0.1l-9.2,4.8l-3.3,3
			l-4.9,2.5l-5.2,4.7l-0.3,3.9l1.3,2.5l0.2,1.3l1.2,1.5l0.5,0.7l3.7,4.7l1.3,1.3l3.5,5.4l1.3,4.2l2,0.7l3.7,0.2l-0.7-4.7l1.5-4.5
			l2.4-3.5l3.9-2.3l4-2l4.5-1.5l3.8-3.2l1.7-0.5l2.2-2.5l1.3-0.7l2.7-1.3l2.5-1.5l2.4-1.2l2.7-1.7l0.5-1.7l0.3-2.2l1-2v-2.8v-1.8
			l0.2-1.5L382.4,545.3L382.4,545.3z"/>
		<path class="st0" d="M408.9,552.2l-1.3,0.7l-2.2,1.3h-1.7l-1,0.2l-0.2,1.8l0.2,4v2l-2.7,2.7l-0.2,3l4.7,3.9l0.5,2.5l-0.2,2
			l1.7,2.4l-0.8,3.5l-0.2,3.5l-0.2,3.9l0.5,2l1.3,1.9l1,2.4l1.3,4.4l2.4,4l2.8,3.7l2.5,4.4l1.7,3.5l0.5,0.7l3,2l2-2l2.5-2.9l2-2.8
			l-1.3-2.7l-1.9-3.4l-0.3-3.2l1-3.7l-1.8-3.4l-0.7-2.8v-2.5l2.7-0.6l0.7-2.4l0.3-2.8l-1.2-1.7l-3.5-0.9l-1-3l0.2-2.5l-2-1.4
			l-2.4-0.7l-1-1.9l-0.2-2.2l-0.2-1.5l0.2-1.7l-0.5-2.7l-0.5-2.4l-0.7-3.7l-0.2-0.8l-0.7-1.4l-2.4-0.2l-0.4-0.8l-0.7-1L408.9,552.2
			L408.9,552.2z"/>
		<path class="st0" d="M414.1,555.1l0.7,1.4l0.2,0.8l0.7,3.7l0.5,2.4l0.5,2.7l-0.2,1.7l0.2,1.5l0.2,2.2l1,1.9l2.4,0.7l2,1.4l1.5-1.3
			l3.3-2l3.2-3.5l2.5-4l6-2.3l-0.7-2.5l-0.5-3.4l-5.2-3.7h-0.8l-2.2,0.4l-2.9,0l-6.9,0.5l-3.3,1.5L414.1,555.1L414.1,555.1z"/>
		<path class="st0" d="M378.9,559.3l-1.2,8.4l1.1,0.2l1.4,0.2h3.7l2.4,1l3.5,1.4l3.9,1l1,2.5l3.4,1l2.5,1.7l4.4-0.3l0.2-2l-0.5-2.5
			l-4.7-3.9l0.2-3l2.7-2.7v-2l-0.2-4l0.2-1.8l-1.9,1.2l-4,1l-3.9,1.2l-4,1.3l-3.3,2.2h-1.3l-3.4-2L378.9,559.3L378.9,559.3z"/>
		<path class="st0" d="M378.8,567.9l-1.1-0.2l1.2-8.4l-2.7,1.7l-2.4,1.2l-2.5,1.5l-2.7,1.3l-1.3,0.7l-2.2,2.5l-1.7,0.5l0.5,3
			l1.5,3.7l0.8,2.5l1.5,2.5l0.3,3.2l-0.2,4l0.7,2.7l1,0.3l0.5-2.7l2.8-1.7l2.4-0.6l2.2-5.7l-0.2-4.4l0.7-3.3L378.8,567.9
			L378.8,567.9z"/>
		<path class="st0" d="M404.9,576.4l-4.4,0.3L398,575l-3.4-1l-1-2.5l-3.9-1l-3.5-1.4l-2.4-1h-3.7l-1.4-0.2l-0.7,4.4l-0.7,3.3
			l0.2,4.4l-2.2,5.7l-2.4,0.6l-2.8,1.7l-0.5,2.7l-1.5,1.5l-2.4,3.4l2.4,1.1l3.3,1.9l5.7-0.1l3.4-0.7l5.5-0.6l3.3,1l0.8-0.7l1.7-1.7
			l2.7-1.2l4.2-0.5l2.4-2.2l4.7-0.3l-0.5-2l0.2-3.9l0.2-3.5l0.8-3.5L404.9,576.4L404.9,576.4z"/>
		<path class="st0" d="M363.5,568.7l-3.8,3.2l-4.5,1.5l-4,2l-3.9,2.3l-2.4,3.5l-1.5,4.5l0.7,4.7l1.7,0.2l2.2,4l0.8,4.5l0.2,4
			l0.3,6.4l2,2l1.5-2.2l1.5-3.5l3-1.7l3-3l4-2.2l0.8-2.9l-0.2-1l0.8,0.4l2.4-3.4l1.5-1.5l-1-0.3l-0.7-2.7l0.2-4l-0.3-3.2l-1.5-2.5
			l-0.8-2.5l-1.5-3.7L363.5,568.7L363.5,568.7z"/>
		<path class="st0" d="M493.5,570.6l-4,0.8l-3-0.5l-4-0.7l-1.9,0.2h-1l-2.2,2l-3,2.2l-2.2,1.5l-5.5,0.8l-3.8,0.3l-3.9,1.3l-2.5,1.3
			l-6,3.3l-1.8-0.2l-2,0.2l-2.5,0.5l-2.8,2l-1.7,2.3l-5.6,0.7l-1.8,0h-4.9h-0.7l-2.7,0.6v2.5l0.7,2.8l1.8,3.4l-1,3.7l0.3,3.2
			l1.9,3.4l1.3,2.7l-2,2.8l-2.5,2.9l-2,2l2-0.3l4.4-0.7l4-0.8l4.9-1l1-0.2l1.7-0.8l2.7-3.5l4.2-2.5l4.2-0.5l2.8-0.8l2.8,0l2,1.5
			l2-0.5l3-1.3l3.4-2.5l2.3-1.5l3.2-3l3.2-3l5.7-4.7l0.7-0.7l1.8-0.3l1.9-0.3l2.2-0.5l2.7-0.5l0.7-0.5l3.9-2.5l-0.5-1.7l-0.3-1.9
			v-2.5l2-3l0.8-2.2l-1.5-3.4L493.5,570.6L493.5,570.6z"/>
		<path class="st0" d="M482.7,591.8l0.7,1.2v1.7l-0.5,1.5l-0.5,2.7l0.8,1.5v1.9l-3,1.7l-2.8,1.7l-1.2,1.5l0.7,2.4l1.2,1.4v1.8v3.4
			l2,3.7l1.5,3.5l2.8,1.7l2.5,0.8h3.5l2.8,1l2.4-2l1.5-1.9l2.8-4l2-2.8l0.3-2l0.3-5.2l1.3-6.4l-1-3.4l-3.9-2.5l-1.5-2.4l-1.5-3.9
			l-0.3-3.2l-3.9,2.5l-0.7,0.5l-2.7,0.5l-2.2,0.5l-1.9,0.3L482.7,591.8L482.7,591.8z"/>
		<path class="st0" d="M405.9,591.7l-4.7,0.3l-2.4,2.2l-4.2,0.5l-2.7,1.2l-1.7,1.7l-0.8,0.7l-1.3,1.2l0.2,1.4v2.5l-0.4,3.2l1.2,3.4
			l1.2,3.9l0.5,2.4l0.1,1.8l2.4,1.5v3.7v2.5l-0.1,3.7l1.3,2.7l2,2.4l1.7,2l0.7,2l0.2,0.8l2.3-0.5l3.5-0.8l4.4-1.3l4-3.3l3.4-2.2
			l2.9-1.8l1-3.3l0.2-4l1.8-3.2l-3-2l-0.5-0.7l-1.7-3.5l-2.5-4.4l-2.8-3.7l-2.4-4l-1.3-4.4l-1-2.4L405.9,591.7L405.9,591.7z"/>
		<path class="st0" d="M482.7,591.8l-0.7,0.7l-5.7,4.7l-3.2,3l-3.2,3l-2.3,1.5l-3.4,2.5l-3,1.3l0.1,1.9l2.5,3.2l1.5,1.5l2,2.2
			l2.5,4.7l1,1.2l3.5,5.5l1.3,1l0.5,1.9l12.4-2.8l4.5-2l-2.8-1h-3.5l-2.5-0.8l-2.8-1.7l-1.5-3.5l-2-3.7v-3.4v-1.8l-1.2-1.4l-0.7-2.4
			l1.2-1.5l2.8-1.7l3-1.7v-1.9l-0.8-1.5l0.5-2.7l0.5-1.5V593L482.7,591.8L482.7,591.8z"/>
		<path class="st0" d="M389.5,598.2l-3.3-1l-5.5,0.6l-3.4,0.7l-5.7,0.1l-3.3-1.9l-2.4-1.1l-0.8-0.4l0.2,1l-0.8,2.9l-4,2.2l-3,3
			l-3,1.7l-1.5,3.5l-1.5,2.2l1,6.2l4.5,5.4l2,4.2l0.7,3l0.5,2.7l6.2,1.7l2.2-1l2.2-1.3l2.4-1.5l2.8-1.2l1.2,0.2l1.3-2l2-1.5l2.2-1.8
			l3.3-2l2-2l3.2-2v-0.8l-0.1-1.8l-0.5-2.4l-1.2-3.9l-1.2-3.4l0.4-3.2v-2.5l-0.2-1.4L389.5,598.2L389.5,598.2z"/>
		<path class="st0" d="M461.2,608.5l-2,0.5l-2-1.5l-2.8,0l-2.8,0.8l-4.2,0.5l-4.2,2.5l-2.7,3.5l-1.7,0.8l-1,0.2l-4.9,1l-4,0.8
			l-4.4,0.7l-2,0.3l3.2,5.1l1.8,3.7l4.2,4.6l1.9,4.7l-2.4,3.7l-0.8,3.2l0.3,4.7l0.8,4l1.7,2.5l1.8,0h3.9l5.9-0.3l4.7,1.7l2.7-0.2
			l5.5-5.2l5.7-0.6l4.7-1.7l2.2-1.2l0.7-2.7l-1-6l0.3-1.2l1.9-1.7l0.7-1l2.2-1.5l1.3-1.7l-0.5-1.9l-1.3-1l-3.5-5.5l-1-1.2l-2.5-4.7
			l-2-2.2l-1.5-1.5l-2.5-3.2L461.2,608.5L461.2,608.5z"/>
		<path class="st0" d="M502.3,614.1l-0.3,2l-2,2.8l-2.8,4l-1.5,1.9l-2.4,2l-4.5,2l-12.4,2.8l-1.3,1.7l-2.2,1.5l-0.7,1l-1.9,1.7
			l-0.3,1.2l1,6l1,1.2l2.5,4.9l5.3,0.5l2.8,7.4l-4,3.5l3.3,3.1l4.9-0.1l1.8,3.9l5.4-1.3l3.7,2.4l0.2,4.4l-1.3,4.2l-0.5,2.5l2,0.5
			l2-0.8l2.5-0.7l1.3-0.3l2.2-0.8l2.7-0.7l1.2-0.7l2.8-1.5l2.4-0.8l3.3-2.3l2.4-1.5l3-2.3l2.8-1.8l3-3.3l0.8-0.4l0.7-0.4l0.8-1.7
			l-0.3-0.7l-1-3.9l0.5-2.2l0.8-3.2l-1-2l-2.9-1.7l-1.5-1l-4.9-5.4l-3.2-3.5l-2.8-3.4l1.2-3.9l1.3-3.7l2.7-6.4l2.8-5.5l-2.5,0.3
			l-1.8,0.2l-2.8,1l-1.7-0.2l-4.7,0l-1.7-1l-4.7-0.8L502.3,614.1L502.3,614.1z"/>
		<path class="st0" d="M391,617.8v0.8l-3.2,2l-2,2l-3.3,2l-2.2,1.8l-2,1.5l-1.3,2l1.4,0.5l1.2,4l-0.5,4.7l1.7,2.5l2.5,2.4l1.3,1.7
			l2.2,1.9l2.8,2.4l1.9,1.9l1.7,0.2l0.8-0.5l1.5-2.2l0.5-1.7l0.8-2.4l2-3v-1.2l0.4-2l-0.2-0.8l-0.7-2l-1.7-2l-2-2.4l-1.3-2.7
			l0.1-3.7V623v-3.7L391,617.8L391,617.8z"/>
		<path class="st0" d="M422.5,618.6l-1.8,3.2l-0.2,4l-1,3.3l-2.9,1.8l-3.4,2.2l-4,3.3l-4.4,1.3l-3.5,0.8l-2.3,0.5l-0.4,2v1.2l-2,3
			l-0.8,2.4l-0.5,1.7l-1.5,2.2l-0.8,0.5l-0.7,2l-1.7,2.8l-0.5,2.7v1.5l-1.5,4l-0.4,3.2l0.5,1.3l0.8,1.5l1.3,1.7l1.7,0.2l4.2,0.2
			l5.5-2.3l6.7-4l7.2-2.5l5.3,1l3,2l3.9-3.8l4.5-2.3l3.7-0.3l-0.4-2.2l-1-2.8l-2.2-1.2l-1.7-2.5l-0.8-4l-0.3-4.7l0.8-3.2l2.4-3.7
			l-1.9-4.7l-4.2-4.6l-1.8-3.7L422.5,618.6L422.5,618.6z"/>
		<path class="st0" d="M361.1,634.6l0.5,0.7l1.2,3.7l0.8,1.7l-0.3,5.5l-0.2,3.9l-1,2.7l-0.4,1.3l5.4,3.9l1.3-0.1l2-0.5l1.3-0.3
			l2-2.5l2-2l4.7-0.8l3.7-1.5l1.7-1.2l-1.3-3.2l-1.3-1.7l-2.5-2.4l-1.7-2.5l0.5-4.7l-1.2-4l-1.4-0.5l-1.2-0.2l-2.8,1.2l-2.4,1.5
			l-2.2,1.3l-2.2,1l-6.2-1.7L361.1,634.6L361.1,634.6z"/>
		<path class="st0" d="M471,644.7l-0.7,2.7l-2.2,1.2l-4.7,1.7l-5.7,0.6l-5.5,5.2l-2.7,0.2l-4.7-1.7l-5.9,0.3h-3.9l-1.8,0l2.2,1.2
			l1,2.8l0.4,2.2v5l2.4,6.5l2,4.2l-0.2,2.9l1.5,7.6l0.7,3.9l-0.2,4l-0.8,3.9l0.5,1.8l6.5,1l4.2,2.2l3.7,0.5l0.8-3.4l1-1.8l4.7,0.4
			l3-3.2l5-3l7-6.7l4.7-4l4.7-0.2l7.7,0l2.3-1.2l-2-0.5l0.5-2.5l1.3-4.2l-0.2-4.4l-3.7-2.4l-5.4,1.3l-1.8-3.9l-4.9,0.1l-3.3-3.1
			l4-3.5l-2.8-7.4l-5.3-0.5l-2.5-4.9L471,644.7L471,644.7z"/>
		<path class="st0" d="M384.5,645.8l1.3,3.2l-1.7,1.2l-3.7,1.5l-4.7,0.8l-2,2l-2,2.5l-1.3,0.3l-2,0.5l-1.3,0.1l-5.4-3.9l-1.3,3.4
			l6.9,3.9h1.3l1.7-0.2l4.3,3.1l2.7,0.4l2.8-1.7l2.7-1l5-0.6l2.3-0.2v-1.5l0.5-2.7l1.7-2.8l0.7-2l-1.7-0.2l-1.9-1.9l-2.8-2.4
			L384.5,645.8z"/>
		<path class="st0" d="M360.4,657.5l0.5,3.9l-1.7,1.8L359,665l-0.7,2.5l-0.8,3.2l-1.7,2l-0.2,0.8l-0.3,1.2l-0.2,1l5.5,2l3,2.4h2.2
			l3.3-0.5l2.5-0.7l1-0.4l1-0.3l2.2,0.2l-1.9-3L373,673l-0.5-2l-2.7-5.7l-2.5-3.9L360.4,657.5L360.4,657.5z"/>
		<path class="st0" d="M436.8,661l-3.7,0.3l-4.5,2.3l-3.9,3.8l-3-2l-5.3-1l-7.2,2.5l-6.7,4l-5.5,2.3l0.5,3.4l2.2,3.4l2.3,7.1l-3,3.7
			l-2.5,4.5l2.5,1.3l1,4l-0.2,2.9l0.7,1.4l2.9-0.2l5.5-3.7l3.5-3.2h2.8l1.9,2.9l2,3l1.3-2.2l1.3-2.2l2.7-3.5l1.3-1.7l3.7-2.2l4-1.2
			l3.9-1.2l3.3-1.2l1.8-1.3l-1.5-7.6l0.2-2.9l-2-4.2l-2.4-6.5L436.8,661L436.8,661z"/>
		<path class="st0" d="M390.2,661.1l-2.3,0.2l-5,0.6l-2.7,1l-2.8,1.7l-2.7-0.4l-4.3-3.1l-1.7,0.2h-1.3l2.5,3.9l2.7,5.7l0.5,2
			l1.2,2.5l1.9,3l1.2-0.5l2.2-0.5l2-1.5l1.9-1.3l2.8-1.3l2.2-1.8l1.5-0.3l-0.8-1.5l-0.5-1.3l0.4-3.2L390.2,661.1L390.2,661.1z"/>
		<path class="st0" d="M389.7,671.2l-1.5,0.3l-2.2,1.8l-2.8,1.3l-1.9,1.3l-2,1.5l-2.2,0.5l-1.2,0.5l-2.2-0.2l-1,0.3l-1,0.4l0.3,3
			l-2.2,4.2l-2.2,1.3l-1,1.7l-0.2,2.4l-1.2,4.5l0.2,3.5l0.5,2l-4.2,2.8l4-0.1l5.2,0.5l5.4,0.4l1.7-0.2l3.2-1.3l0.7-1.8l0.8-3.4
			l1.5-4.9l1.3-3.3l2.8-2.9l-0.3-2.7l3.8-6.1l0.2-2.7l0.5-3l-1.7-0.2L389.7,671.2L389.7,671.2z"/>
		<path class="st0" d="M392.7,673.1l-0.5,3l-0.2,2.7l-3.8,6.1l0.3,2.7l-2.8,2.9l-1.3,3.3l-1.5,4.9l-0.8,3.4l-0.7,1.8l-3.2,1.3l4.7-1
			l3.5-1l3.2,0.3l5-3.3l4.4-3.5l-2.5-1.3l2.5-4.5l3-3.7l-2.3-7.1l-2.2-3.4l-0.5-3.4L392.7,673.1L392.7,673.1z"/>
		<path class="st0" d="M371.8,679l-2.5,0.7l-3.3,0.5h-2.2l-3-2.4l-5.5-2l-0.7,2.2l-2.4,2.8l-1.7,2.8l-3.2,6.4l-1.7,3.9l-0.4,1.7
			l0.4,2l0.8,1.5l0.7,0.5v1.2l1,1.2l0.7,0.7l1.4,0.7l2.3,1.7l2.8-0.3h1.7l1,0l2.7-0.2h1.2l4.2-2.8l-0.5-2l-0.2-3.5l1.2-4.5l0.2-2.4
			l1-1.7l2.2-1.3l2.2-4.2L371.8,679L371.8,679z"/>
		<path class="st0" d="M442.7,700.8l0.1,4l-0.8,6.4l-1.5,6.4l2.7,6.4l2.4,4.7l0.1,0l0.4,1.9l0.5,5.5v4.7l-0.5,3.1v2.1l-1.4,6.2v4
			v3.6l1.9,2.9l0.7,3.3l1,1.7l3.1,1.9l0.7,0.6l1.3,0.4l2.4,1l2,0.2l4-0.6l3.4-1.7l2.9-0.1h1.5l0.8,0.5l2.2,0.3l2-0.5l1.5-2.7
			l1.3-2.8l1.3-2.3l1-2.5l1.2-3.2l0.8-2.7l1.5-2l3.7-1.7l2.3,1v-1.3l0.2-0.8l-0.7-2.9l-0.4-2.8l-1.7-7.4l-3.5-3.4l1.2-0.5l1.3-3
			l1-2.2l1-1.8l0.5-1.7l1.5-4.5l1.7-3.3l0.8-3.2l1-4.4l1.3-6.4l0.2-6.9l-0.5-3.4l4-9.2l-2.3,1.2l-7.7,0l-4.7,0.2l-4.7,4l-7,6.7l-5,3
			l-3,3.2l-4.7-0.4l-1,1.8l-0.8,3.4l-3.7-0.5l-4.2-2.2L442.7,700.8L442.7,700.8z"/>
		<path class="st0" d="M442.5,687.2l-1.8,1.3l-3.3,1.2l-3.9,1.2l-4,1.2l-3.7,2.2l-1.3,1.7l-2.7,3.5l-1.3,2.2l-1.3,2.2l0.3,2.5
			l-0.7,4.9l-2.3,3.7l-3.2,5l-5,4.7l-1.7,5.2l1.8,3.9l1.2,3.3l-4.2,0.2l3.3,2l2.4,3.1l0.8,2l0.3,2.2l1.3,3.4l1,2l2.4,0.7h3l5.7-0.3
			l4.2-0.3l1.5-0.3l4,1.2l1,3.5l-0.4,4l-0.2,2.4l1.5,2.4l4,1.2l2.3,1.5l8.3,2.5l-0.7-0.6l-3.1-1.9l-1-1.7l-0.7-3.3l-1.9-2.9v-3.6v-4
			l1.4-6.2v-2.1l0.5-3.1v-4.7l-0.5-5.5l-0.4-1.9l-0.1,0l-2.4-4.7l-2.7-6.4l1.5-6.4l0.8-6.4l-0.1-4l-0.5-1.8l0.8-3.9l0.2-4
			L442.5,687.2L442.5,687.2z"/>
		<path class="st0" d="M419.1,703.7l-2-3l-1.9-2.9h-2.8l-3.5,3.2l-5.5,3.7l-2.9,0.2l-0.7-1.4l0.2-2.9l-1-4l-4.4,3.5l-5,3.3l-3.2-0.3
			l-3.5,1l-4.7,1l3.4,0l3.2,1.7l1.3,1.3l2.4,1.2l2.5,1.9l0.8,1.3v1.5l-0.5,2.4l3.3,1.5l1,2.2l0.2,3.5l-1.2,5.9l-0.2,1.7l0.5,0.8
			l3.9,2.2l4.4,1.9l1,0.4l1.2,0.7l4.2-0.2l-1.2-3.3l-1.8-3.9l1.7-5.2l5-4.7l3.2-5l2.3-3.7l0.7-4.9L419.1,703.7L419.1,703.7z"/>
	</g>
</g>
<g>
	<g>
		
			<rect x="974.5" y="185.4" transform="matrix(0.8005 -0.5993 0.5993 0.8005 82.9703 621.6414)" class="st1" width="1.6" height="1.6"/>
		<path class="st1" d="M941.7,225.5l-1.3-0.8l1.6-2.7l1.3,0.8L941.7,225.5z M946.1,218.1l-1.3-0.8l1.6-2.7l1.3,0.8L946.1,218.1z
			 M950.6,210.6l-1.3-0.8l1.6-2.7l1.3,0.8L950.6,210.6z M955.1,203.2l-1.3-0.8l1.1-1.8l1.1-0.8l0.9,1.3l-0.8,0.6L955.1,203.2z
			 M961.3,197.7l-0.9-1.3l2.5-1.9l0.9,1.3L961.3,197.7z M968.2,192.5l-0.9-1.3l2.5-1.9l0.9,1.3L968.2,192.5z"/>
		<polygon class="st1" points="937.8,232 935.8,232 935.8,230.4 936.9,230.4 937.5,229.4 938.8,230.2 		"/>
		<path class="st1" d="M930.3,232h-3.1v-1.6h3.1V232z M921.7,232h-3.1v-1.6h3.1V232z M913,232h-3.1v-1.6h3.1V232z M904.4,232h-3.1
			v-1.6h3.1V232z M895.8,232h-3.1v-1.6h3.1V232z M887.1,232H884v-1.6h3.1V232z M878.5,232h-3.1v-1.6h3.1V232z M869.8,232h-3.1v-1.6
			h3.1V232z M861.2,232h-3.1v-1.6h3.1V232z M852.6,232h-3.1v-1.6h3.1V232z"/>
		<polygon class="st1" points="843.2,232.7 841.6,232.7 841.6,230.4 843.9,230.4 843.9,232 843.2,232 		"/>
		<path class="st1" d="M838.1,267.1L837,266l2.3-2.3l1.1,1.1L838.1,267.1z M843.2,259.5h-1.6v-3.2h1.6V259.5z M843.2,250.6h-1.6
			v-3.2h1.6V250.6z M843.2,241.7h-1.6v-3.2h1.6V241.7z"/>
		<polygon class="st1" points="832.9,272.5 831,272.5 831,271 832.2,271 833.1,270.1 834.2,271.2 		"/>
		<path class="st1" d="M825.5,272.5h-3.1V271h3.1V272.5z M817,272.5h-3.1V271h3.1V272.5z"/>
		<polygon class="st1" points="807.6,273.3 806.1,273.3 806.1,271 808.4,271 808.4,272.5 807.6,272.5 		"/>
		<path class="st1" d="M807.6,301.3h-1.6v-3.4h1.6V301.3z M807.6,292h-1.6v-3.4h1.6V292z M807.6,282.7h-1.6v-3.4h1.6V282.7z"/>
		<polygon class="st1" points="808.4,309.6 806.1,309.6 806.1,307.3 807.6,307.3 807.6,308.1 808.4,308.1 		"/>
		<path class="st1" d="M944.4,309.6h-3.1v-1.6h3.1V309.6z M935.9,309.6h-3.1v-1.6h3.1V309.6z M927.4,309.6h-3.1v-1.6h3.1V309.6z
			 M918.9,309.6h-3.1v-1.6h3.1V309.6z M910.4,309.6h-3.1v-1.6h3.1V309.6z M901.9,309.6h-3.1v-1.6h3.1V309.6z M893.4,309.6h-3.1v-1.6
			h3.1V309.6z M884.9,309.6h-3.1v-1.6h3.1V309.6z M876.4,309.6h-3.1v-1.6h3.1V309.6z M867.9,309.6h-3.1v-1.6h3.1V309.6z
			 M859.4,309.6h-3.1v-1.6h3.1V309.6z M850.9,309.6h-3.1v-1.6h3.1V309.6z M842.4,309.6h-3.1v-1.6h3.1V309.6z M833.9,309.6h-3.1v-1.6
			h3.1V309.6z M825.4,309.6h-3.1v-1.6h3.1V309.6z M816.9,309.6h-3.1v-1.6h3.1V309.6z M949.8,309.5l-0.1-1.6l3.1-0.2l0.1,1.6
			L949.8,309.5z M958.3,309.1l-0.1-1.6l3.1-0.2l0.1,1.6L958.3,309.1z M966.8,308.7l-0.1-1.6l3.1-0.2l0.1,1.6L966.8,308.7z
			 M975.3,308.2l-0.1-1.6l3.1-0.2l0.1,1.6L975.3,308.2z"/>
		
			<rect x="983.7" y="306.2" transform="matrix(0.9988 -4.930457e-02 4.930457e-02 0.9988 -13.9395 48.9128)" class="st1" width="1.6" height="1.6"/>
	</g>
	<g>
		
			<rect x="1113.9" y="86.7" transform="matrix(0.3574 -0.934 0.934 0.3574 634.552 1097.2793)" class="st1" width="1.6" height="1.6"/>
		<path class="st1" d="M1117.7,81.8l-1.5-0.6l1.1-3l1.5,0.6L1117.7,81.8z M1120.8,73.6l-1.5-0.6l1.1-3l1.5,0.6L1120.8,73.6z
			 M1124,65.4l-1.5-0.6l1.1-3l1.5,0.6L1124,65.4z M1127.1,57.1l-1.5-0.6l1.1-3l1.5,0.6L1127.1,57.1z M1130.3,48.9l-1.5-0.6l1.1-3
			l1.5,0.6L1130.3,48.9z M1133.4,40.6l-1.5-0.6l1.1-3l1.5,0.6L1133.4,40.6z"/>
		<polygon class="st1" points="1136.6,32.4 1135.1,31.8 1135.2,31.5 1134.9,31.6 1134.8,30 1137.6,29.8 		"/>
		<path class="st1" d="M1104.2,34.4h-2.9v-1.6l3,0l0.1,1.6L1104.2,34.4z M1095.9,34.4h-3.1v-1.6h3.1V34.4z M1087.5,34.4h-3.1v-1.6
			h3.1V34.4z M1079.1,34.4h-3.1v-1.6h3.1V34.4z M1070.6,34.4h-3.1v-1.6h3.1V34.4z M1062.2,34.4h-3.1v-1.6h3.1V34.4z M1053.8,34.4
			h-3.1v-1.6h3.1V34.4z M1109.7,33.9l-0.1-1.6l3-0.3l0.1,1.6L1109.7,33.9z M1118.1,33.1l-0.1-1.6l3.1-0.3l0.1,1.6L1118.1,33.1z
			 M1126.5,32.4l-0.1-1.6l3-0.3l0.1,1.6L1126.5,32.4z"/>
		<polygon class="st1" points="1044,35.4 1042.5,34.8 1043.3,32.9 1045.4,32.9 1045.4,34.4 1044.3,34.4 		"/>
		
			<rect x="1038.2" y="42.2" transform="matrix(0.3708 -0.9287 0.9287 0.3708 614.4395 992.9644)" class="st1" width="3.8" height="1.6"/>
		<polygon class="st1" points="1036.9,53.1 1034.8,53.1 1034.8,51.6 1035.8,51.6 1036.2,50.6 1037.6,51.2 		"/>
		<path class="st1" d="M1029,53.1h-3.3v-1.6h3.3V53.1z M1019.9,53.1h-3.3v-1.6h3.3V53.1z M1010.8,53.1h-3.3v-1.6h3.3V53.1z
			 M1001.7,53.1h-3.3v-1.6h3.3V53.1z M992.6,53.1h-3.3v-1.6h3.3V53.1z M983.5,53.1h-3.3v-1.6h3.3V53.1z M974.5,53.1h-3.3v-1.6h3.3
			V53.1z M965.3,51.6l-2.4-2.3l1.1-1.1l2.4,2.3L965.3,51.6z"/>
		<polygon class="st1" points="958.9,45.2 957.5,43.9 957.5,42 959.1,42 959.1,43.3 960,44.1 		"/>
		<path class="st1" d="M959.1,36.5h-1.6v-3.2h1.6V36.5z M959.1,27.8h-1.6v-3.2h1.6V27.8z M959.1,19.2h-1.6V16h1.6V19.2z"/>
		<polygon class="st1" points="959.1,10.5 957.5,10.5 957.5,9.7 956.7,9.7 956.7,8.1 959.1,8.1 		"/>
		<path class="st1" d="M952,9.7h-2.7V8.1h2.7V9.7z M944.6,9.7h-2.7V8.1h2.7V9.7z M937.2,9.7h-2.7V8.1h2.7V9.7z"/>
		<polygon class="st1" points="929.1,10.5 927.5,10.5 927.5,8.1 929.8,8.1 929.8,9.7 929.1,9.7 		"/>
		<path class="st1" d="M929.1,24.6h-1.6V22h1.6V24.6z M929.1,17.5h-1.6V15h1.6V17.5z"/>
		<polygon class="st1" points="929.1,31.4 926.7,31.4 926.7,29.9 927.5,29.9 927.5,29.1 929.1,29.1 		"/>
		<path class="st1" d="M921,31.4h-3.3v-1.6h3.3V31.4z M912,31.4h-3.3v-1.6h3.3V31.4z M903,31.4h-3.3v-1.6h3.3V31.4z"/>
		<polygon class="st1" points="893.3,32.2 891.7,32.2 891.7,29.9 894.1,29.9 894.1,31.4 893.3,31.4 		"/>
		<path class="st1" d="M893.3,98.4h-1.6v-3h1.6V98.4z M893.3,90.1h-1.6v-3h1.6V90.1z M893.3,81.9h-1.6v-3h1.6V81.9z M893.3,73.6
			h-1.6v-3h1.6V73.6z M893.3,65.3h-1.6v-3h1.6V65.3z M893.3,57h-1.6v-3h1.6V57z M893.3,48.8h-1.6v-3h1.6V48.8z M893.3,40.5h-1.6v-3
			h1.6V40.5z"/>
		<polygon class="st1" points="891.9,106.9 890.8,105.8 891.7,104.9 891.7,103.7 893.3,103.7 893.3,105.6 		"/>
		<polygon class="st1" points="888.1,111.9 886.5,111.9 886.5,110.1 887.8,108.7 888.9,109.8 888.1,110.7 		"/>
		<polygon class="st1" points="888.8,116 886.5,116 886.5,113.6 888.1,113.6 888.1,114.4 888.8,114.4 		"/>
		<path class="st1" d="M904.3,116h-0.4v-0.9l-0.4-0.4l2.3-2.3l1.1,1.1L904.3,116z M898,116h-3.3v-1.6h3.3V116z M923.6,111.2h-3.3
			v-1.6h3.3V111.2z M914.4,111.2h-3.3v-1.6h3.3V111.2z"/>
		<polygon class="st1" points="931.8,111.2 929.4,111.2 929.4,109.6 930.2,109.6 930.2,108.8 931.8,108.8 		"/>
		<rect x="930.2" y="101" class="st1" width="1.6" height="2.9"/>
		<polygon class="st1" points="931.8,95.9 930.2,95.9 930.2,93.6 932.6,93.6 932.6,95.2 931.8,95.2 		"/>
		<path class="st1" d="M946.2,95.2h-2.5v-1.6h2.5V95.2z M939.4,95.2h-2.5v-1.6h2.5V95.2z"/>
		<polygon class="st1" points="952.9,95.2 950.5,95.2 950.5,93.6 951.3,93.6 951.3,92.8 952.9,92.8 		"/>
		<rect x="951.3" y="86.5" class="st1" width="1.6" height="2.3"/>
		<polygon class="st1" points="952.9,82.5 951.3,82.5 951.3,80.1 953.6,80.1 953.6,81.7 952.9,81.7 		"/>
		<path class="st1" d="M971.1,82.1l-0.7-0.4h-2v-1.6h2.5l1.1,0.7L971.1,82.1z M962.6,81.7h-3.3v-1.6h3.3V81.7z"/>
		<polygon class="st1" points="977.3,87 977,85.8 975.9,85.1 976.7,83.8 978.4,84.8 978.8,86.6 		"/>
		<path class="st1" d="M986.7,150l-1.4-0.6l1.1-2.7l1.4,0.6L986.7,150z M989.8,142.5l-1.4-0.6l1.1-2.7l1.4,0.6L989.8,142.5z
			 M988.6,134.6l-0.7-2.9l1.5-0.4l0.7,2.9L988.6,134.6z M986.7,126.6l-0.7-2.9l1.5-0.4l0.7,2.9L986.7,126.6z M984.8,118.7l-0.7-2.9
			l1.5-0.4l0.7,2.9L984.8,118.7z M982.9,110.8l-0.7-2.9l1.5-0.4l0.7,2.9L982.9,110.8z M981,102.8l-0.7-2.9l1.5-0.4l0.7,2.9
			L981,102.8z M979.2,94.9l-0.7-2.9l1.5-0.4l0.7,2.9L979.2,94.9z"/>
		<polygon class="st1" points="983.4,157.7 982.5,155.9 983.2,154.2 984.7,154.8 984.2,155.9 984.8,156.9 		"/>
		
			<rect x="986.7" y="163.2" transform="matrix(0.8926 -0.4509 0.4509 0.8926 32.1421 462.8754)" class="st1" width="1.6" height="1.6"/>
	</g>
	<polygon class="st2" points="1098.3,194.4 1099.9,195.1 1100.5,195.1 1100.2,196.8 1099.3,198.5 1099.1,199.7 1097.3,203.2 
		1096.8,205.8 1095.4,207.1 1093.6,207.1 1093.6,208.4 1091.9,209.6 1091.4,211.1 1091.1,212.3 1091.8,213.9 1092.7,214.7 
		1092.1,215.8 1091.6,218.2 1090.8,218.6 1090.2,219.5 1092.7,220.6 1093.5,221.2 1093.9,222.1 1094.9,223.1 1093.8,223.8 
		1093.7,225 1093.4,225.7 1093.3,227 1092.8,227.2 1092,226.4 1091.7,225.6 1091,225.8 1090.6,226.6 1090,226.9 1088.9,228.3 
		1087.8,229 1087.5,229.8 1086.2,230.3 1085.2,232.1 1084.7,231.2 1083.2,229.8 1082.7,229.8 1081.9,230.4 1081,231.5 1079.8,232.6 
		1080,233.2 1079.5,234.6 1080.7,235.8 1080.7,236.6 1079.4,237.6 1078.2,238 1077.9,238.7 1077.8,240.2 1077.2,241.6 1077.5,243.1 
		1077,243.2 1076.5,244.4 1075.2,244.6 1073.7,243.9 1073.7,243.2 1072.1,243.1 1071.7,242.2 1070.7,241.7 1070.7,240.7 
		1069.7,239.7 1067.7,239.7 1067.1,239 1068.3,236.5 1068.4,235 1067.4,232.8 1067.2,231.4 1066.6,231.3 1065.8,230 1065.6,229 
		1064.6,227.6 1061.8,226.7 1062.1,225.4 1062,224.8 1060.5,226 1059.7,226.4 1059.4,227.4 1058.7,228.4 1057.8,228.7 1057.3,229.5 
		1056.8,229.5 1055.9,228.8 1055.2,227.6 1054.6,227.7 1053.6,227.2 1052.6,227 1052,226.5 1051.9,225.9 1051,224.5 1050.9,223.9 
		1051.7,222.7 1051.3,222.3 1051.4,221.6 1050.7,219.7 1049.4,220.8 1048.3,221.2 1047.7,220.9 1046.4,220.7 1045.6,221.3 
		1044.9,221.4 1043.9,221 1043.9,220.1 1044.4,218.6 1045.3,218.2 1045,216.7 1045.7,216.4 1045.4,215.5 1045.8,214.8 1044.9,213.9 
		1045.5,211.7 1046.2,210.6 1046.6,210.6 1047.5,211.8 1047.5,212.5 1048,213.5 1048.1,214.4 1049.4,215.3 1050.4,215.3 
		1051.7,214.6 1052,214.8 1052.1,217.3 1052.6,217.5 1052.6,218.8 1053.2,219.2 1053.9,218.5 1055.3,219 1055.8,219.4 1055.9,220.1 
		1057.3,220.3 1058.2,221.8 1059.9,221.8 1061.9,221.5 1063,220.9 1064.1,221.1 1065,222.1 1065.8,221.3 1065.7,220.4 1066,218.8 
		1065.8,218.1 1065.9,217 1067,215.7 1068,213.9 1069.9,214.9 1070.7,216.7 1069.7,218.5 1068.7,219.1 1069.1,220.1 1070.1,221.3 
		1071.3,219.4 1072.8,219 1073.5,217.9 1074.2,216.3 1075.9,216.8 1078.1,216.9 1078.9,216.4 1079.6,215.2 1080.5,214.4 
		1080.9,213.7 1083.5,211.3 1083.7,209.7 1084.1,208.6 1084.3,206.8 1082.8,205 1082.6,204.5 1083.4,203.9 1084.5,204.8 
		1085.1,206.3 1085.8,207.1 1086.3,207.1 1088.4,205.6 1088.2,204.4 1088.6,203.4 1089.1,202.9 1089.1,201.7 1089.4,199.3 
		1089,196.9 1090.5,197.6 1091.3,197.7 1092.4,197.1 1093.5,195 1094.3,195.1 1094.2,195.4 1095.1,195.1 1095.6,194.1 1096.3,194.4 
		1097.5,194.1 	"/>
	<g>
		<polygon class="st3" points="969.5,279.7 969.6,278.8 969.9,278.1 969.1,278.3 968.3,279.1 968.7,280.1 		"/>
		<polygon class="st3" points="1207.5,316.8 1207.9,315.5 1206.9,313.9 1206.4,311.3 1206,310.6 1205.7,309.4 1205.2,308.6 
			1204.9,307.2 1204.4,306.4 1204.2,305 1203.5,303.2 1202.3,301.7 1202.8,300.7 1202.7,299.2 1201.7,298.9 1201.1,298 
			1200.4,296.1 1201,294.7 1200.9,294 1200.2,292.9 1199.2,292.4 1197.9,290.6 1197.4,290.2 1194.9,287.6 1193.4,287.7 
			1193.5,286.2 1192.9,285.1 1191.2,284.9 1190.1,284.5 1189.5,283.9 1188.1,284 1187.4,284.5 1187.4,283.6 1192,279.4 
			1196.5,275.1 1197.4,275.1 1197.4,274.1 1198.2,273.6 1198.7,272.1 1198.2,270.8 1196.6,269.7 1196.7,268.9 1196,267.6 
			1195.7,265.9 1195.3,265.4 1194.8,264.2 1192.7,264.4 1191.7,263.6 1191.4,261.9 1190.8,260.6 1190.5,258.4 1190,257 
			1188.3,254.3 1188.2,252.6 1188.4,251.6 1188.3,250.1 1187.7,248.7 1186.9,248.1 1186.2,246.5 1187,243.6 1187.1,241.8 
			1186.9,240.5 1187.3,238.7 1187.9,236.8 1187,234.5 1187.3,233.3 1186.7,232.1 1186.9,231.4 1187.7,230.1 1188.8,229.1 
			1191.2,227.8 1192.1,226 1191.7,224.6 1192,221.3 1192.4,220 1195.8,216.1 1195.8,215.7 1194.8,214.6 1194.4,213.2 1194.9,211.7 
			1193.1,210.4 1190.5,210.1 1189.4,210.1 1188.2,209.6 1185.8,210.9 1185.2,211.7 1184.4,212.2 1183.1,211.9 1181.8,211.5 
			1179.5,212 1178.4,212.6 1177.3,212.7 1175.7,212.6 1174.6,212.7 1172.7,213.6 1171.6,213.2 1171.1,213.5 1169.6,213.6 
			1167.3,213.2 1166.4,212.7 1165.3,212.6 1164,212.7 1163.6,212.2 1161.4,212.1 1160.5,211.9 1159.7,213.3 1158.8,213.8 
			1158.2,214.5 1156.5,214.8 1155.7,213.6 1154,214.4 1153.9,214.3 1150.2,209.6 1146.5,204.9 1142.9,200.2 1139.3,195.6 
			1137.2,195.9 1135.6,196.5 1134.7,196.4 1133.4,195.3 1131.2,195 1130.4,194.4 1130.1,193.7 1128.5,193.9 1127.2,193.2 
			1126.6,193.2 1123.3,193.9 1122.3,194.6 1121.1,195 1120.4,195.5 1119.4,195.6 1118.5,195.3 1117.9,194.6 1116.7,195 
			1114.3,194.7 1113.1,195 1111.7,194.4 1111.1,194.9 1110.4,194.4 1109.5,194.6 1108.2,194.5 1107.8,194.1 1106.9,194 
			1106.9,194.5 1105.8,194.4 1105.5,193.8 1104.7,193.8 1103.3,194.4 1103,194.7 1101.3,194.9 1100.5,195.1 1100.2,196.8 
			1099.3,198.5 1099.1,199.7 1097.3,203.2 1096.8,205.8 1095.4,207.1 1093.6,207.1 1093.6,208.4 1091.9,209.6 1091.4,211.1 
			1091.1,212.3 1091.8,213.9 1092.7,214.7 1092.1,215.8 1091.6,218.2 1090.8,218.6 1090.2,219.5 1092.7,220.6 1093.5,221.2 
			1093.9,222.1 1094.9,223.1 1093.8,223.8 1093.7,225 1093.4,225.7 1093.3,227 1092.8,227.2 1092,226.4 1091.7,225.6 1091,225.8 
			1090.6,226.6 1090,226.9 1088.9,228.3 1087.8,229 1087.5,229.8 1086.2,230.3 1085.2,232.1 1084.7,231.2 1083.2,229.8 
			1082.7,229.8 1081.9,230.4 1081,231.5 1079.8,232.6 1080,233.2 1079.5,234.6 1080.7,235.8 1080.7,236.6 1079.4,237.6 1078.2,238 
			1077.9,238.7 1077.8,240.2 1077.2,241.6 1077.5,243.1 1077,243.2 1076.5,244.4 1075.2,244.6 1073.7,243.9 1073.7,243.2 
			1072.1,243.1 1071.7,242.2 1070.7,241.7 1070.7,240.7 1069.7,239.7 1067.7,239.7 1067.1,239 1068.3,236.5 1068.4,235 
			1067.4,232.8 1067.2,231.4 1066.6,231.3 1065.8,230 1065.6,229 1064.6,227.6 1061.8,226.7 1062.1,225.4 1062,224.8 1060.5,226 
			1059.7,226.4 1059.4,227.4 1058.7,228.4 1057.8,228.7 1057.3,229.5 1056.8,229.5 1055.9,228.8 1055.2,227.6 1054.6,227.7 
			1053.6,227.2 1052.6,227 1052,226.5 1051.9,225.9 1051,224.5 1050.9,223.9 1051.7,222.7 1051.3,222.3 1051.4,221.6 1050.7,219.7 
			1049.4,220.8 1048.3,221.2 1047.7,220.9 1046.4,220.7 1045.6,221.3 1044.9,221.4 1043.9,221 1043.9,220.1 1044.4,218.6 
			1045.3,218.2 1045,216.7 1045.7,216.4 1045.4,215.5 1045.8,214.8 1044.9,213.9 1045.5,211.7 1046.2,210.6 1046.6,210.6 
			1047.5,211.8 1047.5,212.5 1048,213.5 1048.1,214.4 1049.4,215.3 1050.4,215.3 1051.7,214.6 1052,214.8 1052.1,217.3 
			1052.6,217.5 1052.6,218.8 1053.2,219.2 1053.9,218.5 1055.3,219 1055.8,219.4 1055.9,220.1 1057.3,220.3 1058.2,221.8 
			1059.9,221.8 1061.9,221.5 1063,220.9 1064.1,221.1 1065,222.1 1065.8,221.3 1065.7,220.4 1066,218.8 1065.8,218.1 1065.9,217 
			1067,215.7 1068,213.9 1069.9,214.9 1070.7,216.7 1069.7,218.5 1068.7,219.1 1069.1,220.1 1070.1,221.3 1071.3,219.4 1072.8,219 
			1073.5,217.9 1074.2,216.3 1075.9,216.8 1078.1,216.9 1078.9,216.4 1079.6,215.2 1080.5,214.4 1080.9,213.7 1083.5,211.3 
			1083.7,209.7 1084.1,208.6 1084.3,206.8 1082.8,205 1082.6,204.5 1083.4,203.9 1084.5,204.8 1085.1,206.3 1085.8,207.1 
			1086.3,207.1 1088.4,205.6 1088.2,204.4 1088.6,203.4 1089.1,202.9 1089.1,201.7 1089.4,199.3 1089,196.9 1090.5,197.6 
			1091.3,197.7 1092.4,197.1 1093.5,195 1094.3,195.1 1094.2,195.4 1095.1,195.1 1095.6,194.1 1096.3,194.4 1097.5,194.1 
			1098.3,194.4 1095.8,189.4 1096,187.3 1094.6,186.6 1092,187 1090.6,186.5 1090.1,185.1 1089.4,184.3 1089.7,183 1089.4,182.3 
			1089.2,179.7 1090.1,177 1089.5,175.5 1091.6,173.6 1091.5,172 1091.7,170.7 1091.5,168.9 1091.3,168.2 1091.2,166.4 
			1086.5,161.1 1085.7,160.9 1083.2,150.7 1082.7,150.6 1082.1,149.9 1081.2,150.3 1079.7,150.6 1078.7,149.6 1079,148.9 
			1078.8,147.4 1078.1,146.5 1077,146.9 1076.5,147.7 1075.6,148 1074.3,149 1073,149.3 1072.2,149 1071.2,149.1 1071.6,148.6 
			1072.5,146.3 1073.5,144.2 1074.5,143.3 1074.5,142.8 1075.8,140.9 1076.5,140.6 1076.9,139.6 1078,138 1078.6,136.2 
			1079.7,135.2 1079.9,134.5 1079.4,134.4 1078.8,133.7 1078.9,132 1080.5,128 1080.2,126.6 1080.4,125.4 1081,124.5 1082.3,122.9 
			1082.7,122 1084.7,118.8 1085.9,116.4 1087.3,112.6 1088.3,110.5 1089,109.6 1089.7,107.6 1090.7,106.7 1091.1,106.8 
			1092.9,106.1 1094.9,106.3 1097.8,100.9 1100.8,95.5 1107.6,93.8 1108.6,93.3 1112.5,92.4 1112.7,91.8 1112,91.9 1112.9,91.2 
			1114.2,89.6 1115.3,89.2 1116.9,87.7 1117.1,87.1 1116.8,85.7 1114.7,81.5 1113.7,80.7 1112.2,80.5 1111.5,80.1 1110.4,80 
			1109.4,79.1 1107.7,78.6 1105.5,78.6 1104.8,78.9 1105.9,78.8 1106.5,79.2 1105.9,79.8 1105.4,79.8 1105.1,80.4 1104.6,79.7 
			1103.9,80.8 1102.7,81.6 1102.7,80.3 1100.4,81.8 1101.1,82.5 1101.9,84 1100.9,84.2 1100.3,84.9 1099.4,85.1 1099.2,84.3 
			1099.7,82.9 1097.9,83.3 1095.7,83.4 1095.4,83.7 1096.2,84.5 1096.3,85.9 1095.3,88.2 1094.5,89.2 1094.2,90.5 1093.3,90.8 
			1093,91.3 1090.3,92.9 1090,92.5 1089.1,92.7 1088.5,93.4 1087.8,93.3 1086.8,93.8 1084.3,94.5 1082.3,96.1 1082.1,96.8 
			1081.4,97.3 1079.7,97.5 1078.1,99 1076.7,99.7 1076.1,100.3 1074.6,101.2 1074.3,102 1071.4,103.9 1069.2,104.1 1068,103.9 
			1066.3,104.1 1063.8,104.1 1061.1,104 1057.5,102.3 1054.5,102.6 1053.8,102.9 1053.6,103.7 1052.5,104.9 1052.9,107 
			1052.7,108.6 1051.4,110 1049.2,110.4 1046.9,110.2 1045.6,109.8 1042.3,108.3 1040.2,107.8 1039.1,108.3 1037.5,110 
			1036.8,110.4 1035.6,111.9 1032.6,113.7 1031.7,114.1 1031.2,114.1 1030.9,115.4 1030.1,116 1028.5,116.5 1027.3,117.7 
			1027.3,118.3 1026.1,118.8 1026.8,120.4 1026.9,121.5 1026.4,121.6 1026.2,120.6 1025,122.3 1025.9,123.1 1026,124.5 
			1025.6,125.1 1025,125.2 1024.4,124.6 1023.7,126.6 1022.3,127.9 1022.3,128.2 1023.9,127.2 1024.9,126.2 1025.9,125.8 
			1025.6,126.7 1026.1,127.5 1025.3,127.8 1025,128.4 1024.5,128.3 1025,129 1024.7,129.3 1025.5,129.7 1025.7,131 1024.9,131.5 
			1024.4,132.4 1023.8,134.4 1023.7,135.4 1022.9,136.7 1022.2,137.1 1023.1,137.2 1024.1,137.5 1024.8,138.7 1024.9,139.7 
			1024.7,140.6 1023.3,143.2 1022.2,143.6 1020.4,143.4 1019,143.1 1017.1,143.4 1016.4,144.1 1014.4,144.8 1013.3,145.7 
			1013.3,146.4 1012.1,147.5 1011.8,149.3 1010.5,150.8 1010,152.2 1008.4,153.2 1007.9,154 1006.5,154.6 1005.6,155.9 
			1004.2,156.5 1003.1,157.4 1002,158 1001.3,158.9 999.4,159.5 997.3,160 996.2,161.2 996,161.7 996.5,161.7 998.2,162.7 
			999.1,164 999.9,165.7 999.4,167.2 1000.2,169.9 1000,171.5 1000.2,171.5 1000.1,174 999.9,174.7 998.1,175.2 997,175.1 
			996.3,174.8 996,173.3 996.3,172.4 997.7,172.8 997.3,172 998,172.2 997.6,171 996.9,171.3 997.8,170.4 996.7,170.5 996.1,171.3 
			995.7,170 996.1,169.8 995.3,168.7 995.6,168 994.9,167.7 993.3,167.2 992.9,166 991.6,164.4 989.5,163 989.1,161.9 988.3,161.4 
			986.9,159.6 986.2,161.1 985.1,162.7 985.6,163.9 986.7,164.9 987.5,167.9 989.2,169.4 990,171.6 990.6,174.1 990.2,175 
			990.3,175.8 988.8,176.6 987.1,177.7 985.7,179.7 984,181.8 983.6,183.2 982.6,183.7 981.4,181.2 980.2,180.4 979.5,180.5 
			979.3,181.2 980,184 977.5,184.8 976.2,187.1 975.7,188.6 975.7,189.5 976.5,190.8 978.7,192.7 979.5,193 980.1,193.8 
			980.2,194.5 980.9,195.1 980.7,195.7 980.1,196 979.8,197.3 980.5,197.4 982.4,198.7 982.9,199.2 983.7,201.2 983.6,201.9 
			984.3,202.1 984.5,201.1 985.4,200.8 986.2,201.1 986.4,202.1 987.6,203.8 987.8,204.6 987.4,205.3 987.2,207.3 986.2,207.6 
			986.5,207.9 986.4,209.6 985.9,210.2 984.7,209.5 984.4,211.1 985.2,212.6 985.4,213.4 986.4,214.9 986.7,214.2 987.6,216.4 
			987.5,216.9 987.8,218 988.7,219.7 989.2,220.2 988.6,221.6 987.2,222.7 986.4,224 985.3,223.7 984.3,224.2 983.5,224.3 
			982.9,226.1 983.6,226.4 985,226.3 985.1,227.2 985.9,227.3 985.4,228.2 985.6,229.7 985.9,229.8 986.3,230.9 985.8,230.5 
			985.5,232.7 986.4,232.4 985.8,233.8 985.9,234.8 986.4,236.5 986.2,238.1 987,240.7 987.9,241.6 988.4,242.5 988.1,242.7 
			987.4,241.9 987.3,243 987.8,243.9 987.4,244.5 987.2,246.7 987.4,247 986.7,247.4 986.7,249.2 985.1,250.9 985,251.5 985.5,252 
			984.8,252.4 985.1,252.9 983.6,252.8 983.7,251.7 983.1,253.4 984.3,253.3 983.3,254 983.6,254.7 985,254 986.4,254 985.9,255 
			985,255.6 985,257.5 986.4,259.3 987,258.8 987.6,256.7 988.8,256.1 989.5,256.9 989.2,258.4 989.5,258.5 987.3,259.3 
			987.4,259.8 988.4,260.2 987.8,260.8 989,261.1 990.1,260.7 991.7,260.5 993.5,259.8 992.4,261 992.2,262.1 991.3,261.9 
			990.8,263.1 990.6,264.5 991.1,264.4 991.2,265.2 990.2,266.1 988.4,266.8 987,268.8 987.3,268.9 987,270.5 986.3,270.8 
			986.1,271.3 985.3,271.3 983.2,273.2 984,274 983.9,274.4 983,274.6 981.3,276.9 980.5,277.6 981.2,277.7 980.2,278.2 980,277.7 
			979.1,279.1 979.6,278.8 980.5,279 979.1,281.3 980.2,281.3 978.8,282.4 978.1,282.6 977.6,283.1 978.6,283.3 976.8,283.9 
			976.6,285.9 975.1,284.5 974.8,286 974.4,285.3 974.3,286.4 973.4,286.2 973.1,286 972,287.5 970.9,288.4 970.7,287.5 970.1,286 
			969.2,286 968.3,286.4 968.2,287.2 966.7,288.7 966.6,288 965.8,288.6 965.7,289.8 965.9,290.6 965.1,289.2 964.6,288.7 
			964.5,288 963.7,288.1 962.9,289.2 961.2,290.1 960.7,291.4 959.9,292.7 959.8,293.4 960.3,295.4 961.1,295.6 960.9,297.1 
			959.4,297.4 958.9,297.2 958.8,299.8 959.8,299.5 960.5,300.6 960.4,301.9 961.1,302 961.2,304.2 960.9,304.7 957.7,304.5 
			957.2,304.3 954.5,303.9 954,304.7 951.3,307.8 951.4,308.6 953.5,310.4 953.8,311.1 954.7,311.1 954.7,311.6 956.3,313.1 
			958,314.5 958.8,315.8 959.4,315.8 960.5,317.2 962.9,317.6 965,319.6 965.8,320.6 967.7,320.9 968.6,322 970.4,323.4 
			971.3,323.9 973.5,325.4 975.2,325.8 976,325.8 978,325.1 979.4,324.8 980.4,325 980.7,325.6 980.2,326.9 980.3,327.5 
			981.2,328.4 983.4,329.2 984,330.1 983.8,331.1 984,332.1 985.1,334 985.4,334.7 986.4,335 987.4,334.5 989.1,335.2 990,335.3 
			991.2,334.8 992.4,334.8 993.1,336.1 995.6,336.3 995.9,336.8 997,337.3 998.2,337 999.5,337.5 998.9,336.7 999.6,336.5 
			1001.5,336.7 1002.3,336.9 1003.1,338.1 1005.2,337.1 1006.5,337.1 1006.5,334.3 1008.1,334.4 1008.8,333.6 1010,334.1 
			1012.2,334.4 1012.8,335.5 1013.5,335.4 1015.2,336.1 1015.6,337.5 1016.3,338 1016.8,338.9 1017.9,340 1019.3,341.1 
			1021.8,341.7 1023.6,341.1 1024.8,342.7 1027.1,343.7 1027.8,344.4 1028.7,344.3 1030.1,344.7 1030.9,345.1 1032.3,343.4 
			1034.5,344.3 1037,346 1037.7,347 1038.2,346.9 1039.2,347.6 1040.3,347 1040.4,346.3 1041.9,347.9 1042.6,349.2 1042.6,350.2 
			1043.4,350.1 1043.8,350.9 1044.6,350.5 1045.9,351.3 1046.6,352.9 1047.1,352.6 1048.8,353.6 1048.8,354.5 1049.4,354.8 
			1049.9,356.8 1050.2,357.8 1049.7,358.5 1050.9,359.3 1051.5,360.4 1052.2,360.7 1052,362 1050.9,361.9 1051.8,362.6 1052,363.9 
			1053.6,364.8 1054.7,365 1055.8,365.5 1056.7,364.6 1057.2,366.4 1057.6,366.7 1058.6,366.4 1058.4,367.1 1059.4,367 
			1060.5,369.1 1062.4,369.6 1062.6,368.8 1063.3,369.6 1064.3,369.6 1065.6,370.4 1065.9,371.3 1066.4,371.3 1066.6,372.2 
			1067,372.9 1066.5,373.4 1067.2,373.5 1067.5,374.3 1068.3,374.8 1068.6,375.8 1068.3,376.3 1069.1,376.7 1069,377.1 1068.1,378 
			1067.5,379.9 1069.3,380.3 1070,381.3 1071.1,381.2 1072.4,382 1072.3,381.2 1073.5,381.2 1073.7,381.6 1074.1,380.5 
			1074.8,381.5 1075.8,382.1 1075.9,383.1 1076.7,383.4 1076.5,386 1076.9,386.9 1076.9,387.7 1077.6,387.8 1076.9,388.5 
			1076.2,389.8 1075.2,390.3 1075.6,391.1 1076.7,392.1 1076.5,392.8 1077.6,392.6 1077.5,393.4 1078,392.6 1079,393.4 1080,392.9 
			1080,394 1080.8,394.9 1080.5,395.6 1083.7,394.1 1084.5,394.9 1084.8,393.8 1085.4,394.3 1085.7,395.2 1086.2,395 1086.6,393.5 
			1088.1,393.8 1088.7,394.2 1090.1,394.1 1091.8,394.2 1092.2,395.3 1092.9,395.6 1094.4,395 1095.4,394.4 1096.6,394.4 
			1097.2,395.2 1097.3,394 1098.4,393.1 1099.2,392.2 1100.5,392.9 1101.1,392.7 1101.8,393 1101.7,391.7 1102.9,391.5 
			1103.6,389.2 1104.2,389.3 1104.7,388.7 1105.7,388.1 1106,388.5 1106.2,389.7 1107.9,389.6 1110.4,390.4 1110.4,391.8 
			1110.7,391.9 1111.1,390.8 1112.4,391.7 1113,392.9 1113,393.5 1114.3,393 1114.9,392.4 1115.5,392.5 1115.5,393.3 1116.3,392.4 
			1117.3,393 1117.7,392.4 1118.5,392.5 1118.5,391.4 1119.8,390.9 1121.3,391.3 1120.9,389.4 1122.6,390.5 1123.8,390.2 
			1124.5,390.4 1125.2,391.3 1126.1,391.6 1127,392.4 1128.2,392.8 1128.3,393.8 1129,393.8 1129.4,394.3 1129,394.9 1129.6,395.7 
			1130.4,395.2 1130,394.3 1130.6,394.4 1131.7,395.2 1132.4,394.9 1133,396.1 1133.6,396.1 1135,395.8 1136.1,396.1 1136,396.5 
			1134.9,397.1 1135.5,397.4 1136.9,397.1 1137.5,397.6 1137.5,398.9 1137.9,399.1 1138.5,398.5 1139,399.1 1138.8,400.3 
			1139.6,400 1139.9,399.1 1140.5,399.5 1140.7,401.3 1137.1,407.2 1133.6,413.1 1130.5,418.2 1127.4,423.2 1127.9,423.3 
			1129,424.2 1130.2,424.2 1131.8,424.8 1133.2,424.2 1134.4,423 1135,423.2 1136.6,423.3 1137.6,423.7 1138.3,424.9 1138.8,426.6 
			1139.4,427.6 1140.5,428.7 1141.2,429.5 1143.3,431.9 1144.5,425.9 1145.5,419.9 1146.7,414 1147.8,408 1149,401.2 1150.3,394.4 
			1151.5,387.7 1152.3,383.7 1153.5,376.1 1153.5,374.5 1154.1,373.5 1154.1,372.6 1154.6,371 1154.1,368.9 1154.9,367.1 
			1154.2,365.8 1153.9,364.3 1153.1,363.2 1152.3,362.5 1151.7,360.9 1150,358.8 1150.9,356.7 1150.7,355.3 1150.1,353.5 
			1148.1,352.6 1147,351.5 1146.1,351.2 1144.9,350.1 1144,350.1 1142,347.9 1140.9,345.6 1141.2,337.3 1141.2,332.1 1142.3,331.4 
			1143.4,331.5 1143.7,331.2 1146.2,331 1147.5,330.6 1147.8,329.8 1149.4,329.5 1149.7,330 1151.6,328.9 1152.4,328 1153,328 
			1155,329.7 1155.1,330.1 1156.7,329.7 1157.2,330.5 1158.6,330.4 1158.9,329.8 1160.2,329.8 1160.2,329 1159.2,328.4 
			1159.1,327.8 1159.5,327.2 1159.3,325.9 1159.7,325.1 1159,324.1 1159.2,323.4 1158.5,323 1158.4,321.7 1156.5,320.7 
			1155.6,320.5 1155,320.8 1153.5,320.9 1152.7,320.5 1151,320.6 1149.3,320.2 1148.3,320.5 1148.3,320 1147.2,319.9 1145.8,320.7 
			1145.4,320.5 1145.4,313.9 1145.4,307.3 1146.5,307.3 1147.5,306.7 1149.6,306.8 1151.4,306 1153.5,306.3 1154.8,306.8 
			1161.2,307 1167.6,307.2 1174,307.5 1180.5,307.7 1180.4,307.1 1179.8,307.1 1180,306.5 1179.5,306.2 1178.9,306.3 1179.1,305.5 
			1178,305.1 1178.7,304.1 1179.1,303 1179.5,302.1 1181.4,302.8 1182.2,303.6 1182.8,305.2 1184.1,306.3 1186,307.1 1186.6,306.9 
			1188.4,305.9 1189.8,304.2 1190.5,303.7 1192.4,300.6 1194.7,298.7 1196.3,299.2 1197.8,301.1 1199.3,305.2 1200.1,305.8 
			1201.4,307.5 1201.9,308.9 1202.3,310.9 1202.9,312.1 1203.3,313.8 1203.4,315.6 1203.2,316.7 1203.6,319.2 1208.2,318.4 		"/>
		<path class="st3" d="M925.7,65.2L925.7,65.2c-0.6-0.4-1.2-0.7-1.9-1c-0.5-0.1-0.9-0.5-1-1.1c-0.1-0.6-0.6-1.1-1.3-1.1
			c-0.3,0-0.5,0.1-0.7,0.3c-0.4,0.3-0.7,0.6-1,0.9c-0.3,0.4-0.7,0.7-1.1,1c-0.8,0.4-1.1,1.3-1.6,1.9c-0.2,1,0,2-0.6,2.9
			c-0.4,0.5-0.8,1-1.3,1.5c-1,0.9-0.7,2.2-0.3,2.9c-0.2,0.9-0.4,1.7-0.6,2.4c-0.1,0.3-0.2,0.7-0.4,1c-0.6,0.9-0.6,1.4,0.3,1.9
			c0.4,0.2,0.7,0.3,0.6,0.9c0,0.4,0,0.8,0.1,1.2c-0.1,0.8-0.2,1.6-0.2,2.4c0.1,0.5-0.1,1.1-0.3,1.5c-0.4,0.7-0.8,1.5-1.2,2.3
			c0,0.6,0,1.2,0.1,1.7c0.1,0.3,0.2,0.6,0.4,0.9c0.2,0.3,0.5,0.6,0.9,0.7c0.3,0,0.6-0.1,0.8-0.4c0.5-0.6,0.9-1.2,1.3-1.9
			c0.7-1.3,1.2-2.5,1.8-3.8l0.3-2c0-0.1,0.1-0.2,0.1-0.3c0.1-1.1,0.2-2.2,1.2-3c0.4-0.4,0.6-0.8,0.7-1.4c0-0.6,0-1.3,0-1.9
			c0.1-0.2,0.2-0.4,0.4-0.6c0.2-0.2,0.6-0.4,0.6-0.6c0.1-1.1,0-2.3,0.1-3.4c0-0.4-0.1-0.7-0.5-0.8c-0.4-0.1-0.4-0.3-0.2-0.6
			c0.2,0,0.4,0,0.6,0c0.3-0.1,0.6-0.2,0.9-0.4l-0.4-0.6l0.3-0.2c0-0.3-0.1-0.5-0.1-0.8l-0.2-0.3c0.1-0.2,0.2-0.4,0.3-0.6
			c0.8-0.7,1.7-1.2,2.9-1c0.2,0,0.4-0.1,0.6-0.3C925.9,65.6,925.8,65.3,925.7,65.2z"/>
		<path class="st3" d="M944.3,70.3c-0.1-0.1-0.4,0.1-0.6,0.1c-0.5,0.1-0.7-0.3-0.8-0.7c-0.2-0.6-0.3-1.2-0.5-1.8v-0.2l0.7-0.7
			l0.2-0.2l-0.1,0l0-0.1l-0.3-0.7c0,0-0.1,0-0.1,0l-0.2,0.1l-0.2,0l-0.1-0.3h-0.1l-0.2,0l-0.3,0c-0.4,0-0.6-0.1-0.5-0.6
			c0,0,0-0.1,0-0.1l-0.4-0.8l-0.1-0.4l-0.9-0.2l-0.6-0.2c0,0-0.1,0-0.1,0l0.2-1.3l0.1-0.2l0-0.1l-0.4-0.4c0,0-0.1,0-0.1,0l-0.2,0.1
			l-0.6,0.2l-0.4,0l-0.6,0.2c-0.1,0.1-0.1,0.2-0.2,0.3c-0.6,0.5-0.7,1.3-0.3,1.9c0.1,0.1,0.2,0.2,0.3,0.3l0.2,0l0.6,0.7
			c0.3-0.1,0.7-0.2,1-0.2c0.5,0,0.3,0.5,0.4,0.8l-0.1,0.6l0,0.6l-0.9,1.1c0.1,0,0.2,0.1,0.3,0.1c-0.1,0-0.2,0-0.3-0.1l-0.3,0.1
			l-0.3-0.1c0,0-0.1,0-0.1,0l-0.6,0l-0.2-0.3l-0.7-0.2l-1.3,1.1l-0.3,0.6c0.2-0.1,0.5-0.2,0.7-0.3c-0.2,0.1-0.5,0.2-0.7,0.3l0,0.4
			l-0.3,0.2c-0.7,0.8-1.1,1.8-1.1,2.8c0.1,0.8-0.1,1.6-0.4,2.3c-0.3,0.5-0.4,1.2,0.3,1.6c0.1,0.1,0.2,0.2,0.2,0.3
			c0.1,0.6,0.2,1.3,0.3,1.9c0,0.4,0,0.8,0,1.2c0.1,0.2,0,0.5,0.2,0.6c0.2,0.2,0.5,0.4,0.8,0.5c0.1,0,0.3-0.2,0.5-0.3l0,0l0.2-0.1
			l1.9-0.5l0.3,0c0.2-0.6,0.5-1.1,1-1.5c-0.5,0.4-0.8,0.9-1,1.5l0.9-0.6l1.8-1.6l0.3,0c0.8,0,1.5-0.1,1.7-1c0-0.1,0.1-0.2,0.2-0.3
			c0.5-0.7,0.7-1.6,0.5-2.4c-0.1-0.5-0.1-0.9,0-1.4c0-0.1,0.2-0.2,0.3-0.3c0.3-0.1,0.6-0.2,1-0.3c0.2-0.3,0.4-0.6,0.6-1
			C944.6,70.6,944.5,70.4,944.3,70.3L944.3,70.3z M940.4,64.6c0.1,0.1,0.3,0.2,0.4,0.4C940.7,64.8,940.5,64.7,940.4,64.6z"/>
	</g>
</g>
</svg>
